<?xml version="1.0" encoding="utf-8"?>
<!-- Generator: Adobe Illustrator 26.0.2, SVG Export Plug-In . SVG Version: 6.00 Build 0)  -->
<svg version="1.1" id="Layer_1" xmlns="http://www.w3.org/2000/svg" xmlns:xlink="http://www.w3.org/1999/xlink" x="0px" y="0px"
	 viewBox="0 0 500 500" style="enable-background:new 0 0 500 500;" xml:space="preserve">
<style type="text/css">
	.st0{fill:#CCCCCC;}
	.st1{fill:#9BCA3E;}
	.st2{fill:#8C8C8C;}
	.st3{fill:#012701;}
	.st4{fill:#FFFFFF;}
	.st5{fill:#FA990E;}
</style>
<polygon class="st0" points="57.1,400.6 139.1,241.9 157.6,243.2 173.3,235.7 188.5,241.9 209,241.9 226.9,235.7 242.8,241.9 
	260.1,241.2 278.3,273.1 262.6,399.8 "/>
<g>
	<path class="st1" d="M201.4,116.5L201.4,116.5c-2.4,0-4.6,1.3-5.7,3.4L48.7,398c-1.1,2-1,4.4,0.2,6.3s3.3,3.1,5.5,3.1h292.2
		c2.3,0,4.4-1.2,5.5-3.1c1.2-1.9,1.2-4.3,0.2-6.3L207.1,120C206,117.8,203.8,116.5,201.4,116.5z M336,394.6H65.1l76.4-144.5
		c2.2,0.3,4.4,0.5,6.6,0.5c9.6,0,18.7-3,26.2-8.7c7.5,5.6,16.7,8.7,26.2,8.7c9.6,0,18.7-3,26.2-8.7c7.5,5.6,16.6,8.7,26.2,8.7
		c2.5,0,5-0.2,7.5-0.6L336,394.6z M252.9,237.7c-8.1,0-15.9-3.1-21.7-8.9c-2.5-2.5-6.5-2.5-9,0c-5.8,5.7-13.5,8.9-21.7,8.9
		s-15.9-3.1-21.7-8.9c-2.5-2.5-6.5-2.5-9,0c-5.8,5.7-13.5,8.9-21.7,8.9H148l53.3-100.8L254,237.6
		C253.6,237.6,253.3,237.7,252.9,237.7z"/>
</g>
<g>
	<polygon class="st2" points="368.6,204 438.9,204 438.9,393.9 438.9,401.4 244.1,401.4 244.1,273.7 289.6,270.6 290.1,214.8 
		364.8,181.2 	"/>
	<g>
		<path class="st3" d="M364.7,407.5h-74.3c-3.7,0-6.8-3-6.8-6.8V214.4c0-2.7,1.5-5,3.9-6.1l74.3-35.2c2.1-1,4.5-0.9,6.5,0.4
			c1.9,1.2,3.1,3.4,3.1,5.7v221.5C371.4,404.5,368.4,407.5,364.7,407.5z M297.2,393.9h60.7V190l-60.7,28.8V393.9L297.2,393.9z"/>
	</g>
	<g>
		<path class="st3" d="M438.9,407.5h-74.3c-3.7,0-6.8-3-6.8-6.8V205.2c0-3.7,3-6.8,6.8-6.8h74.3c3.7,0,6.8,3,6.8,6.8v195.5
			C445.7,404.5,442.7,407.5,438.9,407.5z M371.4,393.9h60.7V212h-60.7V393.9z"/>
	</g>
	<g>
		<path class="st3" d="M290.4,407.5H243c-3.7,0-6.8-3-6.8-6.8V271.4c0-3.7,3-6.8,6.8-6.8h47.4c3.7,0,6.8,3,6.8,6.8v129.3
			C297.2,404.5,294.1,407.5,290.4,407.5z M249.8,393.9h33.8V278.2h-33.8V393.9z"/>
	</g>
	<g>
		<path class="st3" d="M341,407.5h-26.9c-3.7,0-6.8-3-6.8-6.8v-61.1c0-3.7,3-6.8,6.8-6.8H341c3.7,0,6.8,3,6.8,6.8v61.1
			C347.8,404.5,344.7,407.5,341,407.5z M320.8,393.9h13.3v-47.5h-13.3V393.9z"/>
	</g>
	<g>
		<g>
			<path class="st4" d="M266.1,311c-3.7,0-6.8-3-6.8-6.8v-3.5c0-3.7,3-6.8,6.8-6.8c3.7,0,6.8,3,6.8,6.8v3.5
				C272.9,307.9,269.8,311,266.1,311z"/>
		</g>
		<g>
			<path class="st5" d="M266.1,344.6c-3.7,0-6.8-3-6.8-6.8v-3.5c0-3.7,3-6.8,6.8-6.8c3.7,0,6.8,3,6.8,6.8v3.5
				C272.9,341.5,269.8,344.6,266.1,344.6z"/>
		</g>
		<g>
			<path class="st4" d="M266.1,378.2c-3.7,0-6.8-3-6.8-6.8v-3.5c0-3.7,3-6.8,6.8-6.8c3.7,0,6.8,3,6.8,6.8v3.5
				C272.9,375.2,269.8,378.2,266.1,378.2z"/>
		</g>
	</g>
	<g>
		<g>
			<g>
				<path class="st4" d="M388.7,311c-3.7,0-6.8-3-6.8-6.8v-3.5c0-3.7,3-6.8,6.8-6.8c3.7,0,6.8,3,6.8,6.8v3.5
					C395.5,307.9,392.5,311,388.7,311z"/>
			</g>
			<g>
				<path class="st4" d="M388.7,344.6c-3.7,0-6.8-3-6.8-6.8v-3.5c0-3.7,3-6.8,6.8-6.8c3.7,0,6.8,3,6.8,6.8v3.5
					C395.5,341.5,392.5,344.6,388.7,344.6z"/>
			</g>
			<g>
				<path class="st5" d="M388.7,378.2c-3.7,0-6.8-3-6.8-6.8v-3.5c0-3.7,3-6.8,6.8-6.8c3.7,0,6.8,3,6.8,6.8v3.5
					C395.5,375.2,392.5,378.2,388.7,378.2z"/>
			</g>
			<g>
				<path class="st4" d="M388.7,243.7c-3.7,0-6.8-3-6.8-6.8v-3.5c0-3.7,3-6.8,6.8-6.8c3.7,0,6.8,3,6.8,6.8v3.5
					C395.5,240.7,392.5,243.7,388.7,243.7z"/>
			</g>
			<g>
				<path class="st4" d="M388.7,277.4c-3.7,0-6.8-3-6.8-6.8v-3.5c0-3.7,3-6.8,6.8-6.8c3.7,0,6.8,3,6.8,6.8v3.5
					C395.5,274.3,392.5,277.4,388.7,277.4z"/>
			</g>
		</g>
		<g>
			<g>
				<path class="st5" d="M414.9,311c-3.7,0-6.8-3-6.8-6.8v-3.5c0-3.7,3-6.8,6.8-6.8c3.7,0,6.8,3,6.8,6.8v3.5
					C421.7,307.9,418.6,311,414.9,311z"/>
			</g>
			<g>
				<path class="st4" d="M414.9,344.6c-3.7,0-6.8-3-6.8-6.8v-3.5c0-3.7,3-6.8,6.8-6.8c3.7,0,6.8,3,6.8,6.8v3.5
					C421.7,341.5,418.6,344.6,414.9,344.6z"/>
			</g>
			<g>
				<path class="st4" d="M414.9,378.2c-3.7,0-6.8-3-6.8-6.8v-3.5c0-3.7,3-6.8,6.8-6.8c3.7,0,6.8,3,6.8,6.8v3.5
					C421.7,375.2,418.6,378.2,414.9,378.2z"/>
			</g>
			<g>
				<path class="st5" d="M414.9,243.7c-3.7,0-6.8-3-6.8-6.8v-3.5c0-3.7,3-6.8,6.8-6.8c3.7,0,6.8,3,6.8,6.8v3.5
					C421.7,240.7,418.6,243.7,414.9,243.7z"/>
			</g>
			<g>
				<path class="st4" d="M414.9,277.4c-3.7,0-6.8-3-6.8-6.8v-3.5c0-3.7,3-6.8,6.8-6.8c3.7,0,6.8,3,6.8,6.8v3.5
					C421.7,274.3,418.6,277.4,414.9,277.4z"/>
			</g>
		</g>
	</g>
	<g>
		<path class="st4" d="M314.5,312.8c-3.7,0-6.8-3-6.8-6.8v-3.5c0-3.7,3-6.8,6.8-6.8s6.8,3,6.8,6.8v3.5
			C321.2,309.7,318.2,312.8,314.5,312.8z"/>
	</g>
	<g>
		<path class="st5" d="M314.5,245.6c-3.7,0-6.8-3-6.8-6.8v-3.4c0-3.7,3-6.8,6.8-6.8s6.8,3,6.8,6.8v3.5
			C321.2,242.5,318.2,245.6,314.5,245.6z"/>
	</g>
	<g>
		<path class="st4" d="M314.5,279.2c-3.7,0-6.8-3-6.8-6.8v-3.5c0-3.7,3-6.8,6.8-6.8s6.8,3,6.8,6.8v3.5
			C321.2,276.1,318.2,279.2,314.5,279.2z"/>
	</g>
	<g>
		<path class="st5" d="M340.6,312.8c-3.7,0-6.8-3-6.8-6.8v-3.5c0-3.7,3-6.8,6.8-6.8c3.7,0,6.8,3,6.8,6.8v3.5
			C347.4,309.7,344.3,312.8,340.6,312.8z"/>
	</g>
	<g>
		<path class="st4" d="M340.6,245.6c-3.7,0-6.8-3-6.8-6.8v-3.4c0-3.7,3-6.8,6.8-6.8c3.7,0,6.8,3,6.8,6.8v3.5
			C347.4,242.5,344.3,245.6,340.6,245.6z"/>
	</g>
	<g>
		<path class="st4" d="M340.6,279.2c-3.7,0-6.8-3-6.8-6.8v-3.5c0-3.7,3-6.8,6.8-6.8c3.7,0,6.8,3,6.8,6.8v3.5
			C347.4,276.1,344.3,279.2,340.6,279.2z"/>
	</g>
</g>
<path class="st4" d="M243.7,110.6h23.1c1.7-11.6,10.9-20.8,22.5-22.4c1.7-17.2,16.3-30.6,33.9-30.6c17.7,0,32.2,13.4,33.9,30.7
	c13.9-2.6,25.1,9.3,22.4,22.3h30.7c10,0,10,15.1,0,15.1H243.7C233.7,125.8,233.7,110.6,243.7,110.6z"/>
<g>
	<g>
		<path class="st3" d="M410.2,125.8c-32.9,0-34.9,1.2-37.8-3.7c-3.2-5.5,1.5-7.4,1.5-13.9c0-9.7-9.6-15.7-17.2-11
			c-4.8,3.1-11.3-0.2-11.6-6c-0.8-14.6-12.2-26-25.8-26c-12.9,0-23.9,10.3-25.7,24.1c-0.4,3.2-2.8,5.8-6,6.5
			c-7.8,1.6-13.4,9-13.4,17.4c0,3.4,1.6,6.4-1.3,9.9c-2.8,3.4-3.5,2.7-29.4,2.7c-10,0-10-15.1,0-15.1h15.6
			c0.9-12.7,9-23.7,20.3-28.2c10.2-42.1,67.2-43.3,79.1-1.8c17.1-2.5,31.9,12.3,30.3,30H410C420.3,110.6,420.2,125.8,410.2,125.8z"
			/>
	</g>
</g>
<path class="st4" d="M65,142.9h13.6c1-6.9,6.4-12.3,13.3-13.2c1-10.1,9.6-18.1,20-18.1c10.5,0,19,7.9,20,18.1
	c8.2-1.5,14.8,5.5,13.2,13.2h18.1c5.9,0,5.9,8.9,0,8.9H65C59.1,151.9,59.1,142.9,65,142.9z"/>
<g>
	<g>
		<path class="st3" d="M163.3,151.9c-19.4,0-20.6,0.7-22.3-2.2c-1.9-3.2,0.9-4.3,0.9-8.2c0-5.7-5.7-9.3-10.1-6.5
			c-2.9,1.8-6.7-0.1-6.9-3.5c-0.5-8.6-7.2-15.3-15.2-15.3c-7.6,0-14.1,6.1-15.2,14.2c-0.2,1.9-1.7,3.4-3.5,3.8
			c-4.6,1-7.9,5.3-7.9,10.3c0,2,1,3.8-0.8,5.9c-1.7,2-2.1,1.6-17.4,1.6c-5.9,0-5.9-8.9,0-8.9h9.2c0.6-7.5,5.3-14,12-16.6
			c6.1-24.8,39.7-25.6,46.7-1.1c10.1-1.5,18.8,7.3,17.9,17.7h12.5C169.2,142.9,169.2,151.9,163.3,151.9z"/>
	</g>
</g>
<path class="st1" d="M768,206"/>
</svg>
