<svg id="Layer_1" data-name="Layer 1" xmlns="http://www.w3.org/2000/svg" viewBox="0 0 78 78"><defs><style>.cls-1{fill:#fff;}.cls-2{fill:#9bca3e;}.cls-3{fill:#151a6a;}</style></defs><circle class="cls-1" cx="39" cy="39" r="39"/><path class="cls-2" d="M59.06,38.4a5.93,5.93,0,0,0-5.72-6.24A6.88,6.88,0,0,0,48.66,34,6.84,6.84,0,0,0,44,32.16a5.94,5.94,0,0,0-5.72,6.24c0,2.4,1.3,7.07,10,11.33a1,1,0,0,0,.91,0C57.77,45.47,59.06,40.8,59.06,38.4Z" transform="translate(-10.66 -10.99)"/><path class="cls-2" d="M65.46,38a3.21,3.21,0,0,0-3.2,3.2V55.35a.8.8,0,0,1-1.6,0V50.79a2.8,2.8,0,0,0-5.6,0v18.4h-1.6a.8.8,0,0,0-.8.8v4.8a.8.8,0,0,0,.8.8h12a.79.79,0,0,0,.8-.8V70a.8.8,0,0,0-.8-.8h-1.6v-2.4l4.67-7a.79.79,0,0,0,.13-.45V41.19A3.2,3.2,0,0,0,65.46,38Zm-.8,32.8V74H54.26v-3.2Z" transform="translate(-10.66 -10.99)"/><path class="cls-3" d="M56.36,26a10.35,10.35,0,0,0-7.7,3.48A10.3,10.3,0,0,0,41,26a8.22,8.22,0,0,0-7.5,5,3.71,3.71,0,0,0-1.21-.22,3.6,3.6,0,0,0-3.6,3.6V54a.8.8,0,0,0,.24.56l3.76,3.77v1.27a1.6,1.6,0,0,0-1.6,1.6v4a.8.8,0,0,0,.8.8h9.6a.8.8,0,0,0,.8-.8v-4a1.6,1.6,0,0,0-1.6-1.6V49.11a47.26,47.26,0,0,0,7.64,4.76.79.79,0,0,0,.73,0c13.78-7,15.83-14.45,15.83-18.29C64.86,30.21,61.13,26,56.36,26ZM40.66,64.36h-8v-3.2h8Zm-6.4-4.8V58a.79.79,0,0,0-.23-.57l-3.77-3.76V34.36a2,2,0,0,1,4,0v16.4a.8.8,0,1,0,1.6,0v-7.2a1.6,1.6,0,0,1,3.2,0v16Zm14.4-7.3a43.74,43.74,0,0,1-8-5.2v-3.5a3.2,3.2,0,0,0-3.2-3.2,3.25,3.25,0,0,0-1.6.44V34.36a3.57,3.57,0,0,0-1-2.51A6.66,6.66,0,0,1,41,27.59a8.74,8.74,0,0,1,7,3.6.82.82,0,0,0,1.33,0,8.85,8.85,0,0,1,7-3.6c3.94,0,6.9,3.44,6.9,8C63.26,39,61.36,45.73,48.66,52.26Z" transform="translate(-10.66 -10.99)"/></svg>