<svg id="Layer_1" data-name="Layer 1" xmlns="http://www.w3.org/2000/svg" viewBox="0 0 78 78"><defs><style>.cls-1{fill:#fff;}.cls-2{fill:#9bca3e;}.cls-3{fill:#151a6a;}</style></defs><circle class="cls-1" cx="39" cy="39" r="39"/><path class="cls-2" d="M60.22,37.59a11.06,11.06,0,0,0-11,11v25.5A.85.85,0,0,0,50,75h15.3a.86.86,0,0,0,.85-.85v-6.8h4.25a.86.86,0,0,0,.85-.85V61.82l3-2.3a.84.84,0,0,0,.2-1.15l-3.25-4.88V48.64A11.07,11.07,0,0,0,60.22,37.59Zm2.59,13.65c-2.07,2.07-5.94,4.88-8,2.81A7.64,7.64,0,1,1,65.62,43.24C67.54,45.15,65.3,48.74,62.81,51.24Z" transform="translate(-10.66 -10.99)"/><path class="cls-2" d="M56,44.44a6,6,0,0,0,0,8.41c.67.67,3.08-.3,5.6-2.81s3.48-4.93,2.81-5.6A6,6,0,0,0,56,44.44Z" transform="translate(-10.66 -10.99)"/><path class="cls-3" d="M58.09,25.69a7.93,7.93,0,0,0-1.61.17A7.63,7.63,0,0,0,43.8,25.5,7.13,7.13,0,0,0,39.39,24a7.24,7.24,0,0,0-6.15,3.43,7.69,7.69,0,0,0-7,7.62,8.74,8.74,0,0,0,.07,1A5.94,5.94,0,0,0,27,46.31a5.52,5.52,0,0,0,6.94,7.84,5.13,5.13,0,0,0,2.52,1.22v8.57a.85.85,0,1,0,1.7,0V55.37a5.05,5.05,0,0,0,4-3.65,8.28,8.28,0,0,0,3.1-1.64A6.74,6.74,0,0,0,49.08,52a3.85,3.85,0,0,1-2.56,2.89l-2.29.77A5.52,5.52,0,0,0,40.78,59L39,63.65a.84.84,0,0,0,.5,1.09.79.79,0,0,0,.3.05.85.85,0,0,0,.79-.55l1.76-4.69a3.85,3.85,0,0,1,2.4-2.31l2.29-.76A5.56,5.56,0,0,0,50.8,52a6.8,6.8,0,0,0,5.14-3.42,6.81,6.81,0,0,0,10.23-5.88,6.74,6.74,0,0,0-1.5-4.25,8.07,8.07,0,0,0-6.58-12.75ZM37.27,53.74a3.4,3.4,0,0,1-2.56-1.18.86.86,0,0,0-1.07-.18,3.76,3.76,0,0,1-1.9.51,3.79,3.79,0,0,1-3.1-6,6.24,6.24,0,0,0,1,.08,5.88,5.88,0,0,0,2.24-.43,8.45,8.45,0,0,0,8,5.53h.39A3.36,3.36,0,0,1,37.27,53.74ZM63,39.08a5.09,5.09,0,0,1-3.59,8.71,5.15,5.15,0,0,1-3.24-1.15A.85.85,0,0,0,54.8,47,5.12,5.12,0,0,1,50,50.34a5,5,0,0,1-4-2,.85.85,0,0,0-1.29-.07A6.79,6.79,0,0,1,33.2,45.09a.85.85,0,0,0-1.29-.52,4.25,4.25,0,1,1-4.29-7.33.85.85,0,0,0,.43-.93A6.1,6.1,0,0,1,27.91,35a6,6,0,0,1,5.86-5.94.83.83,0,0,0,.73-.45,5.53,5.53,0,0,1,4.89-3,5.47,5.47,0,0,1,4,1.71.85.85,0,0,0,1.37-.2,5.93,5.93,0,0,1,10.56,0,.87.87,0,0,0,1,.43,6.12,6.12,0,0,1,1.79-.27,6.37,6.37,0,0,1,4.83,10.53A.86.86,0,0,0,63,39.08Z" transform="translate(-10.66 -10.99)"/><path class="cls-3" d="M54.9,35.53a11.86,11.86,0,0,0,.72-2A.85.85,0,1,0,54,33.13a9.35,9.35,0,0,1-6.14,6.55,3.16,3.16,0,0,1,.28-4.16.83.83,0,0,0,0-1.2.85.85,0,0,0-1.2,0,4.86,4.86,0,0,0-1.43,3.45,4.74,4.74,0,0,0,.6,2.29,9.27,9.27,0,0,1-6.57-1.64,6,6,0,0,0,2.79-4.23,3.4,3.4,0,0,0,3.47-3.4.85.85,0,0,0-1.7,0,1.7,1.7,0,0,1-3.4,0,.85.85,0,0,0-1.7,0,3.39,3.39,0,0,0,1.66,2.91,4.24,4.24,0,0,1-7.09,2.78.85.85,0,1,0-1.14,1.25,5.91,5.91,0,0,0,4,1.56,6.12,6.12,0,0,0,1.28-.14,11.05,11.05,0,0,0,2.06,1.41,4.61,4.61,0,0,0-2.13,3.89.85.85,0,1,0,1.7,0,2.93,2.93,0,0,1,2.93-2.93h0a10.9,10.9,0,0,0,7.71-.9h0a2.92,2.92,0,0,1,2.92,2.92.85.85,0,0,0,1.7,0,4.63,4.63,0,0,0-2.72-4.21A10.75,10.75,0,0,0,54,37.09a3.17,3.17,0,0,1,2.83,3.15.85.85,0,1,0,1.7,0A4.87,4.87,0,0,0,54.9,35.53Z" transform="translate(-10.66 -10.99)"/></svg>