<?xml version="1.0" encoding="utf-8"?>
<!-- Generator: Adobe Illustrator 26.0.2, SVG Export Plug-In . SVG Version: 6.00 Build 0)  -->
<svg version="1.1" id="Layer_1" xmlns="http://www.w3.org/2000/svg" xmlns:xlink="http://www.w3.org/1999/xlink" x="0px" y="0px"
	 viewBox="0 0 958.08 718.08" style="enable-background:new 0 0 958.08 718.08;" xml:space="preserve">
<style type="text/css">
	.st0{fill:#F4F5F5;stroke:#9BCA3E;stroke-width:13;stroke-miterlimit:10;}
</style>
<path class="st0" d="M125.5,113.45c125.17-113.84,264.22-75,277.86-71.57c97.16,24.43,152.37,88.15,231.18,65.35
	C680.44,93.95,716.6,60.1,766.2,65.35c47.31,5.01,80.21,38.72,93.48,52.32c95.34,97.68,133.78,360.51,10.64,494.5
	c-100.5,109.35-227.29,80.5-256.44,76.09c-77.12-11.67-101.79-53.87-182.69-60.9c-127.93-11.11-178.91,72.5-255.53,48.94
	C82.18,647.57,17.51,516.3,10.74,399.52C3.68,277.89,59.54,173.44,125.5,113.45z"/>
</svg>
