<?xml version="1.0" encoding="utf-8"?>
<!-- Generator: Adobe Illustrator 26.0.2, SVG Export Plug-In . SVG Version: 6.00 Build 0)  -->
<svg version="1.1" id="Layer_1" xmlns="http://www.w3.org/2000/svg" xmlns:xlink="http://www.w3.org/1999/xlink" x="0px" y="0px"
	 viewBox="0 0 100 100" style="enable-background:new 0 0 100 100;" xml:space="preserve">
<style type="text/css">
	.st0{fill:#9BCA3E;}
	.st1{enable-background:new    ;}
	.st2{fill:#FFFFFF;}
</style>
<circle class="st0" cx="49.5" cy="49.5" r="40.5"/>
<g class="st1">
	<path class="st2" d="M60.8,64.4c0,1.8-0.9,2.8-2.7,2.8H43c-1.8,0-2.7-0.9-2.7-2.8c0-1.8,0.9-2.7,2.7-2.7h4.6V38.1l-4.3,3.1
		c-0.4,0.3-0.8,0.4-1.1,0.4c-0.6,0-1.2-0.3-1.6-0.9C40.2,40,40,39.3,40,38.5c0-1,0.4-1.8,1.2-2.3l6.9-5c0.9-0.6,1.7-0.9,2.5-0.9
		c0.8,0,1.5,0.3,2,0.9c0.5,0.6,0.8,1.4,0.8,2.4v28.2h4.7C59.9,61.8,60.8,62.7,60.8,64.4z"/>
</g>
</svg>
