<?xml version="1.0" encoding="utf-8"?>
<!-- Generator: Adobe Illustrator 26.0.2, SVG Export Plug-In . SVG Version: 6.00 Build 0)  -->
<svg version="1.1" id="Layer_1" xmlns="http://www.w3.org/2000/svg" xmlns:xlink="http://www.w3.org/1999/xlink" x="0px" y="0px"
	 viewBox="0 0 100 100" style="enable-background:new 0 0 100 100;" xml:space="preserve">
<style type="text/css">
	.st0{fill:#9BCA3E;}
	.st1{fill:#FFFFFF;}
</style>
<circle class="st0" cx="49.5" cy="49.5" r="40.5"/>
<g>
	<path class="st1" d="M69.5,68.2c0,0.8-0.3,1.6-0.9,2.2s-1.4,0.9-2.2,0.9c-0.9,0-1.7-0.4-2.5-1.2L50.1,54.4L36.4,70.1
		c-0.7,0.8-1.6,1.2-2.5,1.2c-0.9,0-1.6-0.3-2.3-0.9c-0.7-0.6-1-1.4-1-2.3c0-0.9,0.3-1.6,1-2.4l14.1-15.9L32.3,34.4
		c-0.7-0.8-1-1.6-1-2.4c0-0.9,0.3-1.7,1-2.3c0.7-0.6,1.4-0.9,2.2-0.9c0.9,0,1.7,0.4,2.5,1.2l13.2,15.1L63.2,30
		c0.7-0.8,1.6-1.2,2.5-1.2c0.8,0,1.6,0.3,2.2,0.9c0.6,0.6,0.9,1.4,0.9,2.2c0,1-0.3,1.8-1,2.5L54.3,49.8l14.1,15.9
		C69.1,66.4,69.5,67.2,69.5,68.2z"/>
</g>
</svg>
