<?xml version="1.0" encoding="utf-8"?>
<!-- Generator: Adobe Illustrator 26.0.2, SVG Export Plug-In . SVG Version: 6.00 Build 0)  -->
<svg version="1.1" id="Layer_1" xmlns="http://www.w3.org/2000/svg" xmlns:xlink="http://www.w3.org/1999/xlink" x="0px" y="0px"
	 viewBox="0 0 500 500" style="enable-background:new 0 0 500 500;" xml:space="preserve">
<style type="text/css">
	.st0{fill:#FFFFFF;}
	.st1{fill:#445C72;}
	.st2{fill:#FF755A;}
	.st3{fill:#D0EEF2;}
	.st4{fill:#35495E;}
	.st5{fill:#018FCB;}
	.st6{fill:#FAC852;}
</style>
<g>
	<g>
		<g>
			<g>
				<path class="st0" d="M262.3,457.1l-146.9-61.6c-1.6-0.7-2.4-2.6-1.7-4.2L252.1,61c0.7-1.6,2.6-2.4,4.2-1.7l146.9,61.6
					c1.6,0.7,2.4,2.6,1.7,4.2L266.5,455.3C265.8,457,263.9,457.7,262.3,457.1z"/>
				<path class="st1" d="M259.2,455.5c-1.5,0-3.1-0.3-4.6-0.9l-132.2-55.4c-2.9-1.2-5.2-3.5-6.4-6.5c-1.2-3-1.2-6.2,0-9.1
					L248.3,68.1c1.2-2.9,3.5-5.2,6.5-6.4c3-1.2,6.2-1.2,9.1,0l132.2,55.4c6.1,2.5,8.9,9.6,6.4,15.6L270.3,448.2
					C268.3,452.8,263.9,455.5,259.2,455.5z M255.2,453.3c5.4,2.2,11.5-0.3,13.8-5.6l132.2-315.5c2.2-5.4-0.3-11.5-5.6-13.8L263.4,63
					c-2.6-1.1-5.5-1.1-8.1,0c-2.6,1.1-4.6,3.1-5.7,5.7L117.4,384.1c-1.1,2.6-1.1,5.5,0,8.1c1.1,2.6,3.1,4.6,5.7,5.7L255.2,453.3z"/>
			</g>
			<path class="st2" d="M143,407.1l-19-7.9c-6.5-2.7-9.5-10.1-6.8-16.6L248.4,69.7c2.7-6.5,10.1-9.5,16.6-6.8l19,7.9
				c4.9,2.1,7.2,7.7,5.2,12.6L155.6,401.9C153.6,406.8,147.9,409.1,143,407.1z"/>
			<path class="st3" d="M297.5,160l-13.1-5.5c-1.4-0.6-2-2.2-1.5-3.6l19.6-46.8c0.6-1.4,2.2-2,3.6-1.5l13.1,5.5
				c1.4,0.6,2,2.2,1.5,3.6L301,158.6C300.4,160,298.8,160.6,297.5,160z"/>
			<path class="st3" d="M331.8,200.1l-24.6-10.3c-1.6-0.7-2.3-2.5-1.6-4l28.5-68c0.7-1.6,2.5-2.3,4-1.6l24.6,10.3
				c1.6,0.7,2.3,2.5,1.6,4l-28.5,68C335.2,200,333.4,200.7,331.8,200.1z"/>
			<g>
				<path class="st4" d="M249.9,176.9l113.4,47.5L249.9,176.9z"/>
				
					<rect x="305.9" y="139.2" transform="matrix(0.3866 -0.9223 0.9223 0.3866 3.0097 405.8735)" class="st1" width="1.4" height="122.9"/>
			</g>
			
				<rect x="374.9" y="133" transform="matrix(0.9223 0.3865 -0.3865 0.9223 83.0971 -134.9944)" class="st5" width="4.7" height="12.2"/>
			
				<rect x="368.3" y="148.7" transform="matrix(0.9222 0.3866 -0.3866 0.9222 88.6569 -131.2748)" class="st5" width="4.7" height="12.2"/>
			
				<rect x="361.8" y="164.2" transform="matrix(0.9223 0.3866 -0.3866 0.9223 94.1505 -127.5211)" class="st5" width="4.7" height="12.2"/>
			<g>
				<path class="st0" d="M238.2,306.1l-16.5-6.9c-0.4-0.2-1,0-1.1,0.5l-43.3,103.3c-0.2,0.4,0,1,0.5,1.1l16.5,6.9
					c0.4,0.2,1,0,1.1-0.5l43.3-103.3C238.9,306.8,238.7,306.3,238.2,306.1z"/>
				<path class="st1" d="M193.4,411.1c-0.5,0-1-0.1-1.4-0.3l-12.5-5.2c-0.9-0.4-1.6-1.1-2-2c-0.4-0.9-0.4-1.9,0-2.9l41.6-99.3
					c0.8-1.9,3-2.8,4.9-2l12.5,5.2c1.9,0.8,2.8,3,2,4.9l-41.6,99.3c-0.4,0.9-1.1,1.6-2,2C194.4,411,193.9,411.1,193.4,411.1z
					 M222.6,300.5c-0.9,0-1.8,0.5-2.2,1.4l-41.6,99.3c-0.5,1.2,0.1,2.6,1.3,3.1l12.5,5.2c1.2,0.5,2.6-0.1,3.1-1.3l41.6-99.3
					c0.5-1.2-0.1-2.6-1.3-3.1l-12.5-5.2C223.2,300.5,222.9,300.5,222.6,300.5z"/>
			</g>
			<g>
				<path class="st0" d="M273.4,320.8l-25.5-10.7c-0.5-0.2-1.2,0-1.4,0.6l-43.2,103c-0.2,0.5,0,1.2,0.6,1.4l25.5,10.7
					c0.5,0.2,1.2,0,1.4-0.6l43.2-103C274.2,321.7,273.9,321,273.4,320.8z"/>
				<path class="st1" d="M228.4,425.9c-0.6,0-1.2-0.1-1.8-0.4l-20.6-8.6c-2.3-1-3.5-3.7-2.5-6l41.1-98c0.5-1.1,1.4-2,2.5-2.5
					c1.1-0.5,2.4-0.5,3.5,0l20.6,8.6c1.1,0.5,2,1.4,2.5,2.5c0.5,1.1,0.5,2.4,0,3.5l-41.1,98c-0.5,1.1-1.4,2-2.5,2.5
					C229.5,425.8,229,425.9,228.4,425.9z M248.8,311.7c-0.4,0-0.7,0.1-1.1,0.2c-0.7,0.3-1.3,0.8-1.6,1.6l-41.1,98
					c-0.6,1.5,0.1,3.2,1.5,3.8l20.6,8.6c0.7,0.3,1.5,0.3,2.2,0c0.7-0.3,1.3-0.8,1.6-1.6l41.1-98c0.3-0.7,0.3-1.5,0-2.2
					c-0.3-0.7-0.8-1.3-1.6-1.6l-20.6-8.6C249.6,311.8,249.2,311.7,248.8,311.7z"/>
			</g>
			
				<rect x="211.7" y="396.1" transform="matrix(0.9222 0.3866 -0.3866 0.9222 172.8875 -51.7192)" class="st5" width="6.7" height="15.6"/>
			
				<rect x="185.8" y="385.3" transform="matrix(0.9223 0.3866 -0.3866 0.9223 166.6889 -42.5822)" class="st5" width="6.7" height="15.6"/>
			<path class="st2" d="M395.8,117.7L263.7,62.3c-5.7-2.4-12.3,0.3-14.7,6l0,0l152.9,64.1l0,0C404.3,126.7,401.6,120.1,395.8,117.7z
				"/>
		</g>
		<path class="st0" d="M241,154.7l-9.1-3.8c-0.3-0.1-0.4-0.4-0.3-0.7l29.9-71.4c0.1-0.3,0.4-0.4,0.7-0.3l9.1,3.8
			c0.3,0.1,0.4,0.4,0.3,0.7l-29.9,71.4C241.6,154.6,241.3,154.8,241,154.7z"/>
	</g>
	<g>
		<g>
			<g>
				<path class="st0" d="M294.3,412.8l-141.1-13c-6.6-0.6-11.5-6.5-10.9-13.1l31.1-339c0.6-6.6,6.5-11.5,13.1-10.9l141.1,13
					c6.6,0.6,11.5,6.5,10.9,13.1l-31.1,339C306.8,408.6,300.9,413.4,294.3,412.8z"/>
				<path class="st1" d="M296.1,413.6c-0.4,0-0.7,0-1.1-0.1l-142.7-13.1c-6.6-0.6-11.4-6.4-10.8-13l31.3-340.7
					c0.3-3.2,1.8-6,4.3-8.1c2.5-2,5.5-3,8.7-2.7l142.7,13.1c6.6,0.6,11.4,6.4,10.8,13L308,402.8c-0.3,3.2-1.8,6-4.3,8.1
					C301.6,412.7,298.9,413.6,296.1,413.6z M184.7,37.4c-5.4,0-10,4.1-10.5,9.6l-31.3,340.7c-0.5,5.8,3.7,10.9,9.5,11.5l142.7,13.1
					c2.8,0.3,5.5-0.6,7.7-2.4c2.2-1.8,3.5-4.3,3.8-7.1L337.9,62c0.3-2.8-0.6-5.5-2.4-7.7c-1.8-2.2-4.3-3.5-7.1-3.8L185.7,37.5
					C185.3,37.4,185,37.4,184.7,37.4z"/>
			</g>
			<path class="st2" d="M175.1,401.9l-22.2-2c-6.5-0.6-11.3-6.3-10.7-12.8l31.2-339.5c0.6-6.5,6.3-11.3,12.8-10.7l22.2,2
				c4.8,0.4,8.4,4.7,7.9,9.5l-31.7,345.6C184.2,398.8,180,402.3,175.1,401.9z"/>
			<path class="st3" d="M247.3,119.8l-14.2-1.3c-1.5-0.1-2.6-1.5-2.5-3l4.6-50.5c0.1-1.5,1.5-2.6,3-2.5l14.2,1.3
				c1.5,0.1,2.6,1.5,2.5,3l-4.6,50.5C250.1,118.8,248.8,119.9,247.3,119.8z"/>
			<path class="st3" d="M292.1,147.6l-26.5-2.4c-1.7-0.2-2.9-1.7-2.8-3.3l6.7-73.4c0.2-1.7,1.7-2.9,3.3-2.8l26.5,2.4
				c1.7,0.2,2.9,1.7,2.8,3.3l-6.7,73.4C295.3,146.5,293.8,147.8,292.1,147.6z"/>
			<g>
				<path class="st4" d="M207.1,150.2l122.4,11.2L207.1,150.2z"/>
				
					<rect x="267.6" y="94.3" transform="matrix(9.145644e-02 -0.9958 0.9958 9.145644e-02 88.5989 408.6798)" class="st1" width="1.4" height="122.9"/>
			</g>
			
				<rect x="314.8" y="69.8" transform="matrix(0.9958 9.147892e-02 -9.147892e-02 0.9958 8.2691 -28.6906)" class="st5" width="4.7" height="12.2"/>
			
				<rect x="313.2" y="86.6" transform="matrix(0.9958 9.147892e-02 -9.147892e-02 0.9958 9.8064 -28.478)" class="st5" width="4.7" height="12.2"/>
			
				<rect x="311.7" y="103.5" transform="matrix(0.9958 9.147892e-02 -9.147892e-02 0.9958 11.3383 -28.2662)" class="st5" width="4.7" height="12.2"/>
			<g>
				<path class="st0" d="M234.8,276.9l-17.8-1.6c-0.5,0-0.9,0.3-1,0.8l-10.2,111.6c0,0.5,0.3,0.9,0.8,1l17.8,1.6
					c0.5,0,0.9-0.3,1-0.8l10.2-111.6C235.6,277.3,235.2,276.9,234.8,276.9z"/>
				<path class="st1" d="M222.5,390.7c-0.1,0-0.2,0-0.3,0l-13.5-1.2c-1-0.1-1.9-0.6-2.5-1.3c-0.6-0.8-0.9-1.7-0.8-2.7l9.8-107.3
					c0.1-1,0.6-1.9,1.3-2.5c0.8-0.6,1.8-0.9,2.7-0.9l13.5,1.2c2.1,0.2,3.6,2,3.4,4.1l-9.9,107.3C226,389.2,224.4,390.7,222.5,390.7z
					 M218.8,276.1c-0.5,0-1.1,0.2-1.5,0.5c-0.5,0.4-0.8,1-0.8,1.6l-9.9,107.3c-0.1,0.6,0.1,1.2,0.5,1.7c0.4,0.5,1,0.8,1.6,0.8
					l13.5,1.2c0.6,0.1,1.2-0.1,1.7-0.5c0.5-0.4,0.8-1,0.8-1.6l9.8-107.3c0.1-1.3-0.8-2.4-2.1-2.5l-13.5-1.2
					C218.9,276.1,218.9,276.1,218.8,276.1z"/>
			</g>
			<g>
				<path class="st0" d="M272.7,280.3l-27.6-2.5c-0.6-0.1-1.1,0.4-1.2,1L233.7,390c-0.1,0.6,0.4,1.1,1,1.2l27.6,2.5
					c0.6,0.1,1.1-0.4,1.2-1l10.2-111.2C273.7,280.9,273.3,280.4,272.7,280.3z"/>
				<path class="st1" d="M260,394.3c-0.1,0-0.3,0-0.4,0l-22.3-2c-2.5-0.2-4.4-2.5-4.2-5l9.7-105.9c0.1-1.2,0.7-2.3,1.6-3.1
					c0.9-0.8,2.1-1.2,3.4-1l22.3,2c1.2,0.1,2.3,0.7,3.1,1.6c0.8,0.9,1.2,2.1,1,3.4l-9.7,105.9C264.3,392.5,262.3,394.3,260,394.3z
					 M247.4,278.9c-0.7,0-1.3,0.2-1.8,0.7c-0.6,0.5-1,1.2-1,2l-9.7,105.9c-0.1,1.6,1,3,2.6,3.1l22.3,2c1.5,0.1,3-1,3.1-2.6
					l9.7-105.9c0.1-0.8-0.2-1.5-0.7-2.1c-0.5-0.6-1.2-1-2-1l-22.3-2C247.6,278.9,247.5,278.9,247.4,278.9z"/>
			</g>
			
				<rect x="238.7" y="369.4" transform="matrix(0.9958 9.142943e-02 -9.142943e-02 0.9958 35.5007 -20.5484)" class="st5" width="6.7" height="15.6"/>
			
				<rect x="210.8" y="366.8" transform="matrix(0.9958 9.148008e-02 -9.148008e-02 0.9958 35.1699 -18.0203)" class="st5" width="6.7" height="15.6"/>
			<path class="st2" d="M328.4,49.9L185.7,36.8c-6.2-0.6-11.7,4-12.2,10.2l0,0l165.1,15.2l0,0C339.2,55.9,334.6,50.4,328.4,49.9z"/>
		</g>
		<path class="st0" d="M191.9,131.6l-9.8-0.9c-0.3,0-0.5-0.3-0.5-0.6l7.1-77.1c0-0.3,0.3-0.5,0.6-0.5l9.8,0.9c0.3,0,0.5,0.3,0.5,0.6
			l-7.1,77.1C192.4,131.4,192.1,131.6,191.9,131.6z"/>
	</g>
	<g>
		<path class="st1" d="M299.5,391.4l-179.7-27.3l37.9-250l179.7,27.3c2.6,0.4,4.5,2.9,4.1,5.5L305,387.3
			C304.6,390,302.1,391.8,299.5,391.4z"/>
		<g>
			<path class="st6" d="M183.7,304L183.7,304c0,0.2,0,0.3-0.1,0.4c0,0.1,0,0.2-0.1,0.4c-0.3,0.9-0.7,1.7-1.3,2.4
				c-0.6,0.7-1.3,1.2-2.1,1.7c-0.8,0.4-1.6,0.7-2.6,0.8c-0.9,0.1-1.8,0-2.7-0.3c0,0.3,0,0.5-0.1,0.8c0,0.3-0.1,0.6-0.2,1.1
				c-0.1,0.5-0.2,1.1-0.3,1.9c-0.1,0.8-0.3,1.9-0.4,3.3l0,0c0,0,0,0,0,0c0,0,0,0,0,0c-0.3,0-0.6,0-1,0c-0.4,0-0.8-0.1-1.3-0.1
				c-0.4-0.1-0.9-0.1-1.3-0.2c-0.4-0.1-0.8-0.2-1.1-0.3c0.2-1.4,0.4-2.9,0.6-4.5c0.2-1.6,0.5-3.3,0.8-5c0.3-1.7,0.5-3.4,0.8-5.1
				c0.3-1.7,0.5-3.4,0.6-4.9c0.8-0.1,1.7-0.1,2.6-0.1c0.9,0,1.8,0.2,2.7,0.4c0.9,0.2,1.8,0.5,2.6,0.9c0.8,0.4,1.5,0.9,2.1,1.5
				c0.6,0.6,1,1.3,1.4,2.1C183.7,302,183.8,302.9,183.7,304z M178.9,302.1c-0.4-0.4-0.9-0.8-1.5-1c-0.6-0.2-1.2-0.3-1.8-0.2
				c0,0-0.1,0-0.1,0c0,0.3-0.1,0.7-0.1,1.1c-0.1,0.4-0.1,0.8-0.2,1.1c0,0.4-0.1,0.7-0.1,1.1c0,0.4,0,0.7,0,1l0.1,0
				c0.3,0,0.6,0.1,1,0.1c0.3,0,0.7,0.1,1,0.1c0.3,0,0.7,0,1-0.1c0.3-0.1,0.6-0.2,0.9-0.4c0.2-0.2,0.3-0.4,0.4-0.7
				c0.1-0.3,0.2-0.5,0.1-0.8c0-0.3-0.1-0.5-0.2-0.8C179.3,302.5,179.1,302.3,178.9,302.1z"/>
			<path class="st6" d="M192.3,309.4l0.6,10.2l0,0c-0.6,0-1.2,0-1.9-0.2c-0.7-0.1-1.3-0.3-1.9-0.5l0,0c-0.1-0.3-0.1-0.7-0.2-1.1
				c0-0.4-0.1-0.9-0.1-1.3c0-0.4-0.1-0.9-0.1-1.3c-0.1-0.4-0.1-0.8-0.2-1.1c-0.2-0.1-0.4-0.1-0.6-0.1c-0.1,0-0.2,0-0.4-0.1
				c-0.1,0-0.2,0-0.3,0c-0.1,0-0.3,0-0.5-0.1c-0.2,0.3-0.3,0.6-0.5,1c-0.1,0.4-0.3,0.8-0.4,1.2c-0.2,0.4-0.3,0.8-0.5,1.2
				c-0.2,0.4-0.3,0.7-0.6,1c0,0,0,0,0,0c0,0,0,0,0,0c-0.2,0-0.5,0-1.1-0.2c-0.6-0.1-1.5-0.3-2.8-0.5c0,0,0,0-0.1,0
				c0.1-0.1,0.2-0.5,0.4-1.1c0.2-0.6,0.4-1.4,0.8-2.3c0.3-0.9,0.7-2,1.1-3.2c0.4-1.2,0.9-2.5,1.4-3.9c0.5-1.4,1.1-2.8,1.7-4.3
				c0.6-1.5,1.3-2.9,1.9-4.4c0.1,0,0.3,0,0.4,0c0.2,0,0.3,0.1,0.6,0.1c0.2,0,0.6,0.1,1,0.1c0.4,0,0.9,0.1,1.5,0.1
				c0,0.3,0.1,0.6,0.1,1.2c0,0.5,0.1,1.1,0.1,1.8c0,0.7,0.1,1.4,0.1,2.1c0,0.7,0.1,1.5,0.2,2.1c0.1,0.7,0.1,1.3,0.2,1.9
				C192.3,308.6,192.3,309,192.3,309.4z M189.2,310.8c0.1-1.7,0.1-2.9,0.1-3.9c0-0.9,0-1.6-0.1-1.9c-0.1-0.3-0.2-0.4-0.3-0.3
				c-0.1,0.2-0.3,0.5-0.4,1c-0.2,0.5-0.4,1.2-0.6,2c-0.2,0.8-0.5,1.7-0.8,2.6c0.3,0.1,0.7,0.1,1,0.2
				C188.5,310.7,188.8,310.7,189.2,310.8z"/>
			<path class="st6" d="M207.8,308.2L207.8,308.2c-0.7,0-1.4,0-2.2-0.1c-0.8-0.1-1.5-0.3-2.1-0.6c0.2-0.5,0.2-0.9-0.1-1.3
				c-0.3-0.4-0.6-0.7-1.1-0.8c-0.4-0.2-0.9-0.2-1.3-0.1c-0.5,0.1-0.8,0.4-0.9,1c-0.1,0.1-0.1,0.3-0.1,0.4c0,0.1,0,0.3,0,0.4
				c0.1,0.5,0.3,0.8,0.6,1c0.3,0.2,0.7,0.4,1.1,0.5c1,0.3,1.9,0.7,2.6,1.4c0.8,0.7,1.4,1.4,1.8,2.3c0.3,0.5,0.5,1,0.6,1.5
				c0.1,0.5,0.1,1.1,0.1,1.6c-0.1,0.5-0.2,1.1-0.4,1.6c-0.2,0.5-0.4,1-0.7,1.5c-0.3,0.6-0.7,1-1.1,1.4c-0.4,0.4-0.9,0.6-1.4,0.8
				c-0.5,0.2-1.1,0.3-1.6,0.3c-0.6,0-1.2,0-1.7-0.1c-0.8-0.1-1.6-0.4-2.4-0.8c-0.8-0.4-1.5-0.9-2-1.5c-0.6-0.6-1-1.3-1.3-2
				c-0.3-0.8-0.3-1.6-0.1-2.5l0-0.1l0-0.1c0.7,0,1.4,0.1,2.2,0.3c0.8,0.2,1.5,0.3,2.1,0.4c-0.1,0.6,0.1,1.1,0.5,1.5
				c0.4,0.4,0.8,0.6,1.3,0.7c0.5,0.1,1,0,1.4-0.3c0.4-0.3,0.6-0.7,0.6-1.4c0-0.5-0.1-0.8-0.3-1.2c-0.2-0.3-0.5-0.6-0.9-0.8
				c-0.4-0.2-0.8-0.4-1.2-0.6c-0.4-0.2-0.9-0.3-1.2-0.4c-0.4-0.1-0.7-0.3-1-0.5c-0.3-0.2-0.6-0.5-0.8-0.7c-0.7-1-1.2-2-1.3-3
				c-0.1-1,0-2,0.4-2.9c0.4-0.9,0.9-1.7,1.7-2.4c0.8-0.7,1.6-1.1,2.6-1.4c0.5-0.1,1-0.2,1.6-0.2c0.6,0,1.1,0.1,1.7,0.2
				c0.6,0.1,1.1,0.3,1.6,0.5c0.5,0.2,1,0.5,1.4,0.7c0.8,0.6,1.4,1.4,1.8,2.4C208.3,305.6,208.3,306.8,207.8,308.2z"/>
			<path class="st6" d="M221.5,310.2L221.5,310.2c-0.7,0-1.4,0-2.2-0.1c-0.8-0.1-1.5-0.3-2.1-0.6c0.2-0.5,0.2-0.9-0.1-1.3
				c-0.3-0.4-0.6-0.7-1.1-0.8c-0.4-0.2-0.9-0.2-1.3-0.1c-0.5,0.1-0.8,0.4-0.9,1c-0.1,0.1-0.1,0.3-0.1,0.4c0,0.1,0,0.3,0,0.4
				c0.1,0.5,0.3,0.8,0.6,1c0.3,0.2,0.7,0.4,1.1,0.5c1,0.3,1.9,0.7,2.6,1.4c0.8,0.7,1.4,1.4,1.8,2.3c0.3,0.5,0.5,1,0.5,1.5
				c0.1,0.5,0.1,1.1,0.1,1.6c-0.1,0.5-0.2,1.1-0.4,1.6c-0.2,0.5-0.4,1-0.7,1.5c-0.3,0.6-0.7,1-1.1,1.4c-0.4,0.4-0.9,0.6-1.4,0.8
				c-0.5,0.2-1.1,0.3-1.6,0.3c-0.6,0-1.2,0-1.7-0.1c-0.8-0.1-1.6-0.4-2.4-0.8c-0.8-0.4-1.5-0.9-2-1.5c-0.6-0.6-1-1.3-1.3-2
				c-0.3-0.8-0.3-1.6-0.1-2.5l0-0.1l0-0.1c0.7,0,1.4,0.1,2.2,0.3c0.8,0.2,1.5,0.3,2.1,0.4c-0.1,0.6,0.1,1.1,0.5,1.5
				c0.4,0.4,0.8,0.6,1.4,0.7c0.5,0.1,1,0,1.4-0.3c0.4-0.3,0.6-0.7,0.6-1.4c0-0.5-0.1-0.8-0.3-1.2c-0.2-0.3-0.5-0.6-0.9-0.8
				c-0.4-0.2-0.8-0.4-1.2-0.6c-0.4-0.2-0.9-0.3-1.2-0.4c-0.4-0.1-0.7-0.3-1-0.5c-0.3-0.2-0.6-0.5-0.8-0.7c-0.7-1-1.2-2-1.3-3
				c-0.1-1,0-2,0.4-2.9c0.4-0.9,0.9-1.7,1.7-2.4c0.8-0.7,1.6-1.1,2.6-1.4c0.5-0.1,1-0.2,1.6-0.2c0.6,0,1.1,0.1,1.7,0.2
				c0.6,0.1,1.1,0.3,1.6,0.5c0.5,0.2,1,0.5,1.4,0.7c0.8,0.6,1.4,1.4,1.8,2.4C222.1,307.7,222,308.9,221.5,310.2z"/>
			<path class="st6" d="M235.9,311.9L235.9,311.9c0,0.2,0,0.3-0.1,0.4c0,0.1,0,0.2-0.1,0.3c-0.3,0.9-0.7,1.7-1.3,2.4
				c-0.6,0.7-1.3,1.2-2.1,1.7c-0.8,0.4-1.6,0.7-2.6,0.8c-0.9,0.1-1.8,0-2.7-0.3c0,0.3,0,0.5-0.1,0.8c0,0.3-0.1,0.6-0.2,1.1
				c-0.1,0.5-0.2,1.1-0.3,1.9c-0.1,0.8-0.3,1.9-0.4,3.3l0,0c0,0,0,0,0,0c0,0,0,0,0,0c-0.3,0-0.6,0-1,0c-0.4,0-0.8-0.1-1.3-0.1
				c-0.4-0.1-0.9-0.1-1.3-0.2c-0.4-0.1-0.8-0.2-1.1-0.3c0.2-1.4,0.4-2.9,0.6-4.5c0.2-1.6,0.5-3.3,0.8-5c0.3-1.7,0.5-3.4,0.8-5.1
				c0.3-1.7,0.5-3.4,0.6-4.9c0.8-0.1,1.7-0.1,2.6-0.1c0.9,0,1.8,0.2,2.7,0.4c0.9,0.2,1.8,0.5,2.6,0.9c0.8,0.4,1.5,0.9,2.1,1.5
				c0.6,0.6,1.1,1.3,1.4,2.1C235.9,309.9,236,310.8,235.9,311.9z M231.1,310c-0.4-0.4-0.9-0.8-1.5-1c-0.6-0.2-1.2-0.3-1.9-0.2
				c0,0-0.1,0-0.1,0c0,0.3-0.1,0.7-0.1,1.1c-0.1,0.4-0.1,0.8-0.2,1.1c0,0.4-0.1,0.7-0.1,1.1c0,0.4,0,0.7,0,1l0.1,0
				c0.3,0,0.6,0.1,1,0.1c0.3,0,0.7,0.1,1,0.1c0.3,0,0.7,0,1-0.1c0.3-0.1,0.6-0.2,0.9-0.4c0.2-0.2,0.3-0.4,0.4-0.7
				c0.1-0.3,0.2-0.5,0.1-0.8c0-0.3-0.1-0.5-0.2-0.8C231.5,310.4,231.4,310.2,231.1,310z"/>
			<path class="st6" d="M249.1,311c0.1,0.3,0.1,0.6,0.2,0.9c0,0.3,0,0.6,0,0.9c0,0.5-0.1,0.9-0.1,1.4c-0.1,0.5-0.1,0.9-0.2,1.4
				c-0.2,1-0.4,2-0.5,2.9c-0.1,0.9-0.3,1.9-0.5,2.9l-0.2,0.9c-0.1,0.7-0.3,1.3-0.6,1.9c-0.3,0.6-0.6,1.2-1,1.7
				c-0.4,0.4-0.9,0.7-1.4,0.9c-0.6,0.2-1.1,0.3-1.7,0.4c-0.6,0.1-1.1,0.1-1.6,0c-0.5,0-1.1-0.1-1.6-0.2c-0.4-0.1-0.8-0.2-1.1-0.3
				c-0.4-0.1-0.7-0.3-1-0.5c-0.3-0.2-0.6-0.4-0.8-0.7c-0.2-0.3-0.4-0.6-0.5-1c-0.2-0.5-0.3-1-0.3-1.6c0-0.5,0-1.1,0.1-1.7
				c0.2-1.5,0.3-3,0.5-4.5c0.2-1.5,0.4-3,0.7-4.5c0.1-0.8,0.4-1.7,0.7-2.5c0.3-0.8,0.8-1.5,1.5-2.1c0.2-0.2,0.5-0.3,0.7-0.4
				c0.7-0.2,1.4-0.3,2.1-0.4c0.7,0,1.5,0,2.2,0.2c0.7,0.1,1.4,0.4,2.1,0.7c0.7,0.3,1.2,0.7,1.7,1.2C248.7,309.7,249,310.3,249.1,311
				z M245,317.5l0.2-1.9c0,0,0-0.2,0.1-0.6c0-0.4,0.1-0.7,0.1-1c0-0.5,0-1-0.2-1.5c-0.2-0.5-0.5-0.8-0.9-1.1
				c-0.4-0.2-0.7-0.3-1.1-0.3c-0.4,0-0.8,0.1-1.1,0.3c-0.7,0.4-1.3,1-1.6,1.8c-0.3,0.7-0.5,1.4-0.6,2.2c-0.2,0.8-0.3,1.6-0.3,2.4
				c0,0.7,0,1.4-0.1,2.1c-0.1,0.7-0.1,1.4,0,2c0.1,0.4,0.4,0.7,0.7,1c0.3,0.3,0.7,0.4,1.1,0.5c0.4,0.1,0.8,0.1,1.3,0
				c0.4-0.1,0.8-0.3,1.2-0.5c0.2-0.2,0.4-0.4,0.5-0.5c0.1-0.1,0.2-0.3,0.2-0.4c0-0.2,0.1-0.4,0.1-0.6c0-0.2,0.1-0.6,0.2-0.9
				c0.1-0.4,0.1-0.7,0.2-1c0.1-0.3,0.1-0.4,0.1-0.5L245,317.5z"/>
			<path class="st6" d="M262.5,330.1L262.5,330.1c-0.6-0.1-1.4-0.2-2.2-0.3c-0.8-0.1-1.6-0.2-2.5-0.4l0,0c-0.1-0.5-0.3-1-0.5-1.7
				c-0.2-0.6-0.4-1.3-0.6-2c-0.2-0.7-0.5-1.4-0.8-2.1c-0.3-0.7-0.6-1.3-0.9-1.9l0-0.1c-0.1,0.4-0.2,1-0.3,1.6
				c-0.1,0.6-0.2,1.3-0.3,2c-0.1,0.7-0.1,1.3-0.2,1.9c-0.1,0.6-0.1,1.1-0.1,1.5c-0.3,0.1-0.8,0.1-1.3,0.1c-0.5,0-1-0.1-1.6-0.2
				c-0.5-0.1-1-0.1-1.4-0.2c-0.4-0.1-0.6-0.1-0.7-0.1c0,0,0.1-0.3,0.2-0.8c0.1-0.5,0.2-1.2,0.3-2.1c0.1-0.8,0.3-1.8,0.4-2.9
				c0.2-1.1,0.3-2.2,0.5-3.4c0.2-1.2,0.3-2.4,0.5-3.5c0.1-1.2,0.3-2.2,0.4-3.2c0.1-1,0.2-1.8,0.3-2.5c0.1-0.7,0.1-1.2,0.1-1.4
				c1.1,0,2.3,0,3.5,0.1c1.3,0.1,2.6,0.3,4,0.6c1.1,0.2,2.1,0.7,2.9,1.4c0.8,0.7,1.4,1.6,1.7,2.5c0.4,0.9,0.5,1.9,0.3,3
				c-0.1,1.1-0.6,2-1.3,2.9c-0.5,0.6-1,1.1-1.7,1.5c-0.7,0.4-1.5,0.5-2.4,0.4l-0.1,0l0,0l0,0c0.3,0.8,0.6,1.5,1,2.3
				c0.4,0.8,0.7,1.5,1.1,2.3c0.3,0.8,0.7,1.5,1,2.3C262.1,328.5,262.3,329.3,262.5,330.1z M255.3,312.9c0,0.2,0,0.5-0.1,0.8
				c0,0.3-0.1,0.6-0.1,1c0,0.3-0.1,0.6-0.1,0.9c0,0.3-0.1,0.6,0,0.8l0,0c0.4,0.1,0.9,0.2,1.4,0.3c0.5,0.1,1,0.1,1.5,0.1
				c0.4,0,0.7-0.2,0.9-0.4c0.2-0.3,0.4-0.6,0.5-0.9c0.1-0.3,0.1-0.7,0.1-1.1c-0.1-0.4-0.2-0.7-0.4-0.9c-0.4-0.4-0.9-0.7-1.5-0.8
				C256.7,312.7,256,312.7,255.3,312.9z"/>
			<path class="st6" d="M277.7,312.4c-0.1,0.6-0.1,1.3-0.3,2.2c-0.1,0.8-0.3,1.5-0.5,2.2c-0.3-0.1-0.8-0.2-1.3-0.3
				c-0.5-0.1-1.2-0.1-2.1-0.2l-0.1,0l0,0c0,0,0,0,0,0c0,0,0,0,0,0c0,0.1-0.1,0.2-0.1,0.4c0,0.2-0.1,0.5-0.2,0.9
				c-0.1,0.4-0.1,1-0.2,1.7c-0.1,0.7-0.2,1.6-0.4,2.7c-0.1,1.1-0.3,2.4-0.5,3.9c-0.2,1.5-0.5,3.3-0.7,5.4l0,0l0,0
				c-0.3,0-0.7,0-1.1-0.1c-0.4-0.1-0.8-0.1-1.2-0.2c-0.4-0.1-0.8-0.1-1.2-0.2c-0.4-0.1-0.8-0.1-1.1-0.1c0-0.1,0-0.4,0.2-1
				c0.1-0.6,0.3-1.5,0.4-2.7c0.2-1.2,0.4-2.7,0.7-4.6c0.3-1.9,0.5-4.1,0.8-6.8l0,0c-0.2-0.1-0.5-0.3-0.8-0.3c-0.3-0.1-0.7-0.1-1-0.2
				c-0.3-0.1-0.6-0.1-0.9-0.2c-0.3,0-0.5-0.1-0.6-0.1c0-0.1,0-0.3,0-0.6c0-0.3,0.1-0.7,0.1-1.1c0.1-0.4,0.1-0.9,0.2-1.4
				c0.1-0.5,0.2-1,0.3-1.4c0,0,0,0,0,0c0,0,0,0,0,0c1.9,0.3,3.9,0.6,6,0.9C273.8,311.5,275.8,311.9,277.7,312.4z"/>
		</g>
		<g>
			<g>
				<path class="st1" d="M280.6,216.6c-3.6,23.8-25.8,40.1-49.6,36.5c-23.8-3.6-40.1-25.8-36.5-49.6c3.6-23.8,25.8-40.1,49.6-36.5
					C267.9,170.6,284.2,192.8,280.6,216.6z"/>
				<path class="st6" d="M237.6,255c-2.3,0-4.6-0.2-6.8-0.5c-11.9-1.8-22.3-8.1-29.5-17.8c-7.1-9.7-10.1-21.5-8.3-33.4
					c3.7-24.5,26.7-41.4,51.2-37.7c11.9,1.8,22.3,8.1,29.5,17.8c7.1,9.7,10.1,21.5,8.3,33.4c-1.8,11.9-8.1,22.3-17.8,29.5
					C256.4,252,247.2,255,237.6,255z M237.5,167.9c-20.5,0-38.5,15-41.6,35.8c-1.7,11.1,1.1,22.3,7.7,31.3
					c6.7,9.1,16.5,15,27.6,16.7c11.1,1.7,22.3-1.1,31.3-7.7c9.1-6.7,15-16.5,16.7-27.6l0,0c1.7-11.1-1.1-22.3-7.7-31.3
					c-6.7-9.1-16.5-15-27.6-16.7C241.7,168.1,239.6,167.9,237.5,167.9z"/>
			</g>
			<g>
				
					<rect x="194.4" y="208.1" transform="matrix(0.1497 -0.9887 0.9887 0.1497 -4.5413 413.6384)" class="st6" width="87.6" height="2.8"/>
			</g>
			<g>
				<path class="st6" d="M229.2,252.9c-12.4-11.7-18.9-29.5-17-46.4c1.9-16.9,12.1-32.8,26.7-41.5l1.4,2.4
					c-13.9,8.3-23.6,23.4-25.4,39.4c-1.8,16.1,4.4,32.9,16.2,44L229.2,252.9z"/>
			</g>
			<g>
				<path class="st6" d="M232.4,253.4l-1.2-2.5c14.5-7.1,25.4-21.4,28.5-37.2c3.1-15.9-1.7-33.2-12.5-45.2l2.1-1.9
					c11.4,12.7,16.4,30.9,13.2,47.6C259.1,230.9,247.6,245.9,232.4,253.4z"/>
			</g>
			<g>
				
					<rect x="234.6" y="167.4" transform="matrix(0.15 -0.9887 0.9887 0.15 -7.3394 412.0555)" class="st6" width="2.8" height="85.7"/>
			</g>
			<g>
				<path class="st6" d="M256.1,196.8c-18.2,0-36.5-4.5-52.4-13.1l1.3-2.5c21.6,11.7,47.9,15.6,72,10.7l0.6,2.8
					C270.5,196.1,263.3,196.8,256.1,196.8z"/>
			</g>
			<g>
				<path class="st6" d="M269.8,239.8c-21.6-11.7-47.9-15.6-72-10.7l-0.6-2.8c24.8-5.1,51.7-1.1,73.9,11L269.8,239.8z"/>
			</g>
		</g>
	</g>
</g>
</svg>
