<svg id="Layer_1" data-name="Layer 1" xmlns="http://www.w3.org/2000/svg" viewBox="0 0 78 78"><defs><style>.cls-1{fill:#fff;}.cls-2{fill:#9bca3e;}.cls-3{fill:#151a6a;}</style></defs><circle class="cls-1" cx="39" cy="39" r="39"/><path class="cls-2" d="M66,45a11.83,11.83,0,0,0-8.85,4,11.78,11.78,0,0,0-8.84-4c-5.42,0-9.68,4.77-9.68,10.86,0,4.36,2.36,12.86,18.15,20.8a.83.83,0,0,0,.75,0c15.79-7.94,18.14-16.44,18.14-20.8C75.66,49.74,71.41,45,66,45Zm4.64,15H66.44v4.2a.84.84,0,1,1-1.68,0v-4.2H60.57a.84.84,0,1,1,0-1.67h4.19v-4.2a.84.84,0,1,1,1.68,0v4.2h4.19a.84.84,0,1,1,0,1.67Z" transform="translate(-10.66 -10.99)"/><path class="cls-3" d="M42,39.21a5.25,5.25,0,0,1-7.22,0,.84.84,0,0,0-1.16,1.21,6.92,6.92,0,0,0,9.55,0A.84.84,0,1,0,42,39.21Z" transform="translate(-10.66 -10.99)"/><path class="cls-3" d="M59.71,32.39a4.2,4.2,0,0,0-3.83-2.48H53.36a4.54,4.54,0,0,0,0,9.07h1.31l1.47,5.87H43.77a9.65,9.65,0,1,0-10.85,0h-.87a8.4,8.4,0,0,0-8.39,8.38v3.52a5.88,5.88,0,0,0,5.88,5.87H49.66a.83.83,0,0,0,.84-.84V54.07h9.23A5.87,5.87,0,0,0,65.6,48.2V45.69a.84.84,0,0,0-.07-.35Zm-18,14.14a4.61,4.61,0,0,1-3.36,1.67A4.59,4.59,0,0,1,35,46.53ZM46.26,36a8,8,0,0,1-7-7A8,8,0,0,1,46.26,36Zm-8.81-7a8,8,0,0,1-7,7A8,8,0,0,1,37.45,29Zm-7,8.7A9.66,9.66,0,0,0,38.34,32a9.67,9.67,0,0,0,7.93,5.68,8,8,0,0,1-15.86,0ZM25.34,56.75v-.16H37.92a.84.84,0,1,0,0-1.68h-.7a2.9,2.9,0,0,1,3.09-2.08A3,3,0,0,1,43,55.91v2.52A2.52,2.52,0,0,1,40.44,61H29.54A4.21,4.21,0,0,1,25.34,56.75ZM49.66,52.4a.83.83,0,0,0-.83.83V61H43.77a4.19,4.19,0,0,0,.86-2.52V55.91a4.74,4.74,0,0,0-4.16-4.75,4.61,4.61,0,0,0-5,3.75h-2.6V50.72a.84.84,0,1,0-1.68,0v4.19H25.34V53.23a6.72,6.72,0,0,1,6.71-6.7h.82c1.47,2.15,3.4,3.35,5.47,3.35s4-1.2,5.47-3.35h10V52.4Zm14.26-4.2a4.2,4.2,0,0,1-4.19,4.2H55.54V46.53h1.67a.81.81,0,0,0,.66-.33.85.85,0,0,0,.16-.72L55.51,35.42a.84.84,0,0,0-1.63.4l.37,1.48h-.89a2.86,2.86,0,1,1,0-5.71h2.52a2.52,2.52,0,0,1,2.3,1.49l5.74,12.79Z" transform="translate(-10.66 -10.99)"/></svg>