<?xml version="1.0" encoding="utf-8"?>
<!-- Generator: Adobe Illustrator 26.0.2, SVG Export Plug-In . SVG Version: 6.00 Build 0)  -->
<svg version="1.1" id="Layer_1" xmlns="http://www.w3.org/2000/svg" xmlns:xlink="http://www.w3.org/1999/xlink" x="0px" y="0px"
	 viewBox="0 0 102 102" style="enable-background:new 0 0 102 102;" xml:space="preserve">
<style type="text/css">
	.st0{fill:#012701;}
	.st1{fill:#F4F5F5;}
	.st2{fill:#644940;}
	.st3{fill:#967157;}
	.st4{fill:#FFFFFF;stroke:#012701;stroke-miterlimit:10;}
	.st5{fill:#AD8669;}
	.st6{fill:#263238;}
	.st7{fill:#FA990E;}
</style>
<desc>Created with Sketch.</desc>
<g id="Page-1">
	<g id="CBD-Network-Landing-Page" transform="translate(-533.000000, -1371.000000)">
		<g id="_x30_12---Female-Psychologist" transform="translate(533.000000, 1371.000000)">
			<path id="Path" class="st0" d="M73,100H5.4C3.5,100,2,98.5,2,96.7V80c0-8.3,6.8-15,15.2-15h35.5C63.9,65,73,74,73,85V100z"/>
			<path id="Path_00000123439738479848985590000000482856692725616271_" class="st1" d="M47,65c0,13.3-13.5,35-13.5,35
				S20,78.3,20,65H47z"/>
			<path id="Path_00000091003079716720226800000000272107057557450146_" class="st2" d="M57,58V25.2C57,11.8,46.5,1,33.5,1
				S10,11.8,10,25.2v29.4c0,1.9,1.5,3.4,3.4,3.5H57z"/>
			<path id="Path_00000077283967796543090360000015232579651114237583_" class="st3" d="M45.8,54L47,64.4L46.2,67
				c-1.3,2-4.5,5-12.2,5c-11.6,0-13-6.9-13-6.9L22.3,54H45.8z"/>
			<circle id="Oval" class="st4" cx="72.5" cy="72.5" r="27.5"/>
			<path id="Path_00000049211153793027225210000009400692537818301056_" class="st5" d="M56.1,34.1c-0.3,0.6-0.6,1.2-0.8,1.7
				c-0.5,1.2-0.7,2.4-0.7,3.6c0,1.1-0.4,2.1-1.2,2.8c-0.8,0.7-1.9,1-2.9,0.9c0,0-6.9,18.8-17,18.8s-17-18.8-17-18.8
				c-1.1,0.1-2.1-0.2-2.9-0.9s-1.2-1.7-1.2-2.8c0-0.4,0-0.8-0.1-1.2c-0.1-0.8-0.3-1.6-0.7-2.4c-0.2-0.5-0.5-1.1-0.8-1.7
				c-1.9-3.9-0.5-6.7,1.7-7.1c0.7-0.1,1.4,0,2.1,0.3l0.1-1.4c0.1-2.2,1.7-4,3.8-4.5c4-1,10.5-3.2,14.9-7.5
				c4.4,4.3,10.9,6.5,14.9,7.5c2.1,0.5,3.7,2.4,3.8,4.5l0.1,1.4c0.6-0.3,1.4-0.4,2.1-0.3C56.6,27.4,58,30.2,56.1,34.1z"/>
			<path id="Shape" class="st0" d="M100.3,71.4c-0.9,0-1.7,0.8-1.7,1.7c0,13.1-10,24.1-23.1,25.3c-13.1,1.2-24.9-7.6-27.4-20.5
				s5.2-25.6,17.8-29.3c12.6-3.7,25.9,2.7,30.8,14.9c0.4,0.9,1.3,1.3,2.2,0.9s1.3-1.3,0.9-2.2c-3.1-7.6-9.2-13.5-16.9-16.3
				s-16.2-2.2-23.5,1.7V25.5C59.5,11.4,48.1,0,34,0S8.5,11.4,8.5,25.5v28.9c0,2.8,2.3,5.1,5.1,5.1h5.7l-0.4,3.4H17
				c-9.4,0-17,7.6-17,17v17c0,2.8,2.3,5.1,5.1,5.1h68c16,0,28.9-12.9,28.9-28.9C102,72.2,101.2,71.4,100.3,71.4z M11.9,30.8
				c0-0.5,0.1-0.9,0.3-1.3c0.2-0.4,0.5-0.7,1-0.8c0.1,0,0.2,0,0.2,0c0.3,0,0.6,0.1,0.8,0.2c0.5,0.3,1.1,0.2,1.6,0
				c0.5-0.3,0.8-0.8,0.9-1.4l0.1-1.4c0.1-1.5,1.2-2.7,2.6-3.1c5.3-1.3,10.3-3.7,14.6-7.1c4.3,3.4,9.3,5.8,14.6,7.1
				c1.4,0.4,2.5,1.6,2.6,3.1l0.1,1.4c0,0.6,0.4,1.1,0.8,1.4c0.5,0.3,1.1,0.3,1.6,0c0.3-0.2,0.7-0.2,1.1-0.2c0.4,0.1,0.8,0.4,1,0.8
				c0.5,1.4,0.3,2.8-0.5,4.1l0,0c-0.3,0.7-0.6,1.4-0.8,1.9c-0.6,1.4-0.8,2.9-0.9,4.4c0,0.5-0.2,1.1-0.5,1.5
				c-0.5,0.5-1.2,0.7-1.9,0.6c-0.7,0-1.4,0.4-1.6,1.1c-1.8,5.1-8.2,18.2-15.6,18.2S20.2,48.1,18.4,43c-0.2-0.7-0.9-1.1-1.6-1.1
				c-0.7,0.1-1.4-0.2-2-0.6c-0.4-0.4-0.5-0.9-0.5-1.5c0-0.5,0-1-0.1-1.5c-0.1-1-0.4-1.9-0.8-2.9c-0.2-0.6-0.5-1.2-0.9-1.9
				C12.2,32.7,11.9,31.8,11.9,30.8L11.9,30.8z M45.2,65.6c-1.1,1.6-4,4.1-11.2,4.1c-9.3,0-11.5-4.2-11.9-5.2l0.8-6.4
				c3,3.6,6.7,6.6,11.1,6.6s8.1-2.9,11.1-6.6l0.7,5.7C45.6,64.3,45.4,65,45.2,65.6z M34,73.1c3.6,0.1,7.1-0.7,10.3-2.3
				c-0.1,0.8-0.1,1.5-0.1,2.3c0,0.3,0,0.7,0.1,1c-2.6,7.9-6,15.6-10.3,22.8c-2.9-5-9.2-16.9-11.2-26.7C26.1,72.3,30,73.3,34,73.1z
				 M48.5,58L48,53.9c1.7-2.8,3.2-5.7,4.4-8.7c1.2-0.1,2.3-0.7,3.2-1.5c0.2-0.2,0.4-0.4,0.5-0.7v6.8C53.1,52,50.5,54.8,48.5,58
				L48.5,58z M34,3.4c5.9,0,11.5,2.3,15.6,6.5s6.5,9.8,6.5,15.6v0.1c-0.2-0.1-0.5-0.2-0.7-0.2c-0.3-0.1-0.5-0.1-0.8-0.1
				c-0.4-2.7-2.4-5-5.1-5.6c-4.3-1.1-10.3-3.3-14.3-7.3c-0.7-0.7-1.7-0.7-2.4,0c-4,4-10,6.2-14.3,7.3c-2.7,0.7-4.7,2.9-5.1,5.6
				c-0.3,0-0.5,0-0.8,0.1c-0.2,0.1-0.5,0.1-0.7,0.2v-0.1C11.9,13.3,21.8,3.4,34,3.4z M13.6,56.1c-0.9,0-1.7-0.8-1.7-1.7V43
				c0.2,0.2,0.3,0.4,0.5,0.6c0.9,0.9,2,1.4,3.2,1.6c1.2,3,2.7,5.9,4.4,8.7l-0.3,2.2H13.6z M3.4,96.9v-17c0-7.5,6.1-13.6,13.6-13.6
				h1.8c0.8,11.2,8.8,26.3,12.3,32.3H5.1C4.2,98.6,3.4,97.8,3.4,96.9z M37,98.6c3.2-5.6,6-11.4,8.4-17.4c2.2,7.5,7.3,13.7,14.1,17.4
				H37z"/>
			<path id="Path_00000062875316046486092110000010744393694195461002_" class="st6" d="M20.7,34c0.9,0,1.7-0.8,1.7-1.8
				s0.7-1.8,1.7-1.8s1.7,0.8,1.7,1.8s0.7,1.8,1.7,1.8c0.9,0,1.7-0.8,1.7-1.8c0-2.9-2.2-5.2-5-5.2s-5,2.4-5,5.2
				C19,33.2,19.7,34,20.7,34z"/>
			<path id="Path_00000160187668018581134760000001273240484178759069_" class="st6" d="M39.7,34c0.9,0,1.7-0.8,1.7-1.8
				c0-1,0.7-1.8,1.7-1.8s1.7,0.8,1.7,1.8c0,1,0.7,1.8,1.7,1.8s1.7-0.8,1.7-1.8c0-2.9-2.2-5.2-5-5.2s-5,2.4-5,5.2
				C38,33.2,38.7,34,39.7,34z"/>
			<path id="Path_00000087386905164714983360000007684315876291913908_" class="st6" d="M31.8,44h3c1.5,0,2.8-0.7,3.5-1.9
				c0.8-1.3,0.9-2.9,0.1-4.2c0-0.1-0.1-0.1-0.1-0.2l-3.7-4.9c-0.6-0.8-1.7-0.9-2.5-0.4c-0.8,0.6-1,1.6-0.4,2.4l3.6,4.8
				c0.1,0.3,0.1,0.6-0.1,0.8c-0.1,0.2-0.3,0.3-0.4,0.3h-3c-1,0-1.8,0.8-1.8,1.7C30,43.2,30.8,44,31.8,44L31.8,44z"/>
			<path id="Path_00000008869047196144917990000007046564398905603257_" class="st7" d="M82.6,67.9v-8.5h1.7c0.9,0,1.7-0.8,1.7-1.7
				S85.2,56,84.3,56h-1.7c-1.9,0-3.4,1.5-3.4,3.4v8.5c0,2.8-2.3,5.1-5.1,5.1V59.4c0.9,0,1.7-0.8,1.7-1.7S75.1,56,74.2,56h-3.4
				c-0.9,0-1.7,0.8-1.7,1.7s0.8,1.7,1.7,1.7V73c-2.8,0-5.1-2.3-5.1-5.1v-8.5c0-1.9-1.5-3.4-3.4-3.4h-1.7c-0.9,0-1.7,0.8-1.7,1.7
				s0.8,1.7,1.7,1.7h1.7v8.5c0,4.7,3.8,8.5,8.4,8.5v10.2c-0.9,0-1.7,0.8-1.7,1.7c0,0.9,0.8,1.7,1.7,1.7h3.4c0.9,0,1.7-0.8,1.7-1.7
				c0-0.9-0.8-1.7-1.7-1.7V76.4C78.8,76.4,82.6,72.6,82.6,67.9z"/>
			<path id="Path_00000009575654264481132740000014324071902144121480_" class="st6" d="M28.3,47.7c-0.5,0.7-0.4,1.8,0.3,2.3
				c3.5,2.7,8.3,2.7,11.7,0c0.5-0.4,0.7-1,0.6-1.5c-0.1-0.6-0.5-1.1-1-1.3c-0.5-0.2-1.2-0.1-1.6,0.3c-2.3,1.7-5.4,1.7-7.7,0
				c-0.3-0.3-0.8-0.4-1.2-0.3C29,47.1,28.6,47.3,28.3,47.7z"/>
		</g>
	</g>
</g>
</svg>
