<?xml version="1.0" encoding="UTF-8"?>
<svg width="102px" height="102px" viewBox="0 0 102 102" version="1.1" xmlns="http://www.w3.org/2000/svg" xmlns:xlink="http://www.w3.org/1999/xlink">
    <!-- Generator: Sketch 64 (93537) - https://sketch.com -->
    <title>001 - Mental Health</title>
    <desc>Created with Sketch.</desc>
    <g id="Page-1" stroke="none" stroke-width="1" fill="none" fill-rule="evenodd">
        <g id="CBD-Network-Landing-Page" transform="translate(-805.000000, -1371.000000)" fill-rule="nonzero">
            <g id="001---Mental-Health" transform="translate(805.000000, 1371.000000)">
                <path d="M73.7335724,70.0078436 L73.7335724,70.0247406 L73.9375415,74.2151938 L75.0933666,98.2258149 C75.1166629,98.6884014 74.9479216,99.1402147 74.6265981,99.4756107 C74.3052747,99.8110066 73.8595424,100 73.3936238,100 L32.5997963,100 C31.6610543,100 30.9000535,99.2434947 30.9000535,98.3102998 L30.9000535,86.4824077 C30.8907108,82.7534818 27.8521737,79.7328997 24.1010823,79.7236122 L14.1915817,79.7236122 C11.5903044,79.7828903 9.32974543,77.9579339 8.85438923,75.41488 C8.58951497,73.6367656 9.28718007,71.8515357 10.6901115,70.7175171 C11.1848008,70.3227371 11.472423,69.726029 11.4719932,69.0954062 C11.4722131,68.3877808 11.1145398,67.7274555 10.5201372,67.3381194 C10.1024068,67.0562649 9.83233421,66.6043958 9.78307389,66.1049096 C9.73381357,65.6054234 9.91046391,65.1100167 10.2651758,64.7528801 C10.6769523,64.3387551 10.8452185,63.7430423 10.7104808,63.1763668 C10.5757432,62.6096913 10.1569889,62.1519089 9.60227607,61.964877 L8.61642524,61.6438342 C7.80213867,61.3726829 7.32530179,60.5340335 7.51159241,59.7006805 C8.1357962,57.3802781 7.99277588,54.921832 7.10365414,52.6884301 L3.70416851,52.6884301 C3.06336673,52.6900859 2.47608995,52.3333425 2.18521252,51.7657348 C1.89433509,51.1981272 1.94930034,50.5161372 2.32737684,50.0018089 L2.83729968,49.3090324 L12.8487848,35.5379865 C13.0908333,35.2030837 13.2215722,34.8013694 13.2227283,34.3889913 C13.223334,33.8308238 12.9891472,33.2978277 12.576826,32.9189533 C11.0520573,31.5500775 10.5026126,29.4052512 11.1830369,27.4781229 C17.2129338,11.1398152 33.4341383,0.778448189 50.889029,2.11574276 C52.7193618,2.25560245 54.5371471,2.52665903 56.328206,2.92679822 L86.821592,38.0387409 L86.8895817,38.1063288 C86.9235766,38.4273716 86.940574,38.7653114 86.9575714,39.0863542 C87.510067,50.8564775 82.643185,62.2366385 73.7335724,70.0078436 L73.7335724,70.0078436 Z" id="Path" fill="#F0C49C"></path>
                <path d="M95.462742,28.5912912 L73.7220441,50.491991 C73.401291,50.816742 72.9604535,51 72.5,51 C72.0395465,51 71.598709,50.816742 71.2779559,50.491991 L49.537258,28.5912912 C43.4875807,22.4556423 43.4875807,12.7062781 49.537258,6.57062918 C52.3978411,3.65014243 56.3444114,2 60.4686232,2 C64.5928349,2 68.5394053,3.65014243 71.3999884,6.57062918 L72.5,7.67901208 L73.6000116,6.57062918 C76.4605947,3.65014243 80.4071651,2 84.5313768,2 C88.6555886,2 92.6021589,3.65014243 95.462742,6.57062918 C101.512419,12.7062781 101.512419,22.4556423 95.462742,28.5912912 L95.462742,28.5912912 Z" id="Path" fill="#263238"></path>
                <path d="M84.9996358,6.6814104e-06 C80.5254516,-0.00399567339 76.2372578,1.79029472 73.0996256,4.97988233 C68.6234893,0.424865424 61.9361714,-1.16819129 55.8871108,0.879507167 C54.1831553,0.516389214 52.4574257,0.264260672 50.7208064,0.124711739 C32.5219709,-1.20669267 15.6332358,9.64864297 9.28667085,26.7567504 C8.37906414,29.3418203 9.10306199,32.2190562 11.1260724,34.0667062 C11.1891209,34.1256706 11.2248345,34.2081808 11.2246725,34.2945048 C11.2236575,34.3518727 11.2052836,34.4075867 11.1719725,34.4543038 L0.652363444,48.9977157 C-0.101186105,50.0316106 -0.210557825,51.4009898 0.369332173,52.5413844 C0.949222171,53.681779 2.12019478,54.4001128 3.3995658,54.400283 L5.59256768,54.400283 C5.96598839,56.0423183 5.9526028,57.7486778 5.55346765,59.3846528 C5.17066518,61.077653 6.13801759,62.7841274 7.78726956,63.3252289 L8.7647704,63.6363271 C8.12580146,64.2746048 7.76889209,65.1420783 7.77366955,66.0452125 C7.76784947,67.1720889 8.33029411,68.2260262 9.26967083,68.8484955 C9.39578442,68.9240968 9.47316508,69.0601568 9.47367101,69.2071933 C9.47130337,69.3343001 9.40806969,69.4525463 9.30367086,69.5250914 C7.43991495,71.0460228 6.51387334,73.4353745 6.86586877,75.8150533 C7.46518582,79.2096536 10.4454352,81.6634931 13.8919748,81.6001182 L23.7995833,81.6001182 C26.6162379,81.6001182 28.8995877,83.8834522 28.8995877,86.7000874 L28.8995877,98.6000153 C28.8995877,100.477772 30.4218208,102.000007 32.2995906,102.000007 L73.0996256,102.000007 C74.0316046,102.00116 74.9232048,101.619709 75.5659494,100.944831 C76.2086941,100.269954 76.5462282,99.3608239 76.4996285,98.4300163 L75.1770274,70.8493834 C84.128833,62.6629851 88.9619722,50.9099488 88.3588387,38.7943775 C88.3588387,38.711078 88.3452386,38.6243785 88.3401386,38.542779 L97.0288461,29.639933 C97.9957457,28.6525087 98.8415114,27.5533633 99.5482483,26.3657528 C100.027549,25.5578479 99.7611581,24.5143644 98.9532477,24.035067 C98.1453373,23.5557696 97.1018465,23.8221585 96.6225457,24.6300633 C96.05472,25.5857054 95.3750264,26.4702711 94.597844,27.2650474 L73.1081256,49.3003139 L51.6031071,27.2667473 C46.2629826,21.7535993 46.2629826,12.9971152 51.6031071,7.48396716 C54.1129568,4.87455347 57.577352,3.39993179 61.1979154,3.39993179 C64.8184788,3.39993179 68.2828739,4.87455347 70.7927236,7.48396716 L71.8790245,8.59916041 C72.5577717,9.25550375 73.6346795,9.25550375 74.3134266,8.59916041 L75.4014275,7.48226717 C77.9116283,4.87221976 81.3766722,3.39721666 84.9979358,3.39721666 C88.6191993,3.39721666 92.0842432,4.87221976 94.594444,7.48226717 C97.1792831,10.1255136 98.618314,13.6809214 98.5996474,17.3779072 C98.5996474,18.3167856 99.360764,19.0778969 100.299649,19.0778969 C101.238534,19.0778969 101.999827,18.3167856 101.999827,17.3779072 C102.02025,12.7956489 100.235017,8.38970067 97.0305461,5.11418152 C93.8835975,1.84293262 89.538852,-0.00374029485 84.9996358,6.6814104e-06 Z M49.1704051,29.6433329 L70.6737235,51.6802995 C71.3109355,52.335206 72.1858709,52.7046536 73.0996256,52.7046536 C74.0133802,52.7046536 74.8883157,52.335206 75.5255277,51.6802995 L84.9707358,41.9903582 C84.6660516,52.312261 80.082335,62.0425071 72.3176249,68.8501955 C72.3023249,68.8637954 72.2972249,68.8858953 72.2819249,68.9011952 C70.3762856,70.5835893 68.3020562,72.0647646 66.0922196,73.3211684 C65.2763286,73.7859132 64.991671,74.824069 65.456419,75.6399543 C65.921167,76.4558397 66.95933,76.7404953 67.775221,76.2757505 C69.2080371,75.4513298 70.5887794,74.5395466 71.9096246,73.545567 L73.0996256,98.6000153 L32.2995906,98.6000153 L32.2995906,86.7000874 C32.29334,84.8548008 31.6804614,83.0627705 30.5553891,81.6001182 L42.6695995,81.6001182 C46.2745262,81.5898758 49.7300389,80.1586914 52.2865077,77.6170424 L53.9015091,76.0020522 C54.4860525,75.3294155 54.4519666,74.3195518 53.8233984,73.6878607 C53.1948301,73.0561696 52.185141,73.0170727 51.5096071,73.5982667 L49.8946057,75.2132569 C47.973841,77.1218682 45.3773957,78.1952618 42.6695995,78.2001388 L13.8919748,78.2001388 C12.1333377,78.2666983 10.5856919,77.0487455 10.2369717,75.3237563 C10.0604907,74.1285664 10.5237906,72.9283828 11.4575727,72.1617754 C12.4015287,71.4025423 12.9257973,70.2379096 12.8683205,69.0278798 C12.8108436,67.8178501 12.1785437,66.708154 11.1668725,66.0418125 C11.9961507,65.2078449 12.3355367,64.00453 12.0642348,62.8601563 C11.792933,61.7157826 10.9494763,60.7928857 9.83407132,60.4199465 L8.87017049,60.1309483 C9.30594309,58.2655992 9.36891532,56.3325383 9.05547065,54.4427827 C10.2274477,54.5355302 11.2658863,55.2336191 11.794173,56.2838716 L12.0831732,56.8618681 C12.3549633,57.4060517 12.8964282,57.7639009 13.5036033,57.8006173 C14.1107784,57.8373337 14.6914195,57.5473392 15.0268046,57.0398719 C15.3621897,56.5324046 15.4013659,55.884561 15.1295759,55.3403773 L14.8422756,54.7623808 C13.6979906,52.451098 11.338705,50.9918853 8.7596704,51.0003036 L6.79956872,51.0003036 L3.3995658,51.0003036 L13.9395748,36.4330918 C14.3845615,35.8070826 14.6223537,35.0574479 14.6195754,34.2894048 C14.6213257,33.2511776 14.1900492,32.2592486 13.4295744,31.5524214 C12.4158899,30.6403939 12.0451502,29.2109811 12.4877736,27.9212434 C18.3113721,12.2510519 33.7800719,2.30621434 50.4539062,3.51279122 C50.6239063,3.52639114 50.7582064,3.55189098 50.9197066,3.56719089 C50.3033021,4.04144067 49.7194537,4.556564 49.1721051,5.10908155 C42.552774,11.9474974 42.5520217,22.8039999 49.1704051,29.6433329 Z" id="Shape" fill="#263238"></path>
                <path d="M60.6806235,11.2867325 C61.2627085,11.163309 61.734566,10.7395014 61.9184518,10.174954 C62.1023376,9.61040659 61.970315,8.99088751 61.5721157,8.54976361 C61.1739164,8.10863972 60.5700363,7.91292821 59.9879512,8.03635174 C58.0793342,8.44817467 56.3362056,9.4158196 54.9793982,10.8166979 C51.0068673,14.9093794 51.0068673,21.408031 54.9793982,25.5007126 C55.623116,26.1565746 56.677971,26.1677287 57.3354828,25.525626 C57.9929945,24.8835233 58.0041768,23.831315 57.360459,23.1754529 C54.6434099,20.3780837 54.6434099,15.934344 57.360459,13.1369749 C58.2582677,12.2048288 59.4141675,11.5606755 60.6806235,11.2867325 L60.6806235,11.2867325 Z" id="Path" fill="#FFD740"></path>
                <path d="M59.5521425,30.3992409 C60.329089,31.1883957 61.6022649,31.2018167 62.3958603,30.4292176 C63.1894558,29.6566186 63.2029523,28.390567 62.4260058,27.6014122 L61.4513039,26.6021877 C60.6743573,25.8119292 59.4002817,25.7976135 58.6055763,26.5702125 C57.8108709,27.3428116 57.7964746,28.6097579 58.5734212,29.4000164 L59.5521425,30.3992409 Z" id="Path" fill="#FFD740"></path>
            </g>
        </g>
    </g>
</svg>