<?xml version="1.0" encoding="utf-8"?>
<!-- Generator: Adobe Illustrator 26.0.2, SVG Export Plug-In . SVG Version: 6.00 Build 0)  -->
<svg version="1.1" id="Layer_1" xmlns="http://www.w3.org/2000/svg" xmlns:xlink="http://www.w3.org/1999/xlink" x="0px" y="0px"
	 viewBox="0 0 500 500" style="enable-background:new 0 0 500 500;" xml:space="preserve">
<style type="text/css">
	.st0{fill:#FFFFFF;}
	.st1{fill:#7C7F7F;}
	.st2{fill:#53AA4F;}
	.st3{fill:#2B3C50;}
	.st4{fill:#D2EEF4;}
</style>
<g>
	<g>
		<g>
			<path class="st0" d="M281.3,72.2c-4.2,3.3-8.1,7.1-11.8,11.2c0.3,2.6,0.9,5.2,1.9,7.6c1.2,2.8,2.8,5.3,4.9,7.5
				c2.8-3.7,5.8-7.2,9.1-10.3c-0.8-1-1.6-2-2.2-3.2C281.2,81.1,280.8,76.6,281.3,72.2z"/>
			<path class="st0" d="M260.8,100.2c-0.2-1.6-0.3-3.3-0.3-4.9c-3.3,5-6.2,10.4-8.7,16.1c0.7,3.4,2.1,6.7,4.1,9.5
				c1.6,2.2,3.7,4,6,5.4c1.6-4.7,3.4-9.3,5.6-13.5c-1.5-1.2-2.9-2.5-3.9-4.2C262.1,106,261.3,103.1,260.8,100.2z"/>
			<path class="st0" d="M307.5,58.5c-0.9,0.3-1.8,0.5-2.7,0.8c-3,1-5.9,2.2-8.7,3.6c-0.5,3.4-0.6,6.8-0.3,10.2
				c0.2,2.1,0.5,4.2,1.3,6.1c2.2-1.3,4.4-2.5,6.7-3.5c-0.3-2.4-0.1-4.9,0.4-7.3C304.8,64.9,305.9,61.6,307.5,58.5z"/>
			<path class="st0" d="M339.9,58.1c-5.2-1.5-10.7-2.3-16.4-2.1c-1.8,3.3-3.6,6.7-4,10.5c-0.2,1.5-0.1,3.1,0.2,4.6
				c4.4-0.5,8.6-0.3,12.6,0.5c0.6-2.2,1.3-4.4,2.3-6.5C335.9,62.5,337.7,60.1,339.9,58.1z"/>
			<path class="st0" d="M246.5,191.3c-2.3-0.3-4.6-0.7-6.9-1.3c0.1,3.6,0.2,7.1,0.3,10.6c3.7,1.2,7.6,2,11.5,2.3
				c1.1,0.1,2.3,0.1,3.4,0c-0.1-3.7-0.2-7.5-0.3-11.2c0,0,0,0,0,0C251.9,192,249.2,191.7,246.5,191.3z"/>
			<path class="st0" d="M252.4,136.9c-2.6-1.6-5.2-3.7-7.2-6.1c-1.4,5.5-2.5,11-3.3,16.5c3.1,2.4,6.6,4.4,10.3,5.8
				c1.2,0.5,2.5,0.8,3.7,1c0.6-4.9,1.4-9.7,2.4-14.4C256.3,139.1,254.2,138,252.4,136.9z"/>
			<path class="st0" d="M240.3,162c-0.4,5.1-0.6,10.2-0.7,15.3c4.7,1.7,9.8,2.4,14.8,2.2c0-3.9,0.1-7.8,0.4-11.8
				c-3,0.1-6-0.5-8.7-1.8C244,164.9,242.1,163.5,240.3,162z"/>
			<path class="st0" d="M345.5,174.7c3.1-0.4,6.4-0.4,9.3,0.8c0.9-2.6,1.8-5.1,2.7-7.7c-2.2-1.5-4.6-2.7-7.1-3.5
				c-2.2-0.7-4.6-1.2-6.9-1.3c-1.1,2.8-2.1,5.6-3,8.5c-0.5,1.6-0.9,3.2-1.4,4.7C341.2,175.4,343.4,174.9,345.5,174.7z"/>
			<path class="st0" d="M357.8,153.6c1.5,0.7,2.9,1.5,4.3,2.3c1.3-3.3,2.6-6.7,3.8-10.1c-1.6-1.1-3.2-2.1-5-2.9
				c-2.8-1.3-5.9-2-9-2.1c-1.3,3.5-2.7,7.1-4.1,10.7c0.7-0.1,1.4-0.2,2.2-0.1C352.8,151.5,355.3,152.5,357.8,153.6z"/>
			<path class="st0" d="M350.5,214c-5,1.7-9.5,4.6-13,8.5c0.9,3,2,5.9,3.4,8.6c0.2,0.4,0.4,0.7,0.7,1c0.8-1,1.8-2,2.8-2.8
				c2.9-2.3,6.3-3.7,9.7-5C352.4,221.1,351.2,217.7,350.5,214z"/>
			<path class="st0" d="M349.7,199.9c0.2-3.3,0.6-6.8,1.3-10.4c-5.2-0.7-10.5,0-15.3,2c-0.8,5.7-1.1,11.1-0.8,16.2
				c0.4-0.4,0.8-0.8,1.2-1.2C340,203.2,344.7,201,349.7,199.9z"/>
			<path class="st0" d="M361.9,72.8c-2.3-2.8-4.8-5.4-7.9-7.7c-0.9-0.7-1.9-1.4-2.9-2c-3.9,3.2-7,7.3-9.2,11.7
				c1.1,0.6,2.3,1.3,3.3,2.1c1.6,1.2,3,2.5,4.3,4c1.3-2,3-3.8,5-5.1C356.7,74.3,359.3,73.4,361.9,72.8z"/>
			<path class="st0" d="M369.4,97.9c1.1,0,2.1,0.1,3.1,0.3c-0.5-2.9-1.1-5.8-2-8.7c-3-0.8-6.3-1-9.3-0.2c-2,0.5-3.9,1.3-5.6,2.4
				c1.2,3.3,2,6.9,2.5,10.4C361.5,99.7,365.4,98,369.4,97.9z"/>
			<g>
				<path class="st1" d="M296.1,62.9c-5.2,2.5-10.1,5.6-14.8,9.3c-0.5,4.4-0.1,9,1.9,12.9c0.6,1.1,1.3,2.2,2.2,3.2
					c3.7-3.5,7.6-6.5,11.7-9.1c-0.8-1.9-1.1-4-1.3-6.1C295.5,69.7,295.5,66.2,296.1,62.9z"/>
				<path class="st1" d="M269.5,83.4c-3.2,3.7-6.3,7.7-9,11.9c0,1.6,0.1,3.3,0.3,4.9c0.4,2.9,1.3,5.8,2.9,8.3c1,1.6,2.3,3,3.9,4.2
					c2.6-5.1,5.5-9.9,8.7-14.2c-2-2.2-3.7-4.7-4.9-7.5C270.4,88.6,269.8,86,269.5,83.4z"/>
				<path class="st1" d="M323.5,56c-5.3,0.1-10.6,0.9-16,2.5c-1.6,3.1-2.7,6.4-3.3,9.8c-0.4,2.4-0.6,4.9-0.4,7.3
					c1.9-0.8,3.7-1.6,5.7-2.3c3.4-1.1,6.8-1.9,10.2-2.2c-0.3-1.5-0.4-3.1-0.2-4.6C319.9,62.7,321.7,59.3,323.5,56z"/>
				<path class="st1" d="M251.8,111.4c-1.6,3.7-3.1,7.6-4.4,11.6c-0.8,2.6-1.6,5.2-2.2,7.9c2,2.4,4.5,4.4,7.2,6.1
					c1.8,1.2,3.9,2.2,6,2.9c0.9-4.2,1.9-8.3,3.2-12.3c0.1-0.4,0.3-0.8,0.4-1.2c-2.3-1.4-4.4-3.2-6-5.4
					C253.9,118,252.6,114.8,251.8,111.4z"/>
				<path class="st1" d="M239.9,200.6c0.1,2,0.1,4.1,0.2,6.1c0.1,3.4,2.5,6.1,5.7,6.9c0.7,0.2,1.3,0.2,2,0.2
					c4.1-0.2,7.3-3.6,7.1-7.7c0-1.1-0.1-2.2-0.1-3.2c-1.2,0.1-2.3,0.1-3.4,0C247.5,202.6,243.6,201.8,239.9,200.6z"/>
				<path class="st1" d="M239.7,190c2.2,0.6,4.6,1,6.9,1.3c2.6,0.4,5.3,0.7,8,0.4c0,0,0,0,0,0c-0.1-4-0.1-8.1-0.1-12.2
					c-5,0.2-10.1-0.5-14.8-2.2C239.6,181.5,239.6,185.8,239.7,190z"/>
				<path class="st1" d="M241.9,147.3c-0.7,4.9-1.2,9.8-1.6,14.7c1.8,1.5,3.7,2.9,5.8,3.9c2.7,1.3,5.7,1.9,8.7,1.8
					c0.2-4.5,0.6-9,1.2-13.5c-1.3-0.2-2.5-0.6-3.7-1C248.5,151.8,245.1,149.8,241.9,147.3z"/>
				<path class="st1" d="M349.7,199.9c-5,1-9.7,3.3-13.6,6.6c-0.4,0.4-0.8,0.8-1.2,1.2c0.3,5.2,1.1,10.1,2.6,14.8
					c3.6-3.8,8.1-6.8,13-8.5C349.6,209.7,349.4,205,349.7,199.9z"/>
				<path class="st1" d="M351,189.5c0.8-4.3,2-8.7,3.5-13.4c0.1-0.2,0.2-0.4,0.2-0.7c-2.9-1.1-6.1-1.2-9.3-0.8
					c-2.2,0.3-4.4,0.7-6.4,1.5c-1.5,5.3-2.7,10.4-3.4,15.3C340.5,189.5,345.9,188.8,351,189.5z"/>
				<path class="st1" d="M357.5,167.8c1.1-3,2.3-6,3.5-9c0.4-0.9,0.7-1.9,1.1-2.8c-1.4-0.8-2.9-1.6-4.3-2.3c-2.4-1.1-5-2.1-7.7-2.2
					c-0.7,0-1.4,0.1-2.2,0.1c-0.2,0.6-0.5,1.2-0.7,1.8c-1.2,3.2-2.5,6.4-3.7,9.6c2.3,0.2,4.7,0.6,6.9,1.3
					C353,165.1,355.3,166.3,357.5,167.8z"/>
				<path class="st1" d="M339.9,58.1c-2.2,1.9-4,4.3-5.3,6.9c-1,2.1-1.8,4.3-2.3,6.5c3.5,0.7,6.7,1.8,9.6,3.3
					c2.2-4.5,5.4-8.5,9.2-11.7C347.7,61,343.9,59.3,339.9,58.1z"/>
				<path class="st1" d="M341.5,232.1c2.1,2.9,6,3.9,9.3,2.2c3.6-1.9,5.1-6.3,3.2-10c0,0,0,0,0-0.1c-3.4,1.3-6.8,2.8-9.7,5
					C343.3,230.1,342.3,231.1,341.5,232.1z"/>
				<path class="st1" d="M365.9,145.9c1.6-4.5,3.1-9.1,4.4-13.8c-4.2-2.8-9-4.5-14-5.1c-1.2,4.7-2.7,9.3-4.3,13.9
					c3.1,0.1,6.2,0.8,9,2.1C362.7,143.8,364.4,144.8,365.9,145.9z"/>
				<path class="st1" d="M361.2,89.2c3.1-0.7,6.3-0.6,9.3,0.2c-1.8-6-4.7-11.6-8.6-16.6c-2.7,0.6-5.2,1.5-7.5,3
					c-2,1.3-3.7,3.1-5,5.1c2.7,3.1,4.8,6.8,6.2,10.7C357.4,90.5,359.2,89.7,361.2,89.2z"/>
				<path class="st1" d="M370.8,112.9c0.9,0.1,1.7,0.3,2.6,0.5c0.2-5,0-10.1-0.8-15.3c-1-0.2-2.1-0.3-3.1-0.3
					c-4.1,0.1-7.9,1.9-11.3,4.2c0.6,4.3,0.6,8.5,0.3,12.5C362.3,113,366.6,112.4,370.8,112.9z"/>
			</g>
			<path class="st0" d="M370.3,132.1c0.8-3.1,1.5-6.3,2.1-9.5c0.5-2.9,0.8-6,1-9.2c-0.9-0.3-1.7-0.4-2.6-0.5
				c-4.2-0.5-8.4,0.2-12.3,1.7c-0.1,1.9-0.4,3.8-0.7,5.5c-0.4,2.3-0.9,4.6-1.5,6.9C361.3,127.6,366.1,129.3,370.3,132.1z"/>
		</g>
		<path class="st2" d="M159,322.5c22.8,36,60.2,61.5,100.8,74.5c28.4,9.1,59.7,12.4,88,2.9c28.3-9.5,51.2-31.2,67.8-56
			c16.6-24.8,27.5-52.9,38.3-80.7c2.5-6.3,4.9-13.4,2.5-19.7c-2.3-6-8.4-9.6-14.2-12.4c-75.6-37.1-167.5-24-245.1-56.6
			c-8.2-3.4-16.3-7.4-25-9c-39.6-7.1-29.2,35.7-33.3,59.3C133,258.4,140.9,293.8,159,322.5z"/>
		<path class="st0" d="M174.3,272.9c9.9,0.1,19.6-3.1,29.5-3.5c9.6-0.4,19.1,1.9,28.5,4.1c10.3,2.5,20.6,5,30.9,7.4
			c10.7,2.6,21.4,5.1,31.7,8.8c9.8,3.5,19.4,8.1,29.5,10.7c23.1,6.1,47.7,2.3,71.1,6.9c11.7,2.3,23.5,6.8,35.2,10.3
			c1.2-2.3,2.3-4.7,3.4-7c-3.7-0.6-7.4-1.5-11-2.5c-17.8-5.1-34.7-13.7-52.9-17.1c-14.6-2.7-29.7-1.8-44.2-4.9
			c-31.6-6.6-58.2-31-90.4-33.2c-23.7-1.6-48.2,9.1-70.8,1.8c-9.8-3.2-18.5-9.5-27.6-14.2c-0.3,6.2-0.1,12.4,0.4,18.6
			C148.9,266.7,161.1,272.7,174.3,272.9z"/>
		<path class="st0" d="M195.5,201.9c6.7,4,12.2,9.7,18.7,14.2c30.2,21,72.7,12.1,105.5,28.8c4.7,2.4,9.2,5.3,14,7.4
			c9.6,4.1,20.4,4.8,30.9,5.4c29.8,1.7,59.6,3.5,89.5,5.2c1.7-4.5,3.4-9.3,3.4-14c-9.5,0.6-19.3-0.4-28.6-2.2
			c-17.3-3.3-34.1-9-51.6-11c-17.7-2.1-35.9-0.5-53-5.5c-13.2-3.9-25-11.6-38-15.9c-17.5-5.8-36.4-5.3-54.1-10.3
			c-17.2-4.8-32.6-14.6-49.4-20.8c-12.5-4.6-26.8-6.8-39.3-3.6c-1.7,5.2-2.4,11.4-2.8,17.8C159.5,193.3,179.3,192.1,195.5,201.9z"/>
		<path class="st0" d="M317.6,378.7c-23.5-3.1-48.1,0-70.1-8.7c-9.7-3.8-18.4-9.7-27.9-13.8c-12-5.1-25.2-7.1-38.2-6
			c10.1,10,21.4,18.9,33.6,26.3c6.9-1.5,14.1-1.1,20.7,1.3c6.4,2.3,12,6.3,18.3,8.9c19.8,8.1,42.4,0.8,63.7,3.5
			c10.9,1.4,21.4,5.4,32,9c6.3-2.3,12.4-5.1,18.1-8.5C351.1,386.3,334.6,380.9,317.6,378.7z"/>
		<path class="st0" d="M361.9,346.3c-11.2-4.4-21-11.9-32.1-16.5c-28.7-12-62.3-3.5-92.1-12.4c-15.5-4.6-29.4-13.8-44.8-18.8
			c-15.1-4.9-31.4-5.6-46.9-2.2c2.8,7.4,6.2,14.6,10.1,21.5c15.5,2.6,33.6-2.3,49.3,2.2c8.9,2.5,16.8,8,25.5,11.3
			c23.4,8.7,50,0.3,74.4,5.5c16.5,3.6,31.1,13.2,47.1,18.5c14.9,4.9,31.3,6.2,46.6,9.7c3.7-4.1,7.3-8.4,10.6-12.8
			C393.4,352.2,377,352.2,361.9,346.3z"/>
		<g>
			<path class="st1" d="M314,70.4c-1.8,4.5-3.1,9.2-3.3,14.1c0,1.3,0,2.7,0.3,4c4.3-2.3,8.7-4.5,13.2-6.4
				c-0.3-5.7,0.5-11.4,2.3-16.7C322.2,66.8,318.1,68.5,314,70.4z"/>
			<path class="st1" d="M286.5,86.5c-0.4,5.5,0.8,11.1,3.4,16c2.6-2.1,5.2-4,7.9-5.9c-1.1-6.1-0.6-12.6,1.5-18.5
				C294.9,80.7,290.6,83.5,286.5,86.5z"/>
			<path class="st1" d="M350.8,58.9c-2.6,0.4-5.2,0.9-7.9,1.5c-1.6,0.4-3.2,0.8-4.8,1.2c-1.2,2.7-2.1,5.5-2.6,8.4
				c-0.4,2.6-0.5,5.2-0.1,7.8c3.4-1.1,6.9-2.1,10.5-2.9c0.1-0.6,0.2-1.1,0.3-1.6C347.1,68.3,348.7,63.5,350.8,58.9z"/>
			<path class="st1" d="M381.5,59.2c-4.7-1.1-9.7-1.7-15-1.7c-2.2,3.2-3.9,6.8-5.3,10.3c-0.7,1.6-1.3,3.2-1.7,4.8
				c5.1-0.5,9.8-0.5,14,0.1c0.7-1.5,1.5-2.9,2.3-4.3C377.5,65.3,379.5,62.2,381.5,59.2z"/>
			<path class="st1" d="M228.1,162.9l12,10.3c1.6-4.7,3.4-9.3,5.4-13.9c-4.2-3.7-7.6-8.4-9.8-13.6
				C232.9,151.3,230.3,157.1,228.1,162.9z"/>
			<path class="st1" d="M273.7,96.9c-2.8,2.5-5.6,5.1-8.2,7.8c0.1,0.3,0.1,0.6,0.1,0.8c1.1,5,3.1,9.9,6,14.1
				c1.9-2.1,3.8-4.1,5.8-6.1C274.7,108.5,273.4,102.7,273.7,96.9z"/>
			<path class="st1" d="M252.5,119.5c-3,3.9-5.9,7.9-8.6,12c0.6,1.9,1.3,3.7,2.3,5.4c1.8,3.1,4.1,5.8,6.6,8.3
				c1.5-2.6,3.1-5.2,4.8-7.7c-0.4-0.8-0.8-1.6-1.2-2.5C254.3,130.1,253,124.8,252.5,119.5z"/>
			<path class="st1" d="M377.1,179.8c1.2-3.8,2.6-7.5,4.3-11.1c-1.6-1.2-3.3-2.3-5-3.3c-2.5-1.5-5.2-2.9-7.9-4
				c-2.5,5.3-4.6,10.8-6.2,16.4c2.8-0.9,5.8-1,8.7-0.4C373.1,178,375.2,178.8,377.1,179.8z"/>
			<path class="st1" d="M369.4,204.3c1.2-0.3,2.4-0.5,3.6-0.6c0.2-4.2,0.6-8.3,1.3-12.5c-2.6-0.6-5.2-0.8-7.8-0.6
				c-2.6,0.3-5,1-7.4,2c-0.7,5.4-1.1,10.9-1,16.3C361.7,207.1,365.4,205.3,369.4,204.3z"/>
			<path class="st1" d="M387.9,156.9c2.7-4,5.6-7.9,8.8-11.9c0.6-0.7,1.2-1.5,1.7-2.3c-1.2-2.2-2.8-4.3-4.6-6
				c-1.8-1.8-3.9-3.2-6.1-4.5c-0.9,1.2-1.9,2.4-2.8,3.6c-2.4,3.1-4.9,6.4-7.3,9.7c2.9,2.3,5.6,4.7,7.8,7.6
				C386.4,154.4,387.2,155.6,387.9,156.9z"/>
			<path class="st1" d="M376.9,233.8c-1.8-5.9-3-11.9-3.6-18c-2.3,0.2-4.6,0.7-6.7,1.6c-2.8,1.2-5.3,3.1-7.3,5.3
				c0.8,5.2,1.9,10.4,3.5,15.5c0.8,2.6,2.9,4.4,5.3,5c1.3,0.3,2.6,0.3,3.9-0.1C376,241.8,378.1,237.7,376.9,233.8z"/>
			<path class="st1" d="M221.6,185.2c4,3,8.9,5.1,13.7,6.9c0.9-4.9,2-9.7,3.4-14.4c-4.7-2.4-8.9-5.8-12.4-9.8
				C224.4,173.5,222.8,179.3,221.6,185.2z"/>
			<path class="st1" d="M417.1,103.9c0.4-4.3,0.2-8.8-1-13.4c-0.4-1.7-1-3.4-1.7-5.1c-2.4-1.3-5.3-1.9-8-1.7c-3,0.3-5.8,1.2-8.5,2.6
				c1.8,2.4,3.1,5.1,3.8,7.8c0.5,1.9,0.6,3.8,0.6,5.6C407.6,99.8,412.7,101.2,417.1,103.9z"/>
			<path class="st1" d="M404.3,71c-3.2-3-6.9-5.5-11-7.5c-4.2,3.2-7.8,7.1-10.8,11.4c3.2,1.1,6.1,2.6,8.7,4.5c2.3-2.5,5-4.6,7.9-6.3
				C400.7,72.3,402.5,71.5,404.3,71z"/>
			<path class="st1" d="M397.2,127.5c3,1.7,5.6,4.2,7.3,7.1c1.2-1.8,2.4-3.6,3.6-5.4c1.1-1.7,2.1-3.6,3.2-5.7c-2-2.7-4.7-5-7.6-6.5
				c-1.5-0.8-3.1-1.4-4.8-1.9c-1.1,2.3-2.2,4.5-3.4,6.4c-0.8,1.4-1.7,2.7-2.7,4.1C394.3,126,395.8,126.7,397.2,127.5z"/>
			<g>
				<path class="st0" d="M314,70.4c-5.1,2.3-10,4.9-14.8,7.8c-2,5.9-2.5,12.3-1.5,18.5c4.2-3,8.6-5.7,13.2-8.2
					c-0.2-1.3-0.3-2.7-0.3-4C310.9,79.6,312.2,74.9,314,70.4z"/>
				<path class="st0" d="M286.5,86.5c-4.4,3.2-8.7,6.7-12.8,10.4c-0.3,5.8,1,11.6,3.7,16.7c4-3.9,8.2-7.7,12.5-11.1
					C287.3,97.7,286.1,92,286.5,86.5z"/>
				<path class="st0" d="M366.4,57.5c-4.9,0-10.1,0.5-15.6,1.4c-2.1,4.6-3.7,9.4-4.6,14.4c-0.1,0.5-0.2,1.1-0.3,1.6
					c0.1,0,0.2-0.1,0.3-0.1c4.7-1.1,9-1.8,13.1-2.2c0.5-1.6,1.1-3.3,1.7-4.8C362.6,64.3,364.3,60.7,366.4,57.5z"/>
				<path class="st0" d="M338.1,61.7c-4,1.1-7.9,2.3-11.7,3.7c-1.8,5.4-2.6,11.1-2.3,16.7c3.7-1.6,7.5-3,11.4-4.2
					c-0.4-2.6-0.4-5.2,0.1-7.8C336,67.1,337,64.4,338.1,61.7z"/>
				<path class="st0" d="M244,131.5c-3,4.6-5.7,9.4-8.2,14.2c2.2,5.2,5.6,9.9,9.8,13.6c2.2-4.8,4.6-9.5,7.3-14.1
					c-2.5-2.5-4.8-5.2-6.6-8.3C245.3,135.2,244.5,133.4,244,131.5z"/>
				<path class="st0" d="M265.6,105.6c-0.1-0.3-0.1-0.6-0.1-0.8c-4.6,4.7-8.9,9.6-12.9,14.8c0.5,5.4,1.8,10.6,3.9,15.6
					c0.4,0.8,0.8,1.7,1.2,2.5c4.2-6.3,8.8-12.2,13.9-17.8C268.7,115.4,266.7,110.6,265.6,105.6z"/>
				<path class="st0" d="M373.4,215.7c-0.4-4-0.5-8-0.4-12c-1.2,0.1-2.4,0.3-3.6,0.6c-4,0.9-7.6,2.7-11.2,4.7
					c0.1,4.6,0.5,9.1,1.1,13.6c2-2.3,4.5-4.1,7.3-5.3C368.8,216.4,371,215.9,373.4,215.7z"/>
				<path class="st0" d="M376.3,165.4c1.7,1,3.5,2.1,5,3.3c1.8-3.9,3.9-7.7,6.2-11.4c0.1-0.2,0.2-0.3,0.3-0.5
					c-0.7-1.3-1.5-2.5-2.4-3.7c-2.2-2.9-4.9-5.3-7.8-7.6c-0.9,1.2-1.8,2.4-2.6,3.7c-2.5,3.9-4.8,8-6.8,12.2
					C371.2,162.6,373.8,164,376.3,165.4z"/>
				<path class="st0" d="M366.5,190.7c2.6-0.3,5.3,0,7.8,0.6c0.7-3.9,1.6-7.7,2.7-11.5c-1.9-1.1-4-1.9-6.1-2.3
					c-2.9-0.6-5.9-0.5-8.7,0.4c-1.4,4.9-2.4,9.8-3.1,14.8C361.5,191.7,364,191,366.5,190.7z"/>
				<path class="st0" d="M398.5,142.7c2-2.6,4.1-5.3,6-8.2c-1.8-2.9-4.4-5.4-7.3-7.1c-1.4-0.8-2.9-1.4-4.4-2c-1.6,2.3-3.2,4.5-5,6.8
					c2.2,1.2,4.3,2.7,6.1,4.5C395.7,138.4,397.3,140.5,398.5,142.7z"/>
				<path class="st0" d="M406.5,83.7c2.7-0.2,5.5,0.4,8,1.7c-2.2-5.4-5.8-10.2-10.2-14.3c-1.8,0.5-3.6,1.2-5.2,2.1
					c-2.9,1.7-5.6,3.8-7.9,6.3c2.7,2,5,4.3,6.8,6.8C400.7,84.9,403.5,83.9,406.5,83.7z"/>
				<path class="st0" d="M403.6,116.9c3,1.5,5.7,3.8,7.6,6.5c2.8-5.7,5.2-12.4,5.9-19.6c-4.4-2.7-9.5-4.1-14.7-4.1
					c0,5.4-1.5,10.7-3.6,15.3C400.5,115.5,402.1,116.2,403.6,116.9z"/>
				<path class="st0" d="M384.6,60c-1-0.3-2.1-0.5-3.1-0.8c-2,3-3.9,6.1-5.8,9.2c-0.8,1.4-1.6,2.8-2.3,4.3c2.4,0.3,4.8,0.8,7,1.4
					c0.7,0.2,1.4,0.5,2.1,0.7c3-4.3,6.6-8.2,10.8-11.4C390.5,62.1,387.6,60.9,384.6,60z"/>
				<path class="st0" d="M226.4,167.8c3.5,4,7.7,7.4,12.4,9.8c0.4-1.5,0.9-3,1.4-4.4l-12-10.3C227.5,164.6,226.9,166.2,226.4,167.8z
					"/>
				<g>
					<path class="st0" d="M226.5,200.2c2.4,0.9,4.9,1.3,7.5,1.2c0.3-3.1,0.8-6.3,1.4-9.4c-4.8-1.8-9.7-3.8-13.7-6.9
						c-0.8,3.6-1.4,7.2-1.9,10.9C222,197.3,224.1,199.4,226.5,200.2z"/>
					<path class="st1" d="M225.7,208.5c4.1,0.4,7.7-2.5,8.1-6.6c0-0.2,0-0.3,0.1-0.5c-2.5,0-5.1-0.4-7.5-1.2
						c-2.4-0.9-4.5-2.9-6.8-4.1c-0.2,1.4-0.4,2.8-0.6,4.3C218.7,204.4,221.7,208.1,225.7,208.5z"/>
				</g>
			</g>
		</g>
	</g>
	<g>
		<g>
			<path class="st0" d="M213.7,400.2c1,3.1,1.5,6.7,0.2,10c-0.4,1-1,2-1.8,2.6c-1.8,1.2-4.1,0-5.1-1.9c-1-1.8-1.1-4.1-1.6-6.2
				c-0.8-3.4-2.7-6.5-5.3-8.5c-0.8-0.6-1.6-1.1-2.1-2c-0.8-1.5-0.4-3.7,0.9-5.1C205.5,381.8,212.2,395.4,213.7,400.2z"/>
			<path class="st1" d="M210.5,414c-0.3,0-0.6,0-0.9-0.1c-1.3-0.3-2.4-1.3-3.1-2.6c-0.7-1.4-1-3-1.3-4.5c-0.1-0.6-0.2-1.3-0.4-1.9
				c-0.8-3.3-2.6-6.2-5-8.1l-0.4-0.3c-0.7-0.5-1.4-1.1-1.9-1.9c-0.9-1.7-0.5-4.2,0.9-5.8c1.7-1.9,3.6-2.7,5.6-2.3
				c4.9,1,9.1,9.6,10.3,13.5l0,0c1.2,4,1.3,7.5,0.2,10.4c-0.5,1.4-1.2,2.4-2.1,2.9C211.8,413.8,211.2,414,210.5,414z M203,387.7
				c-1.2,0-2.4,0.6-3.5,1.9c-1.1,1.2-1.4,3.1-0.8,4.3c0.3,0.6,0.9,1,1.5,1.5l0.4,0.3c2.7,2.1,4.7,5.3,5.5,8.9c0.2,0.6,0.3,1.3,0.4,2
				c0.3,1.5,0.5,2.9,1.1,4.1c0.5,0.9,1.4,1.7,2.3,1.9c0.7,0.2,1.3,0.1,1.8-0.3c0.6-0.4,1.2-1.2,1.6-2.3c1-2.7,0.9-5.9-0.2-9.6
				c-1.1-3.6-5-11.7-9.3-12.6C203.5,387.7,203.2,387.7,203,387.7z"/>
		</g>
		<g>
			<path class="st0" d="M50.2,325.1c-3,1.3-6.1,3.3-7.7,6.4c-0.5,1-0.9,2.1-0.8,3.1c0.3,2.2,2.7,3.1,4.7,2.6c2-0.5,3.8-1.9,5.8-2.9
				c3.1-1.6,6.7-2.2,9.9-1.5c0.9,0.2,1.9,0.5,2.8,0.3c1.7-0.3,3-2.1,3.3-3.9C69.5,319.3,54.8,323.1,50.2,325.1z"/>
			<path class="st1" d="M45.3,338c-1,0-2-0.3-2.8-0.8c-0.9-0.6-1.4-1.5-1.5-2.5c-0.1-1,0.2-2.2,0.9-3.5c1.5-2.8,4.2-5,8.1-6.7
				c3.8-1.6,13-4,17-1c1.6,1.2,2.2,3.1,1.9,5.7c-0.3,2.2-1.9,4.1-3.8,4.5c-0.9,0.2-1.8,0-2.6-0.2l-0.5-0.1c-3.1-0.6-6.4-0.1-9.4,1.5
				c-0.6,0.3-1.1,0.6-1.7,1c-1.3,0.8-2.7,1.6-4.2,2C46.1,337.9,45.7,338,45.3,338z M61.3,323.3c-3.9,0-8.6,1.4-10.9,2.4h0
				c-3.6,1.5-6.1,3.6-7.4,6.1c-0.6,1-0.8,1.9-0.7,2.7c0.1,0.7,0.4,1.2,1,1.6c0.8,0.5,1.9,0.7,2.9,0.5c1.3-0.3,2.5-1,3.9-1.8
				c0.6-0.3,1.2-0.7,1.8-1c3.3-1.7,6.9-2.3,10.3-1.6l0.5,0.1c0.7,0.2,1.4,0.3,2.1,0.2c1.3-0.3,2.5-1.8,2.8-3.4
				c0.3-2.1-0.2-3.5-1.4-4.5C65,323.7,63.2,323.3,61.3,323.3z"/>
		</g>
		<g>
			
				<rect x="220.5" y="374.6" transform="matrix(0.9087 0.4176 -0.4176 0.9087 178.1111 -58.8294)" class="st0" width="6" height="6.2"/>
			<path class="st1" d="M225.3,382.6l-6.6-3l3.1-6.8l6.6,3L225.3,382.6z M220.4,378.9l4.2,2l2-4.4l-4.2-2L220.4,378.9z"/>
		</g>
		<g>
			<rect x="60.4" y="301" transform="matrix(0.9087 0.4176 -0.4176 0.9087 132.7679 1.2977)" class="st0" width="6" height="6.2"/>
			<path class="st1" d="M65.2,309l-6.6-3l3.1-6.8l6.6,3L65.2,309z M60.3,305.3l4.2,2l2-4.4l-4.2-2L60.3,305.3z"/>
		</g>
		<g>
			<path class="st3" d="M179,333.5l-51.6-23.7c-0.8-0.4-1.1-1.3-0.7-2.2s1.3-1.3,2.1-0.9l51.6,23.7c0.8,0.4,1.1,1.3,0.7,2.2
				C180.7,333.4,179.8,333.8,179,333.5z"/>
		</g>
		<g>
			<path class="st3" d="M160,343.5c-0.2-0.1-0.4-0.3-0.5-0.5c-0.7-1-1.2-2-1.7-3c-0.3-0.5-0.5-1-0.8-1.5c-4.6-8.3-15-11.9-24.1-8.5
				c-0.8,0.3-1.7-0.1-1.9-1c-0.2-0.9,0.3-1.9,1.1-2.2c10.4-4,22.2,0.2,27.5,9.7c0.3,0.5,0.6,1.1,0.9,1.6c0.5,1,1,1.9,1.5,2.7
				c0.5,0.7,0.3,1.8-0.4,2.4C161.2,343.6,160.5,343.7,160,343.5z"/>
		</g>
		<g>
			<path class="st0" d="M156.7,376.7c5.5,10.9,14.3,19.1,24.3,24.4c8.9,4.7,20.4,7,29.3-0.3c4.6-3.8,7.7-9.5,10-15.3
				c4.8-12.4,5.1-24.5-0.9-34.5c-7.5-12.6-22.9-18.4-35.4-22.3c-6.1-1.9-14.8-3.1-20.8,0.6C146.6,339.4,150.1,363.6,156.7,376.7z"/>
			<path class="st1" d="M196.9,406.2c-6.8,0-13-2.7-16.2-4.5c-10.8-5.8-19.3-14.3-24.6-24.7l0,0c-6.6-13.1-10.6-37.7,6.7-48.3
				c7.2-4.4,17.3-1.9,21.4-0.7c13.5,4.2,28.3,10.2,35.7,22.6c5.8,9.7,6.1,21.8,1,35.1c-2.8,7.2-6.1,12.3-10.2,15.6
				C206.4,405,201.5,406.2,196.9,406.2z M173,327.5c-3.2,0-6.6,0.6-9.4,2.3c-15.6,9.6-13.1,33-6.2,46.6l0,0
				c5.1,10.1,13.4,18.5,24,24.2c5.1,2.7,18.2,8.2,28.6-0.3c3.9-3.2,7.1-8.1,9.8-15.1c5-12.9,4.7-24.6-0.9-33.9
				c-7.2-12.1-21.8-17.9-35-22C181.6,328.6,177.4,327.5,173,327.5z"/>
		</g>
		<g>
			<path class="st0" d="M107.7,354.2c-11.9,2.9-23.8,1.6-34.4-2.5c-9.4-3.6-18.6-10.9-18.8-22.5c-0.1-5.9,2.2-12.1,5.1-17.6
				c6.3-11.7,15.3-19.8,26.8-21.8c14.4-2.5,28.9,5.4,40,12.3c5.4,3.4,12,9.2,13.1,16.2C142.6,337.6,122,350.7,107.7,354.2z"/>
			<path class="st1" d="M94.6,356.4c-7.2,0-14.5-1.4-21.5-4.1c-5.7-2.2-18.9-8.9-19.3-23.1c-0.1-5.3,1.6-11.1,5.2-17.9
				c6.7-12.6,16.1-20.2,27.2-22.1c14.3-2.5,28.5,4.9,40.4,12.4c3.6,2.2,12.1,8.4,13.4,16.6c3.2,20-18.1,33-32.3,36.5v0
				C103.5,355.9,99.1,356.4,94.6,356.4z M92,290.1c-1.8,0-3.7,0.1-5.5,0.5c-10.7,1.8-19.8,9.2-26.3,21.4c-3.5,6.6-5.2,12.2-5.1,17.2
				c0.3,13.4,13,19.8,18.4,21.9c11.2,4.4,23,5.2,34,2.5c14.8-3.7,34.2-17,31.3-35.1c-1.3-7.8-9.4-13.6-12.8-15.7
				C115.8,296.4,104,290.1,92,290.1z"/>
		</g>
		<path class="st3" d="M106.5,351.2c-10.6,2.6-21.3,1.4-30.8-2.2c-8.4-3.3-16.7-9.8-16.9-20.2c-0.1-5.3,2-10.8,4.6-15.8
			c5.6-10.5,13.7-17.8,24-19.5c12.9-2.2,26,4.8,35.9,11c4.9,3,10.7,8.2,11.8,14.5C137.8,336.3,119.3,348,106.5,351.2z"/>
		<path class="st3" d="M160,375.8c4.9,9.8,12.8,17.1,21.8,21.9c8,4.2,18.3,6.3,26.3-0.3c4.1-3.4,6.9-8.5,9-13.8
			c4.3-11.1,4.6-21.9-0.8-30.9c-6.8-11.3-20.6-16.6-31.7-20c-5.5-1.7-13.2-2.8-18.7,0.5C151,342.3,154.1,364,160,375.8z"/>
		<path class="st4" d="M199.1,350c1.6,3.5,2.2,7.2,2.4,10.8c0.1,2,0.1,4.1,0.9,6.1c0.7,2,2.3,4.1,4.6,5c2.4,0.9,5,0.3,6.6-1.1
			c1.6-1.4,2.2-3.5,2.3-5.6c0.2-5-2.3-10.3-6.3-14.6c-3.7-4-10.2-9.1-15.8-10.5c-4.1-1.1-0.5,2.1,0.8,3.4
			C196.5,345.4,198,347.7,199.1,350z"/>
		<path class="st4" d="M113.9,310.9c1.6,3.5,2.2,7.2,2.4,10.8c0.1,2,0.1,4.1,0.9,6.1c0.7,2,2.3,4.1,4.6,5c2.4,0.9,5,0.3,6.6-1.1
			c1.6-1.4,2.2-3.5,2.3-5.6c0.2-5-2.3-10.3-6.3-14.6c-3.7-4-10.2-9.1-15.8-10.5c-4.1-1.1-0.5,2.1,0.8,3.4
			C111.3,306.3,112.8,308.6,113.9,310.9z"/>
	</g>
</g>
</svg>
