<?xml version="1.0" encoding="utf-8"?>
<!-- Generator: Adobe Illustrator 26.0.2, SVG Export Plug-In . SVG Version: 6.00 Build 0)  -->
<svg version="1.1" id="Layer_1" xmlns="http://www.w3.org/2000/svg" xmlns:xlink="http://www.w3.org/1999/xlink" x="0px" y="0px"
	 viewBox="0 0 102 102" style="enable-background:new 0 0 102 102;" xml:space="preserve">
<style type="text/css">
	.st0{fill:#F0C49C;}
	.st1{fill:#9BCA3E;}
	.st2{fill:#012701;}
	.st3{fill:#FA990E;}
</style>
<desc>Created with Sketch.</desc>
<g id="Page-1">
	<g id="CBD-Network-Landing-Page" transform="translate(-805.000000, -1371.000000)">
		<g id="_x30_01---Mental-Health" transform="translate(805.000000, 1371.000000)">
			<path id="Path" class="st0" d="M73.7,70L73.7,70l0.2,4.2l1.2,24c0,0.5-0.1,0.9-0.5,1.2c-0.3,0.3-0.8,0.5-1.2,0.5H32.6
				c-0.9,0-1.7-0.8-1.7-1.7V86.5c0-3.7-3-6.7-6.8-6.8h-9.9c-2.6,0.1-4.9-1.8-5.3-4.3c-0.3-1.8,0.4-3.6,1.8-4.7
				c0.5-0.4,0.8-1,0.8-1.6c0-0.7-0.4-1.4-1-1.8c-0.4-0.3-0.7-0.7-0.7-1.2c0-0.5,0.1-1,0.5-1.4c0.4-0.4,0.6-1,0.4-1.6
				c-0.1-0.6-0.6-1-1.1-1.2l-1-0.3c-0.8-0.3-1.3-1.1-1.1-1.9c0.6-2.3,0.5-4.8-0.4-7H3.7c-0.6,0-1.2-0.4-1.5-0.9S1.9,50.5,2.3,50
				l0.5-0.7l10-13.8c0.2-0.3,0.4-0.7,0.4-1.1c0-0.6-0.2-1.1-0.6-1.5c-1.5-1.4-2.1-3.5-1.4-5.4c6-16.3,22.3-26.7,39.7-25.4
				c1.8,0.1,3.6,0.4,5.4,0.8L86.8,38l0.1,0.1c0,0.3,0.1,0.7,0.1,1C87.5,50.9,82.6,62.2,73.7,70L73.7,70z"/>
			<path id="Path_00000063594853198958708700000013387933708634718380_" class="st1" d="M95.5,28.6L73.7,50.5
				C73.4,50.8,73,51,72.5,51s-0.9-0.2-1.2-0.5L49.5,28.6c-6-6.1-6-15.9,0-22C52.4,3.7,56.3,2,60.5,2s8.1,1.7,10.9,4.6l1.1,1.1
				l1.1-1.1C76.5,3.7,80.4,2,84.5,2c4.1,0,8.1,1.7,10.9,4.6C101.5,12.7,101.5,22.5,95.5,28.6L95.5,28.6z"/>
			<path id="Shape" class="st2" d="M85,0c-4.5,0-8.8,1.8-11.9,5c-4.5-4.6-11.2-6.1-17.2-4.1c-1.7-0.4-3.4-0.6-5.2-0.8
				C32.5-1.2,15.6,9.6,9.3,26.8c-0.9,2.6-0.2,5.5,1.8,7.3c0.1,0.1,0.1,0.1,0.1,0.2c0,0.1,0,0.1-0.1,0.2L0.7,49
				c-0.8,1-0.9,2.4-0.3,3.5c0.6,1.1,1.8,1.9,3,1.9h2.2c0.4,1.6,0.4,3.3,0,5c-0.4,1.7,0.6,3.4,2.2,3.9l1,0.3c-0.6,0.6-1,1.5-1,2.4
				c0,1.1,0.6,2.2,1.5,2.8c0.1,0.1,0.2,0.2,0.2,0.4c0,0.1-0.1,0.2-0.2,0.3c-1.9,1.5-2.8,3.9-2.4,6.3c0.6,3.4,3.6,5.8,7,5.8h9.9
				c2.8,0,5.1,2.3,5.1,5.1v11.9c0,1.9,1.5,3.4,3.4,3.4h40.8c0.9,0,1.8-0.4,2.5-1.1c0.6-0.7,1-1.6,0.9-2.5l-1.3-27.6
				c9-8.2,13.8-19.9,13.2-32.1c0-0.1,0-0.2,0-0.3l8.7-8.9c1-1,1.8-2.1,2.5-3.3c0.5-0.8,0.2-1.9-0.6-2.3c-0.8-0.5-1.9-0.2-2.3,0.6
				c-0.6,1-1.2,1.8-2,2.6l-21.5,22l-21.5-22c-5.3-5.5-5.3-14.3,0-19.8c2.5-2.6,6-4.1,9.6-4.1c3.6,0,7.1,1.5,9.6,4.1l1.1,1.1
				c0.7,0.7,1.8,0.7,2.4,0l1.1-1.1c2.5-2.6,6-4.1,9.6-4.1c3.6,0,7.1,1.5,9.6,4.1c2.6,2.6,4,6.2,4,9.9c0,0.9,0.8,1.7,1.7,1.7
				c0.9,0,1.7-0.8,1.7-1.7c0-4.6-1.8-9-5-12.3C93.9,1.8,89.5,0,85,0z M49.2,29.6l21.5,22c0.6,0.7,1.5,1,2.4,1s1.8-0.4,2.4-1L85,42
				C84.7,52.3,80.1,62,72.3,68.9c0,0,0,0,0,0.1c-1.9,1.7-4,3.2-6.2,4.4c-0.8,0.5-1.1,1.5-0.6,2.3c0.5,0.8,1.5,1.1,2.3,0.6
				c1.4-0.8,2.8-1.7,4.1-2.7l1.2,25.1H32.3V86.7c0-1.8-0.6-3.6-1.7-5.1h12.1c3.6,0,7.1-1.4,9.6-4l1.6-1.6c0.6-0.7,0.6-1.7-0.1-2.3
				s-1.6-0.7-2.3-0.1l-1.6,1.6c-1.9,1.9-4.5,3-7.2,3H13.9c-1.8,0.1-3.3-1.2-3.7-2.9c-0.2-1.2,0.3-2.4,1.2-3.2
				c0.9-0.8,1.5-1.9,1.4-3.1s-0.7-2.3-1.7-3c0.8-0.8,1.2-2,0.9-3.2c-0.3-1.1-1.1-2.1-2.2-2.4l-1-0.3c0.4-1.9,0.5-3.8,0.2-5.7
				c1.2,0.1,2.2,0.8,2.7,1.8l0.3,0.6c0.3,0.5,0.8,0.9,1.4,0.9c0.6,0,1.2-0.3,1.5-0.8c0.3-0.5,0.4-1.2,0.1-1.7l-0.3-0.6
				c-1.1-2.3-3.5-3.8-6.1-3.8h-2H3.4l10.5-14.6c0.4-0.6,0.7-1.4,0.7-2.1c0-1-0.4-2-1.2-2.7c-1-0.9-1.4-2.3-0.9-3.6
				c5.8-15.7,21.3-25.6,38-24.4c0.2,0,0.3,0,0.5,0.1c-0.6,0.5-1.2,1-1.7,1.5C42.6,11.9,42.6,22.8,49.2,29.6z"/>
			<path id="Path_00000070110990190691313810000009962269622791715772_" class="st3" d="M60.7,11.3c0.6-0.1,1.1-0.5,1.2-1.1
				C62.1,9.6,62,9,61.6,8.5c-0.4-0.4-1-0.6-1.6-0.5c-1.9,0.4-3.7,1.4-5,2.8c-4,4.1-4,10.6,0,14.7c0.6,0.7,1.7,0.7,2.4,0
				c0.7-0.6,0.7-1.7,0-2.4c-2.7-2.8-2.7-7.2,0-10C58.3,12.2,59.4,11.6,60.7,11.3L60.7,11.3z"/>
			<path id="Path_00000172441484528875084460000007492584783584812957_" class="st3" d="M59.6,30.4c0.8,0.8,2.1,0.8,2.8,0
				c0.8-0.8,0.8-2,0-2.8l-1-1c-0.8-0.8-2.1-0.8-2.8,0c-0.8,0.8-0.8,2,0,2.8L59.6,30.4z"/>
		</g>
	</g>
</g>
</svg>
