<?xml version="1.0" encoding="utf-8"?>
<!-- Generator: Adobe Illustrator 26.0.2, SVG Export Plug-In . SVG Version: 6.00 Build 0)  -->
<svg version="1.1" id="Layer_1" xmlns="http://www.w3.org/2000/svg" xmlns:xlink="http://www.w3.org/1999/xlink" x="0px" y="0px"
	 viewBox="0 0 500 500" style="enable-background:new 0 0 500 500;" xml:space="preserve">
<style type="text/css">
	.st0{fill:#FFFFFF;}
	.st1{fill:#445C72;}
	.st2{fill:#65C5E5;}
	.st3{fill:#7C7F7F;}
	.st4{fill:#FF7356;}
	.st5{fill:#2692CF;}
	.st6{clip-path:url(#SVGID_00000094588315022951857250000016114686565061537168_);}
	.st7{fill:#018FCB;}
	.st8{fill:#B3D97E;}
	.st9{fill:#35495E;}
	.st10{fill:#FAC852;}
	.st11{fill:#3AA33A;}
</style>
<g>
	<g>
		<g>
			<g>
				<path class="st0" d="M226.2,226.5c42.4-8.4,86-11.4,129.3-8.9c-8.9-39.2-13.2-79.3-12.8-119.4c-0.3,4.7-109,6.8-120.7,9.4
					c0.7,17.7,3.6,34.8,3.7,52.5C225.9,182.2,226,204.3,226.2,226.5z"/>
				<path class="st1" d="M226.2,227.7c-0.3,0-0.6-0.1-0.8-0.3c-0.3-0.2-0.5-0.6-0.5-0.9l-0.4-66.5c-0.1-9.8-1-19.7-1.9-29.2
					c-0.7-7.6-1.5-15.4-1.8-23.2c0-0.6,0.4-1.1,1-1.2c4.7-1.1,24.4-2,47.3-3.1c27.4-1.3,68.7-3.3,72.5-5.6c0.2-0.4,0.6-0.7,1.2-0.7
					c0.7,0,1.2,0.5,1.2,1.2c-0.4,40,3.8,80,12.7,119.2c0.1,0.4,0,0.7-0.3,1c-0.3,0.3-0.6,0.4-1,0.4c-43.2-2.5-86.6,0.5-128.9,8.9
					C226.3,227.7,226.3,227.7,226.2,227.7z M223.3,108.5c0.3,7.5,1,14.9,1.7,22.1c0.9,9.6,1.9,19.4,1.9,29.4l0.4,65.1
					c41.5-8.1,84.1-11.1,126.5-8.7c-8.6-38.1-12.7-77.2-12.5-116.2c-6.1,1.9-24.8,3.2-72.3,5.5C248.7,106.6,229.4,107.5,223.3,108.5
					z"/>
			</g>
			<g>
				<path class="st2" d="M266.4,167.4c2.1,0.7,4.2,1.8,6.4,1.8c3.7,0,6.7-2.7,10.4-3c3.6-0.3,7.1,1.8,10.7,1.9
					c4.8,0.2,9-2.9,13.7-3.4c4.4-0.5,8.7,1.4,12.7,3.2c0.7,0.3,1.5,0.7,1.9,1.3c0.9,1.3-0.2,3.2-1.8,3.8c-1.6,0.6-3.4,0.2-4.9-0.3
					c-3.9-1.3-7.9-3.5-11.8-2.3c-3.8,1.1-6,5.1-9.8,5.9c-5.2,1.2-10.1-3.8-15.4-3.4c-2.8,0.2-5.1,1.8-7.6,3
					c-2.4,1.2-5.5,2.1-7.9,0.9c-0.9-0.5-1.7-1.2-2.7-1.5c-3.4-1.2-13.3,4.5-12-3.3C249.4,165.8,261.8,165.9,266.4,167.4z"/>
				<path class="st0" d="M265.6,178.3c-1.1,0-2.2-0.2-3.1-0.7c-0.4-0.2-0.8-0.5-1.2-0.7c-0.5-0.3-0.9-0.6-1.3-0.8
					c-0.8-0.3-2.7,0.1-4.3,0.4c-2.8,0.5-5.7,1.1-7.3-0.4c-1-0.9-1.3-2.3-1-4.3c0.3-1.8,1.5-3.3,3.4-4.4c4.5-2.5,12.3-2.1,15.9-0.9
					l0,0c0.6,0.2,1.1,0.4,1.7,0.6c1.5,0.6,2.9,1.1,4.4,1.1c1.8,0,3.4-0.7,5.1-1.4c1.6-0.7,3.3-1.4,5.2-1.6c2.2-0.2,4.3,0.4,6.3,1
					c1.6,0.5,3.1,0.9,4.6,0.9c2.4,0.1,4.7-0.8,7.2-1.7c2-0.8,4.1-1.5,6.4-1.8c4.8-0.5,9.5,1.6,13.2,3.3c0.7,0.3,1.7,0.8,2.3,1.7
					c0.5,0.8,0.6,1.7,0.3,2.6c-0.4,1.1-1.4,2.1-2.5,2.5c-2,0.7-4.2,0.2-5.6-0.3c-0.8-0.3-1.6-0.6-2.4-0.9c-3.1-1.2-6-2.2-8.7-1.4
					c-1.6,0.5-3,1.6-4.4,2.7c-1.6,1.3-3.3,2.7-5.5,3.2c-3.1,0.7-6-0.5-8.8-1.7c-2.3-1-4.5-1.9-6.8-1.7c-2,0.1-3.8,1.1-5.7,2.1
					c-0.5,0.3-1,0.5-1.4,0.8C269.3,177.8,267.4,178.3,265.6,178.3z M259.2,174.2c0.6,0,1.1,0.1,1.6,0.2c0.7,0.2,1.3,0.6,1.8,1
					c0.3,0.2,0.6,0.4,1,0.6c2.2,1.1,5,0.1,7-0.9c0.5-0.2,0.9-0.5,1.4-0.7c2-1.1,4.1-2.2,6.6-2.4c2.7-0.2,5.3,0.9,7.8,1.9
					c2.6,1.1,5.1,2.1,7.5,1.6c1.7-0.4,3.2-1.6,4.7-2.8c1.5-1.2,3.1-2.5,5.1-3.1c3.5-1,6.8,0.2,10.1,1.5c0.8,0.3,1.6,0.6,2.3,0.8
					c1.2,0.4,2.9,0.8,4.2,0.3c0.6-0.2,1.2-0.8,1.4-1.4c0.1-0.3,0.2-0.7-0.1-1.1c-0.3-0.4-0.8-0.7-1.5-1c-3.5-1.6-7.8-3.6-12.1-3.2
					c-2,0.2-3.9,0.9-5.9,1.6c-2.5,0.9-5.1,1.9-8,1.8c-1.8-0.1-3.4-0.6-5.1-1c-1.9-0.6-3.7-1.1-5.5-0.9c-1.5,0.1-3,0.8-4.5,1.4
					c-1.9,0.8-3.8,1.6-6,1.6c-1.8,0-3.5-0.7-5.1-1.3c-0.5-0.2-1.1-0.4-1.6-0.6l0,0c-3.3-1.1-10.4-1.3-14.2,0.8
					c-1.4,0.8-2.3,1.8-2.5,3.1c-0.2,0.9-0.2,2.2,0.4,2.7c0.9,0.8,3.4,0.3,5.6-0.1C256.7,174.5,258,174.2,259.2,174.2z"/>
			</g>
			<g>
				<path class="st1" d="M236.5,191.6c-0.3,0-0.6-0.1-0.8-0.3c-0.3-0.2-0.4-0.5-0.4-0.9c-0.1-7-0.3-14.4-0.7-22
					c-0.8-18.1-2.4-36.2-4.8-53.9c0-0.3,0.1-0.6,0.3-0.9c0.2-0.2,0.6-0.4,0.9-0.4c36.5-1.4,71.6-4.5,104.4-7.5c0.4,0,0.7,0.1,1,0.3
					c0.3,0.2,0.4,0.6,0.4,0.9c-0.2,4-0.3,8.1-0.4,12.1l0,0c-0.5,22,0.4,44.2,2.8,66c0,0.3-0.1,0.7-0.3,0.9c-0.2,0.2-0.6,0.4-1,0.4
					c-23.5-0.6-47.5,0.1-71.4,2.1c-9.8,0.8-19.4,1.8-28.7,3l-1.2,0.1C236.6,191.6,236.5,191.6,236.5,191.6z M232.5,115.6
					c2.2,17.4,3.8,35.1,4.6,52.8c0.3,7.1,0.6,14.1,0.7,20.7c9.2-1.2,18.8-2.2,28.6-3c23.4-1.9,47.1-2.7,70.2-2.1
					c-2.2-21.4-3.1-43.3-2.6-64.9c0.1-3.6,0.2-7.2,0.3-10.8C302.2,111.2,268,114.2,232.5,115.6z M335.2,119.1L335.2,119.1
					L335.2,119.1z"/>
			</g>
			<g>
				<path class="st3" d="M289.7,162l-0.7,0l0.7-33.5c0-0.2,0.2-0.3,0.4-0.3l0,0c0.2,0,0.3,0.1,0.3,0.3L289.7,162z"/>
				<g>
					<path class="st0" d="M312.1,162.2c-11.4-0.2-22.9-0.4-34.3-0.6c-3.5-0.1-7.1-0.1-10.6-0.2c-1.2,0-2.5,0-3.7-0.1
						c-0.6,0-2-0.2-2.2,0.6c-0.2,0.8,1.4,2.2,1.9,2.8c2.1,2,5,3.9,7.9,4.7c3.6,0.9,7.1,0.8,10.8,0.9c1,0,13.9,0.2,19.2,0.1
						c2.7-0.1,10.6-0.4,11.9-0.5c0.8-0.1,2.3-0.3,2.8-0.9c0.3-0.4,0.3-0.7,0.1-1.2c-0.4-1.1-1-2.2-1.7-3.2
						C314,164.2,312.7,162.2,312.1,162.2z"/>
					<path class="st3" d="M295.1,170.6c-5.8,0-12.5-0.1-13.3-0.1c-0.7,0-1.4,0-2.2-0.1c-3-0.1-5.8-0.1-8.7-0.8
						c-2.7-0.7-5.7-2.5-8-4.8l-0.1-0.1c-1.1-1-2-2.1-1.9-2.9c0.2-0.9,1.4-0.8,2.2-0.8c0.1,0,0.2,0,0.3,0c0.9,0,1.8,0,2.7,0l45.9,0.8
						h0c0.5,0,1.1,0.6,2.2,2.3l0.1,0.2c0.7,1,1.3,2.1,1.8,3.3c0.2,0.5,0.2,0.9-0.2,1.4c-0.6,0.7-2.2,0.9-3.1,1
						c-1.3,0.1-9.3,0.4-11.9,0.5C299.5,170.6,297.4,170.6,295.1,170.6z M262.7,161.6c-0.5,0-1,0.1-1.1,0.4c-0.1,0.6,1.2,1.9,1.7,2.4
						l0.1,0.1c2.2,2.2,5.1,3.9,7.8,4.6c2.8,0.7,5.6,0.8,8.5,0.8c0.7,0,1.4,0,2.2,0c1,0,13.8,0.2,19.2,0.1c2.7-0.1,10.6-0.4,11.9-0.5
						c1.3-0.1,2.3-0.4,2.7-0.8c0.2-0.3,0.3-0.5,0.1-0.9c-0.4-1.1-1-2.2-1.7-3.2l-0.2-0.2c-1.2-1.7-1.6-2-1.7-2.1l-45.9-0.8
						c-0.9,0-1.8,0-2.7,0c-0.1,0-0.2,0-0.3,0C263,161.6,262.8,161.6,262.7,161.6z"/>
				</g>
				<path class="st4" d="M286.9,160c-2.6-0.1-4.8-0.2-6.8-0.3c-3.9-0.1-7.8-0.1-11.7-0.2c-0.5,0-0.9-0.5-0.9-0.9
					c2.2-11.7,9.4-22.5,19.5-29.9c1.6-1.1,1.7,1.7,1.5,2.4c-0.5,1.7-1.9,3.2-2.9,4.7c-4.6,7.3-3.8,17.2,2,23.9
					C287.4,159.9,287.1,160,286.9,160z"/>
				<path class="st4" d="M291.3,133.4c0-0.7,0.9-1.1,1.5-0.7c1.9,1.2,3.5,2.8,4.8,4.5c4.9,6.2,7.1,13.9,8.3,21.5c0.1,0.5-0.4,1-1,1
					l-13.2-0.2c-0.5,0-0.9-0.4-0.9-0.9L291.3,133.4z"/>
				<path class="st0" d="M293,141.8c0.7-1,1.2-2.3,1.5-3.5c0.7,1.1,1.9,2.4,2.1,3.7c-1.1,0-2.7,0.2-3.5-0.2L293,141.8z"/>
				<path class="st0" d="M296,148.9c0.1-0.9,0.1-1.8,0.4-2.6c0.6,0.6,1.3,1.1,2.1,1.5c-1.1,0.2-2,0.8-2.7,1.4L296,148.9z"/>
				<path class="st0" d="M292,148.4c0.2-0.4,0.5-0.9,0.8-1.2c0.4,0.5,0.7,1.3,1.2,1.8c-0.7-0.2-1.7-0.4-2.2-0.7L292,148.4z"/>
				<path class="st0" d="M299.8,152.5c0.7-0.3,1.1-0.9,1.8-1.1c0.1,0.6,0.4,1.3,0.6,1.8c-1,0.1-1.7-0.6-2.5-0.5L299.8,152.5z"/>
				<path class="st0" d="M293.5,155.7c-0.1-0.3-0.1-0.6-0.1-0.9c0.5,0,0.9,0.2,1.3,0.4c-0.4,0.3-1,0.3-1.4,0.5L293.5,155.7z"/>
				<path class="st0" d="M295.9,152.3c0-0.2,0-0.4,0-0.6c0.4,0.1,0.8,0.3,1,0.6c-0.2,0.1-0.5,0.1-0.7,0.1L295.9,152.3z"/>
				<path class="st0" d="M297.8,144.6c0.2-0.5,0.5-0.9,0.6-1.4c0.4,0.5,0.6,1.3,0.7,2C298.7,144.9,298.2,144.8,297.8,144.6
					L297.8,144.6z"/>
				<path class="st0" d="M297.2,158.7c0.3-0.7,0.7-1.5,1.2-2c0.9,0.4,1.6,1.5,2.1,2.3c-0.8-0.1-3,0.1-3.5-0.3L297.2,158.7z"/>
				<path class="st0" d="M302.2,156.8c-0.1-0.3-0.1-0.6-0.1-0.9c0.5,0.2,1,0.4,1.6,0.4c0,0.5-0.9,0.6-1.3,1.1
					c-0.2-0.2-0.3-0.5-0.2-0.8L302.2,156.8z"/>
				<path class="st5" d="M270.8,164.2c0,0.5-0.5,1-1.1,1c-0.6,0-1.1-0.5-1.1-1c0-0.5,0.5-1,1.1-1
					C270.3,163.2,270.8,163.7,270.8,164.2z"/>
				<path class="st5" d="M279.6,164.4c0,0.5-0.5,1-1.1,1c-0.6,0-1.1-0.5-1.1-1c0-0.5,0.5-1,1.1-1
					C279.1,163.4,279.6,163.8,279.6,164.4z"/>
				<path class="st5" d="M288.4,164.5c0,0.5-0.5,1-1.1,1c-0.6,0-1.1-0.5-1.1-1c0-0.5,0.5-1,1.1-1C287.9,163.5,288.4,164,288.4,164.5
					z"/>
				<path class="st5" d="M297.2,164.7c0,0.5-0.5,1-1.1,1c-0.6,0-1.1-0.5-1.1-1c0-0.5,0.5-1,1.1-1
					C296.7,163.7,297.2,164.1,297.2,164.7z"/>
				<path class="st5" d="M306,164.8c0,0.5-0.5,1-1.1,1c-0.6,0-1.1-0.5-1.1-1c0-0.5,0.5-1,1.1-1C305.5,163.8,306,164.3,306,164.8z"/>
				<g>
					<path class="st0" d="M270.8,157.9C270.8,157.9,270.8,157.9,270.8,157.9c-0.3,0-0.4-0.2-0.4-0.4c0.5-4.8,2.2-9.7,5-14.2
						c2.6-4.1,6-8,10.3-11.5c0.2-0.1,0.4-0.1,0.6,0c0.1,0.2,0.1,0.4,0,0.5c-4.2,3.4-7.6,7.2-10.2,11.3c-2.7,4.4-4.4,9.2-4.9,13.9
						C271.2,157.8,271,157.9,270.8,157.9z"/>
				</g>
				<g>
					<defs>
						<path id="SVGID_1_" d="M295,170.5c-5.7,0-12.4-0.1-13.1-0.1c-0.7,0-1.4,0-2.2-0.1c-2.9-0.1-5.7-0.1-8.6-0.8
							c-2.7-0.7-5.6-2.4-7.9-4.7l-0.1-0.1c-0.6-0.6-2-2-1.8-2.8c0.2-0.8,1.3-0.7,2-0.7c0.1,0,0.2,0,0.3,0c0.9,0,1.8,0,2.7,0
							l11.6,0.2L312,162c0.5,0,1.2,0.9,2.1,2.3c0.1,0.1,0.1,0.2,0.1,0.2c0.7,1,1.3,2.1,1.7,3.3c0.2,0.5,0.2,0.9-0.2,1.3
							c-0.6,0.6-2.1,0.9-2.9,0.9c-1.3,0.1-9.2,0.4-11.9,0.5C299.5,170.5,297.3,170.5,295,170.5z M262.8,161.5
							c-0.6,0-1.1,0.1-1.2,0.5c-0.1,0.7,1.2,2,1.7,2.5l0.1,0.1c2.3,2.2,5.2,4,7.8,4.6c2.8,0.7,5.6,0.8,8.5,0.8c0.7,0,1.4,0,2.2,0
							c1,0,13.8,0.2,19.1,0.1c2.7-0.1,10.5-0.4,11.8-0.5c0.7-0.1,2.2-0.2,2.7-0.8c0.3-0.3,0.3-0.6,0.1-1c-0.4-1.1-1-2.2-1.7-3.2
							c0,0-0.1-0.1-0.1-0.2c-1.2-1.8-1.6-2.1-1.8-2.1l-45.7-0.8c-0.9,0-1.8,0-2.7,0c-0.1,0-0.2,0-0.3,0
							C263.1,161.5,263,161.5,262.8,161.5z"/>
					</defs>
					<use xlink:href="#SVGID_1_"  style="overflow:visible;fill:#7C7F7F;"/>
					<clipPath id="SVGID_00000020376805806565273340000018331432411214971786_">
						<use xlink:href="#SVGID_1_"  style="overflow:visible;"/>
					</clipPath>
					<g style="clip-path:url(#SVGID_00000020376805806565273340000018331432411214971786_);">
						<path class="st5" d="M293.1,170.4c-6.1,0-12.6-0.2-18.9-0.8c-20-1.8-23-4.7-23-6.3c0-0.4,0.2-0.7,0.5-0.9
							c0.3-0.2,0.7-0.3,1.1-0.2l7.6,2.3c0,0,0,0,0,0c1.5,0.5,3.1,0.8,4.7,1c4.3,0.5,12.3,1.1,26.3,1c15.7-0.1,28.2-0.7,28.3-0.7
							c0.7,0,1.2,0.4,1.3,0.9l0.2,1c0.1,0.3,0,0.6-0.2,0.9c-0.2,0.2-0.5,0.4-0.8,0.4C319.8,169.3,307.8,170.4,293.1,170.4z
							 M253.5,163.1L253.5,163.1L253.5,163.1z"/>
					</g>
					<g style="clip-path:url(#SVGID_00000020376805806565273340000018331432411214971786_);">
						<path class="st0" d="M290.7,168.2c-16.7,0-25.5-1.2-25.6-1.2c-0.2,0-0.3-0.2-0.3-0.3c0-0.2,0.2-0.3,0.4-0.2
							c0.1,0,8.9,1.2,25.5,1.2c0.1,0,0.2,0,0.2,0c16.5,0,24.8-0.7,24.9-0.7c0.1,0,0.3,0.1,0.3,0.3c0,0.2-0.1,0.3-0.3,0.3
							c-0.1,0-8.4,0.7-25,0.7C290.9,168.2,290.8,168.2,290.7,168.2z"/>
					</g>
				</g>
			</g>
			<g>
				<path class="st2" d="M262.8,171.8c2.6,0.9,5.2,2.2,8,2.3c4.6,0.1,8.4-3.4,12.9-3.8c4.5-0.4,8.8,2.2,13.4,2.4
					c5.9,0.2,11.2-3.7,17.1-4.3c5.5-0.6,10.8,1.8,15.8,4c0.9,0.4,1.9,0.9,2.4,1.7c1.1,1.6-0.2,4-2.2,4.7c-2,0.7-4.2,0.2-6.2-0.4
					c-4.8-1.6-9.8-4.3-14.7-2.9c-4.7,1.4-7.5,6.3-12.2,7.4c-6.5,1.5-12.5-4.7-19.2-4.3c-3.4,0.2-6.4,2.2-9.4,3.8
					c-3,1.5-6.8,2.7-9.9,1.1c-1.1-0.6-2.1-1.5-3.3-1.9c-4.2-1.5-16.6,5.6-15-4.1C241.6,169.8,257.1,169.9,262.8,171.8z"/>
				<path class="st0" d="M261.8,185.2c-1.4,0-2.6-0.3-3.7-0.8c-0.5-0.3-1-0.6-1.5-0.9c-0.6-0.4-1.1-0.8-1.7-1
					c-1.1-0.4-3.3,0-5.5,0.5c-3.4,0.7-6.9,1.3-8.9-0.4c-1.2-1-1.6-2.7-1.2-5.2c0.4-2.2,1.8-4,4.2-5.3c5.4-2.9,15.1-2.6,19.6-1.1l0,0
					c0.7,0.2,1.4,0.5,2.1,0.8c1.9,0.7,3.7,1.4,5.6,1.4c2.1,0.1,4.3-0.9,6.5-1.8c2-0.9,4.1-1.8,6.4-2c2.7-0.3,5.3,0.5,7.8,1.2
					c2,0.6,3.8,1.1,5.8,1.2c3.1,0.1,6-1,9.1-2.1c2.5-0.9,5.1-1.9,7.9-2.2c6-0.6,11.7,2,16.3,4.1c0.9,0.4,2.1,1,2.8,2
					c0.6,0.9,0.7,2,0.3,3.1c-0.5,1.3-1.6,2.5-3,3c-2.4,0.9-5.1,0.2-6.9-0.4c-1-0.3-2-0.7-3-1.1c-3.7-1.4-7.5-2.8-11.1-1.8
					c-2.1,0.6-3.8,2-5.5,3.5c-2,1.6-4.1,3.3-6.8,4c-3.8,0.9-7.4-0.6-10.8-2.1c-2.9-1.2-5.7-2.4-8.6-2.2c-2.5,0.2-4.8,1.4-7.2,2.7
					c-0.6,0.3-1.2,0.6-1.8,1C266.3,184.6,263.9,185.2,261.8,185.2z M253.7,180.6c0.7,0,1.3,0.1,1.9,0.3c0.8,0.3,1.5,0.8,2.2,1.2
					c0.4,0.3,0.8,0.5,1.2,0.8c2.8,1.4,6.4,0.1,8.9-1.1c0.6-0.3,1.2-0.6,1.8-0.9c2.5-1.3,5.1-2.7,8.1-3c3.4-0.2,6.5,1.1,9.6,2.3
					c3.3,1.4,6.4,2.7,9.5,1.9c2.2-0.5,4-2,5.9-3.6c1.9-1.5,3.8-3.1,6.2-3.8c4.2-1.3,8.4,0.3,12.4,1.8c1,0.4,1.9,0.7,2.9,1.1
					c1.5,0.5,3.7,1.1,5.5,0.4c0.8-0.3,1.6-1,1.9-1.8c0.1-0.4,0.2-1-0.1-1.5c-0.4-0.6-1.3-1-2-1.3c-4.4-2-9.8-4.5-15.2-4
					c-2.5,0.3-5,1.2-7.4,2.1c-3.1,1.2-6.4,2.4-9.9,2.2c-2.2-0.1-4.2-0.7-6.3-1.3c-2.4-0.7-4.7-1.3-7-1.1c-1.9,0.2-3.8,1-5.7,1.8
					c-2.3,1-4.7,2-7.3,2c-2.3,0-4.3-0.8-6.3-1.6c-0.7-0.3-1.4-0.5-2-0.7l0,0c-4.1-1.4-13.2-1.7-18,1c-1.9,1-2.9,2.4-3.2,4.1
					c-0.3,1.8-0.1,3,0.6,3.6c1.2,1.1,4.4,0.5,7.2-0.1C250.7,180.9,252.3,180.6,253.7,180.6z"/>
			</g>
		</g>
		<g>
			<g>
				<path class="st0" d="M288.7,222.1c38.1,19,73.4,42.9,104.5,70.7c20.9-35.2,45.9-68.2,74.4-98.4c-3.5,3.4-87.6-60.2-98.3-65.2
					c-11.9,13.9-21.8,28.6-34.2,42.1C319.7,188.2,304.2,205.1,288.7,222.1z"/>
				<path class="st1" d="M393.3,294c-0.3,0-0.6-0.1-0.9-0.3c-31.1-27.8-66.2-51.6-104.3-70.6c-0.3-0.2-0.6-0.5-0.6-0.8
					c-0.1-0.3,0-0.7,0.3-1l46.5-50.8c6.9-7.5,13.1-15.5,19.1-23.3c4.8-6.2,9.7-12.6,15-18.7c0.4-0.4,1-0.6,1.6-0.3
					c4.3,2,20,13.1,38.1,26c21.8,15.5,54.5,38.7,59.1,39.2c0.5-0.2,1-0.1,1.4,0.2c0.5,0.4,0.6,1.2,0.1,1.6
					c-28.5,30.1-53.5,63.1-74.3,98.2c-0.2,0.3-0.5,0.5-0.9,0.6C393.4,294,393.3,294,393.3,294z M290.7,221.7
					c37.3,18.7,71.7,42,102.3,69.2c20.4-34.1,44.7-66.3,72.4-95.8c-6-2.2-21.2-12.4-58.8-39.2c-16.2-11.5-31.5-22.4-36.8-25.3
					c-5,5.9-9.7,12-14.3,17.8c-6,7.8-12.3,15.9-19.2,23.5L290.7,221.7z"/>
			</g>
			<g>
				<path class="st1" d="M398.4,262.6c-0.3,0-0.6-0.1-0.8-0.3c-18.6-13.5-38.6-26.1-59.4-37.6c-8.6-4.7-17.1-9.2-25.5-13.3l-1.1-0.5
					c-0.4-0.2-0.6-0.5-0.7-0.8c-0.1-0.4,0-0.7,0.3-1c5.3-6,10.7-12.5,16.2-19.2c13.1-15.9,25.6-32.3,37.2-48.8
					c0.2-0.3,0.5-0.5,0.9-0.5c0.4-0.1,0.7,0,1,0.2c30.6,19,61.4,35.7,90.3,51.2c0.3,0.2,0.6,0.5,0.6,0.9c0.1,0.4-0.1,0.7-0.3,1
					c-3.2,3.3-6.4,6.7-9.5,10.1c-17.2,18.6-33.3,38.1-48,58c-0.2,0.3-0.5,0.5-0.9,0.5C398.5,262.6,398.4,262.6,398.4,262.6z
					 M314.2,209.5c8.3,4.1,16.8,8.5,25.3,13.2c20.5,11.3,40.2,23.7,58.6,36.9c14.5-19.6,30.5-38.8,47.4-57.1c2.8-3,5.6-6.1,8.5-9
					c-28.2-15.1-58.1-31.4-87.9-49.8c-11.4,16.1-23.7,32.2-36.5,47.8C324.3,197.7,319.2,203.7,314.2,209.5z M446.4,203.2
					L446.4,203.2L446.4,203.2z"/>
			</g>
			<g>
				<g>
					<path class="st7" d="M381.9,238.3c-0.1,0-0.2,0-0.3,0c-0.3-0.1-0.5-0.5-0.4-0.8c8.6-18.4,15.2-30.9,24.3-48.1
						c-4.9-6.8-13.9-10.8-23-10.3c-0.8,1.3-1.6,2.6-2.3,3.9c-0.9,1.5-1.8,3.1-2.7,4.6l-25.2,39.5c-0.2,0.3-0.6,0.4-0.9,0.2
						c-0.3-0.2-0.4-0.6-0.2-0.9l25.2-39.5c0.9-1.5,1.8-3,2.7-4.6c0.8-1.4,1.7-2.8,2.5-4.2c0.1-0.2,0.3-0.3,0.5-0.3
						c10-0.7,19.7,3.6,24.8,11.1c0.1,0.2,0.1,0.4,0,0.6c-9.2,17.4-15.9,30-24.5,48.4C382.5,238.1,382.2,238.3,381.9,238.3z"/>
				</g>
				<g>
					<path class="st7" d="M402.3,185.8c-0.1,0-0.2,0-0.3-0.1c-0.3-0.1-0.5-0.5-0.3-0.8c0.4-0.8,0.8-1.6,1.2-2.4c1-2.1,2-4.1,3.2-6.1
						c-3.1-4.2-8.9-6.5-14.3-5.8c-0.3,0-0.6,0.1-0.7,0.2c-0.1,0.1-0.2,0.3-0.3,0.4l-4,7.5c-0.2,0.3-0.6,0.4-0.9,0.3
						c-0.3-0.2-0.5-0.5-0.3-0.8l3.9-7.5c0.1-0.2,0.3-0.5,0.6-0.8c0.4-0.3,0.9-0.4,1.4-0.5c6-0.8,12.5,1.9,15.8,6.7
						c0.1,0.2,0.1,0.4,0,0.6c-1.2,2.2-2.2,4.2-3.3,6.4c-0.4,0.8-0.8,1.6-1.2,2.4C402.8,185.7,402.5,185.8,402.3,185.8z"/>
				</g>
				<g>
					<path class="st7" d="M400.5,197.2c-0.1,0-0.3,0-0.4-0.1c-6.6-4.7-14.3-7.8-22.5-9.1c-0.4-0.1-0.6-0.4-0.6-0.7
						c0.1-0.3,0.4-0.6,0.8-0.5c8.4,1.3,16.4,4.6,23.1,9.3c0.3,0.2,0.3,0.6,0.1,0.9C400.9,197.1,400.7,197.2,400.5,197.2z"/>
				</g>
				<g>
					<path class="st7" d="M396.1,207.9c-0.2,0-0.3-0.1-0.5-0.2c-6.7-5.6-15.4-9.2-24.5-10c-0.4,0-0.6-0.3-0.6-0.7
						c0-0.3,0.4-0.6,0.7-0.6c9.3,0.8,18.3,4.5,25.3,10.3c0.3,0.2,0.3,0.6,0,0.9C396.4,207.9,396.2,207.9,396.1,207.9z"/>
				</g>
				<g>
					<path class="st7" d="M389.8,222.6c-0.2,0-0.3,0-0.4-0.2c-7.5-6-16.6-10.2-26.4-12c-0.4-0.1-0.6-0.4-0.5-0.7
						c0.1-0.3,0.4-0.5,0.8-0.5c10,1.9,19.3,6.1,27,12.3c0.3,0.2,0.3,0.6,0.1,0.9C390.2,222.5,390,222.6,389.8,222.6z"/>
				</g>
				<g>
					<path class="st7" d="M383.1,233c-0.2,0-0.4-0.1-0.5-0.2c-2.8-3.2-6.8-5.8-11.9-7.8c-4.7-1.9-9.8-3-14.3-4
						c-0.4-0.1-0.6-0.4-0.5-0.8c0.1-0.3,0.5-0.6,0.8-0.5c4.5,1,9.7,2.2,14.5,4.1c5.3,2.1,9.5,4.9,12.4,8.2c0.2,0.3,0.2,0.7-0.1,0.9
						C383.4,233,383.2,233,383.1,233z"/>
				</g>
				<g>
					<path class="st7" d="M383.6,188.5c-0.1,0-0.1,0-0.2,0c-0.4-0.1-0.5-0.5-0.4-0.8l1.4-3.6c0.2-0.5,0.4-1,0.4-1.5
						c0-0.4-0.2-0.8-0.6-0.9c-0.4-0.1-0.9,0.1-1.1,0.2c-1.1,0.7-1.8,1.8-2.5,3c-0.4,0.6-0.8,1.3-1.2,1.9c-0.2,0.3-0.6,0.3-0.9,0.1
						c-0.3-0.2-0.4-0.6-0.2-0.9c0.4-0.5,0.8-1.2,1.1-1.8c0.8-1.3,1.5-2.6,3-3.5c0.8-0.5,1.6-0.6,2.3-0.4c0.8,0.3,1.4,1.1,1.4,2
						c0,0.7-0.2,1.4-0.4,2l-1.4,3.6C384.1,188.3,383.8,188.5,383.6,188.5z"/>
				</g>
				<g>
					<path class="st7" d="M389.6,190.6c-0.1,0-0.1,0-0.2,0c-0.4-0.1-0.5-0.5-0.4-0.8l1.9-5.4c0.2-0.6,0.4-1.4,0-1.8
						c-0.3-0.3-0.9-0.2-1.3,0c-0.5,0.3-0.9,0.8-1.3,1.3c-1.1,1.6-2.1,3.2-2.9,4.9c-0.1,0.3-0.6,0.5-0.9,0.3
						c-0.3-0.1-0.5-0.5-0.3-0.8c0.8-1.8,1.8-3.5,3-5.1c0.5-0.6,1-1.3,1.7-1.7c0.8-0.5,2.1-0.5,2.9,0.2c1,1,0.5,2.5,0.3,3.1l-1.9,5.4
						C390.2,190.4,389.9,190.6,389.6,190.6z"/>
				</g>
				<g>
					<path class="st7" d="M395.8,193c-0.1,0-0.2,0-0.3-0.1c-0.3-0.1-0.5-0.5-0.3-0.8l2-4.2c0.2-0.5,0.5-1,0.5-1.5
						c0-0.4-0.2-0.8-0.5-1c-0.6-0.3-1.5,0.4-2.1,1c-1.2,1.3-2.2,2.8-3,4.4c-0.2,0.3-0.6,0.4-0.9,0.3c-0.3-0.1-0.5-0.5-0.3-0.8
						c0.8-1.7,1.9-3.2,3.2-4.6c1.2-1.4,2.6-1.9,3.8-1.3c0.7,0.4,1.2,1.2,1.2,2.1c0,0.7-0.4,1.4-0.6,1.9l-2,4.2
						C396.3,192.8,396.1,193,395.8,193z"/>
				</g>
				<g>
					<path class="st7" d="M400.6,196.5c-0.1,0-0.2,0-0.3-0.1c-0.3-0.2-0.5-0.5-0.3-0.8l0.2-0.4c0-0.1,0.1-0.2,0.2-0.2l2.1-3.5
						c0.3-0.5,0.6-0.9,0.7-1.4c0.1-0.4-0.1-0.8-0.4-1c-0.6-0.4-1.6,0.3-2.1,0.8c-1.3,1.3-2.4,2.7-3.2,4.3c-0.2,0.3-0.6,0.4-0.9,0.3
						c-0.3-0.2-0.5-0.5-0.3-0.8c0.9-1.7,2.1-3.3,3.5-4.6c1-1,2.5-1.8,3.8-1c0.7,0.4,1.1,1.3,0.9,2.2c-0.1,0.7-0.5,1.3-0.8,1.9
						l-2.5,4.1C401.1,196.3,400.8,196.5,400.6,196.5z"/>
				</g>
				<g>
					<path class="st7" d="M378.6,198.1c-0.2,0-0.3,0-0.4-0.1c-0.2-0.2-0.3-0.4-0.2-0.7l1.5-4c0.3-0.8,0.5-1.7,0.1-2.2
						c-0.4-0.4-1.2-0.4-1.7-0.1c-0.7,0.3-1.2,0.9-1.7,1.6c-1.2,1.6-2.3,3.3-3.2,5c-0.2,0.3-0.6,0.4-0.9,0.3
						c-0.3-0.2-0.5-0.5-0.3-0.8c1-1.7,2.1-3.5,3.3-5.1c0.6-0.8,1.2-1.5,2.2-2c1-0.5,2.5-0.5,3.4,0.4c0.9,1,0.6,2.3,0.1,3.4l-1.2,3.1
						c0.1,0,0.1,0.1,0.1,0.2c0.2,0.3,0.1,0.7-0.3,0.8l-0.5,0.3C378.8,198.1,378.7,198.1,378.6,198.1z"/>
				</g>
				<g>
					<path class="st7" d="M384.9,199.9c-0.1,0-0.1,0-0.2,0c-0.4-0.1-0.6-0.4-0.5-0.8c0.4-1.4,0.9-2.8,1.5-4.1c0.2-0.5,0.4-1,0.3-1.3
						c-0.1-0.3-0.3-0.4-0.5-0.5c-0.5-0.2-1.1-0.2-1.5,0.1c-0.8,0.4-1.3,1.4-1.9,2.4l-1.6,3.2c-0.2,0.3-0.6,0.4-0.9,0.3
						c-0.3-0.1-0.5-0.5-0.3-0.8l1.6-3.2c0.5-1,1.1-2.3,2.4-3c0.8-0.4,1.9-0.5,2.7-0.1c0.7,0.3,1.2,0.8,1.3,1.4
						c0.2,0.8-0.1,1.5-0.4,2.1c-0.6,1.3-1.1,2.6-1.5,4C385.5,199.7,385.2,199.9,384.9,199.9z"/>
				</g>
				<g>
					<path class="st7" d="M390.9,203.3c-0.1,0-0.2,0-0.3-0.1c-0.3-0.2-0.4-0.6-0.3-0.8c0.9-1.5,1.8-3.1,2.5-4.7
						c0.2-0.5,0.4-1,0.4-1.5c0-0.4-0.2-0.8-0.5-1c-0.6-0.3-1.4,0.2-1.7,0.4c-1.9,1.2-3,3.3-4.1,5.1c-0.2,0.3-0.6,0.4-0.9,0.3
						c-0.3-0.2-0.5-0.5-0.3-0.8c1.1-1.9,2.3-4.2,4.5-5.6c1.1-0.7,2.2-0.9,3.1-0.5c0.7,0.4,1.2,1.2,1.2,2.1c0,0.7-0.2,1.3-0.5,2
						c-0.7,1.7-1.6,3.3-2.6,4.9C391.4,203.2,391.2,203.3,390.9,203.3z"/>
				</g>
				<g>
					<path class="st7" d="M396,206.4c-0.1,0-0.2,0-0.3-0.1c-0.3-0.2-0.4-0.6-0.2-0.9l2.4-3.8c0.4-0.6,0.7-1.2,0.8-1.8
						c0.1-0.5-0.1-1.1-0.5-1.3c-0.3-0.2-0.8-0.1-1.3,0.1c-0.5,0.3-0.9,0.7-1.2,1.1c-1.1,1.4-2.1,2.9-3,4.5c-0.2,0.3-0.6,0.4-0.9,0.3
						c-0.3-0.2-0.5-0.5-0.3-0.8c0.9-1.6,1.9-3.2,3.1-4.7c0.4-0.5,0.9-1.1,1.6-1.5c0.8-0.5,1.8-0.5,2.6-0.2c1,0.5,1.4,1.6,1.2,2.5
						c-0.1,0.9-0.6,1.6-1,2.3l-2.4,3.8C396.4,206.3,396.2,206.4,396,206.4z"/>
				</g>
				<g>
					<path class="st7" d="M370.1,211.5c-0.1,0-0.2,0-0.2,0c-0.3-0.1-0.5-0.5-0.4-0.8l1.8-4.5c0.3-0.7,0.6-1.4,0.6-2.1
						c0-0.5-0.3-1.2-0.8-1.4c-0.6-0.2-1.3,0-1.7,0.4c-0.6,0.5-1,1.1-1.3,1.8l-3.1,5.5c-0.2,0.3-0.6,0.4-0.9,0.3
						c-0.3-0.2-0.5-0.5-0.3-0.8l3.1-5.5c0.4-0.7,0.9-1.6,1.6-2.2c0.9-0.8,2.2-1,3.2-0.6c1,0.4,1.6,1.4,1.6,2.5
						c0,0.9-0.3,1.8-0.6,2.5l-1.8,4.5C370.6,211.3,370.4,211.5,370.1,211.5z"/>
				</g>
				<g>
					<path class="st7" d="M376.8,213.7c-0.1,0-0.2,0-0.2,0c-0.3-0.1-0.5-0.5-0.4-0.8l2.1-4.9c0.2-0.6,0.5-1.2,0.5-1.7
						c0-0.6-0.1-1-0.5-1.3c-0.6-0.4-1.5-0.2-2.1,0.2c-0.7,0.5-1.2,1.4-1.6,2.2l-2.6,4.8c-0.2,0.3-0.6,0.4-0.9,0.3
						c-0.3-0.2-0.5-0.5-0.3-0.8l2.6-4.8c0.4-0.8,1-1.9,2-2.6c1-0.7,2.7-1,3.8-0.2c0.7,0.5,1,1.4,1,2.3c-0.1,0.8-0.4,1.5-0.6,2.1
						l-2.1,4.9C377.3,213.6,377.1,213.7,376.8,213.7z"/>
				</g>
				<g>
					<path class="st7" d="M384.3,217.4l-0.7-0.1c-0.2,0-0.4-0.2-0.5-0.4c-0.1-0.2-0.1-0.4,0.1-0.6c1.4-2,2.5-4.3,3-6.6
						c0.3-1.1,0.2-1.8-0.3-2.2c-0.3-0.3-0.9-0.3-1.4-0.2c-0.5,0.1-0.9,0.4-1.5,0.9c-1.8,1.7-2.9,4-3.9,6.2c-0.1,0.3-0.5,0.5-0.9,0.3
						c-0.3-0.1-0.5-0.5-0.4-0.8c1-2.2,2.2-4.7,4.2-6.6c0.4-0.4,1.1-1,2-1.3c1-0.3,2-0.1,2.7,0.4c0.8,0.7,1.1,1.8,0.7,3.4
						c-0.6,2.4-1.6,4.8-3.1,6.8L384.3,217.4z"/>
				</g>
				<g>
					<path class="st7" d="M388.9,220.9c-0.1,0-0.3,0-0.4-0.1c-0.3-0.2-0.4-0.6-0.2-0.9c1.6-2.3,2.9-4.7,3.9-7.2
						c0.2-0.5,0.4-1,0.3-1.4c0-0.3-0.2-0.7-0.5-0.7c-0.2,0-0.5,0.1-0.9,0.3c-2.7,1.5-4.1,4.5-5.3,7.7c-0.1,0.3-0.5,0.5-0.9,0.4
						c-0.3-0.1-0.5-0.5-0.4-0.8c1.4-3.4,2.8-6.6,5.9-8.3c0.5-0.3,1.1-0.6,1.9-0.4c0.9,0.2,1.5,0.9,1.6,1.8c0.1,0.7-0.2,1.4-0.4,2
						c-1,2.6-2.4,5.1-4,7.4C389.3,220.8,389.1,220.9,388.9,220.9z"/>
				</g>
				<g>
					<path class="st7" d="M362.8,222.6c-0.2,0-0.3-0.1-0.4-0.2c-0.2-0.2-0.3-0.5-0.2-0.7l2.4-5.7c0.3-0.6,0.5-1.3,0.3-1.7
						c-0.3-0.6-1.2-0.7-1.9-0.4c-0.8,0.3-1.4,1.1-2,1.8c-1.1,1.5-2.1,3-3.1,4.6c-0.2,0.3-0.6,0.4-0.9,0.2c-0.3-0.2-0.4-0.5-0.3-0.8
						c1-1.6,2-3.2,3.1-4.7c0.7-0.9,1.4-1.8,2.5-2.3c1.3-0.5,3-0.2,3.7,1c0.5,1,0,2-0.2,2.7l-2,4.8c0,0,0.1,0.1,0.1,0.1
						c0.2,0.3,0.1,0.7-0.3,0.8l-0.6,0.3C363,222.6,362.9,222.6,362.8,222.6z"/>
				</g>
				<g>
					<path class="st7" d="M369.9,224.3c-0.1,0-0.2,0-0.3-0.1c-0.3-0.1-0.5-0.5-0.3-0.8l2.4-5c0.2-0.5,0.5-1,0.6-1.6
						c0-0.4,0-0.9-0.4-1.1c-0.5-0.4-1.2-0.2-1.8,0.1c-0.7,0.4-1.1,1.2-1.5,1.8l-3,5c-0.2,0.3-0.6,0.4-0.9,0.2
						c-0.3-0.2-0.4-0.5-0.3-0.8l3-5c0.4-0.7,1-1.7,1.9-2.2c0.9-0.6,2.4-0.8,3.4,0c0.6,0.5,0.9,1.3,0.8,2.2c-0.1,0.7-0.4,1.4-0.7,1.9
						l-2.4,5C370.4,224.2,370.1,224.3,369.9,224.3z"/>
				</g>
				<g>
					<path class="st7" d="M377.2,226.2c-0.2,0-0.3,0-0.5-0.1c-0.2-0.1-0.3-0.2-0.4-0.4c-0.1-0.2-0.1-0.4,0-0.5
						c1.1-1.8,1.9-3.7,2.4-5.7c0.1-0.4,0.4-1.7-0.3-2.1c-0.3-0.1-0.7-0.1-1.1,0.1c-0.4,0.2-0.8,0.6-1.1,1c-1.6,1.8-2.8,3.9-3.6,6.1
						c-0.1,0.3-0.5,0.5-0.9,0.4c-0.4-0.1-0.5-0.5-0.4-0.8c0.9-2.4,2.2-4.6,3.8-6.5c0.4-0.5,0.9-1,1.5-1.3c0.8-0.4,1.7-0.4,2.4-0.1
						c1.1,0.6,1.4,1.8,1,3.4c-0.4,1.8-1.1,3.6-2.1,5.2c0.1,0,0.1,0.1,0.1,0.1c0.2,0.3,0.1,0.7-0.2,0.8
						C377.7,226.2,377.5,226.2,377.2,226.2z"/>
				</g>
				<g>
					<path class="st7" d="M382.8,231.7c-0.1,0-0.2,0-0.3-0.1c-0.3-0.2-0.5-0.5-0.3-0.8l2.7-5c0.3-0.6,0.6-1.2,0.7-1.8
						c0.1-0.6-0.1-1.1-0.5-1.4c-0.5-0.3-1.2-0.2-1.7,0.1c-0.7,0.4-1.1,1-1.6,1.6c-0.9,1.3-1.7,2.7-2.3,4.1c-0.1,0.3-0.5,0.5-0.9,0.3
						c-0.3-0.1-0.5-0.5-0.4-0.8c0.7-1.5,1.5-2.9,2.4-4.3c0.5-0.7,1.1-1.5,2-2c0.9-0.5,2.3-0.7,3.3,0c0.7,0.5,1.1,1.5,1,2.5
						c-0.1,0.8-0.5,1.6-0.9,2.2l-1.9,3.6c0,0.1,0,0.1-0.1,0.2l-0.7,1.2C383.2,231.6,383,231.7,382.8,231.7z"/>
				</g>
				<g>
					<path class="st7" d="M398.6,182c-0.1,0-0.2,0-0.3-0.1c-0.3-0.2-0.4-0.6-0.2-0.9c0.6-0.9,1.1-2,1.5-3c0.3-0.8,0.9-2.8-0.3-3.7
						c-0.5-0.4-1.3-0.5-2.1-0.4c-0.7,0.2-1.4,0.5-2.2,1.2c-1.3,1.1-2.4,2.5-3,4c-0.1,0.3-0.5,0.5-0.9,0.4c-0.3-0.1-0.5-0.5-0.4-0.8
						c0.7-1.7,1.9-3.3,3.4-4.5c0.9-0.8,1.8-1.2,2.7-1.4c1.2-0.3,2.4,0,3.3,0.6c1.3,1,1.5,2.9,0.6,5.1c-0.4,1.1-1,2.2-1.6,3.2
						C399,181.9,398.8,182,398.6,182z"/>
				</g>
				<g>
					<path class="st7" d="M400.9,183.4c-0.2,0-0.4-0.1-0.5-0.2c-0.1-0.1-0.4-0.5-0.1-1.1l3.3-6.3c0.2-0.3,0.6-0.4,0.9-0.3
						s0.5,0.5,0.3,0.8l-3.1,6c0,0.1,0.1,0.1,0.1,0.2c0,0.3-0.2,0.7-0.4,0.8C401.2,183.4,401,183.4,400.9,183.4z"/>
				</g>
				<g>
					<path class="st7" d="M388.6,179.2c-0.1,0-0.2,0-0.2,0c-0.3-0.1-0.5-0.5-0.4-0.8c1.1-2.5,2.4-4.9,3.9-7.2
						c0.2-0.3,0.6-0.4,0.9-0.2c0.3,0.2,0.4,0.6,0.2,0.9c-1.5,2.2-2.8,4.6-3.8,7C389.1,179.1,388.8,179.2,388.6,179.2z"/>
				</g>
			</g>
			<path class="st8" d="M344.8,214.6c3.1,2.4,6.3,4.8,9.9,6.6c2.8,1.3,5.7,2.3,8.5,3.6c3.2,1.6,6.1,3.6,9,5.7
				c8.9,6.4,17.7,12.7,26.6,19.1c1.2,0.9,2.5,2.3,1.7,3.4c-0.8,1.1-2.7,0.7-4,0.1c-6.2-2.7-11.9-6.2-17.6-9.7
				c-8-4.9-15.8-10.2-24.1-14.4c-2.2-1.1-4.5-2.3-6.6-3.6c-2-1.3-3.9-2.7-5.8-4.2c-2.2-1.7-4.4-3.4-6.6-5.1c-1.9-1.4-4.1-1.9-6.2-3
				c-2.4-1.3-4.7-3.3-5-5.9c-0.1-0.7,0-1.4,0.3-1.9c0.6-0.9,1.8-1.2,2.9-1.1c1.1,0.1,2.1,0.6,3,1.1c2.4,1.2,5.1,2.1,7.1,3.7
				C340.3,211,342.5,212.8,344.8,214.6z"/>
		</g>
	</g>
	<g>
		<g>
			<path class="st1" d="M130.5,196.4c1-2.5,1.2-5.3,2.3-7.7c3.6-8.1,15-9.9,24.5-9.6c8.1,0.2,16.2,1.1,24.1,2.7
				c3.3,0.7,6.8,1.5,9.5,3.4c5.2,3.6,6.7,10.1,10.5,15c6.1,7.9,18.3,11.9,20.8,21.3c1,3.7,0.3,7.6-0.5,11.3
				c-4.8,24.2-11.7,46.7-21.6,69.6c-1.7,3.9-4.5,5.8-8.9,6.8c-5,1.2-10.3,0.5-15.4-0.3c-19.1-2.9-38-6.9-56.6-11.9
				c-9.3-2.5-18.5-5.3-27.6-8.4c-4.5-1.5-12.3-2.1-10.8-8.1c2.2-9.1,4.8-18.8,12-25.4c4-3.6,9.2-6,13.3-9.5
				c6.7-5.5,10.5-13.5,13.2-21.4c1.6-4.8,3-9.6,4.6-14.4C125.6,204.9,128.6,200.9,130.5,196.4z"/>
			<g>
				<path class="st7" d="M169.5,256.7c-0.5,0-0.9-0.1-1.3-0.3c-1.7-0.7-2.3-2.6-1.6-5.1c1-3.8,3.2-12,4.1-15.2c0.3-1.2,1.4-2,2.7-2
					c0.3,0,0.6,0.1,0.9,0.2c2.6,0.9,5.4,3.2,6.7,4.9c2.3,3.2,1.5,8.3-0.6,11.2c-2.4,3.4-6.2,5.1-9.1,5.9
					C170.8,256.5,170.2,256.7,169.5,256.7L169.5,256.7z"/>
				<path class="st9" d="M173.4,235.3c0.2,0,0.3,0,0.5,0.1c2.3,0.8,4.9,2.9,6,4.4c1.9,2.7,1.3,7.3-0.6,9.9c-1.9,2.7-5.1,4.5-8.4,5.5
					c-0.5,0.1-0.9,0.3-1.4,0.3c-0.3,0-0.5,0-0.8-0.1c-1.4-0.6-1.2-2.4-0.9-3.8c1-3.8,3.2-12,4.1-15.2
					C172.1,235.7,172.7,235.3,173.4,235.3L173.4,235.3z M173.4,232.9c-1.9,0-3.5,1.2-4,2.9c-0.9,3.2-3,11.4-4.1,15.2
					c-1.2,4.5,1.2,6,2.3,6.5c0.6,0.2,1.2,0.4,1.8,0.4c0.9,0,1.6-0.2,2.2-0.4c3-0.9,7.2-2.8,9.7-6.4c2.3-3.3,3.2-8.9,0.6-12.5
					c-1.3-1.9-4.3-4.4-7.3-5.4C174.3,233,173.9,232.9,173.4,232.9L173.4,232.9z"/>
			</g>
			<path class="st10" d="M195.2,197.4c1.2-0.3,14.1,4.8,21.4,6.4c0.8,0.2,1.3,1,1.1,1.8l-2.2,6.5c-5.9-2.7-22.9-7.3-23.5-9
				C191.8,202.2,194.1,197.7,195.2,197.4z"/>
			<path class="st9" d="M66,180.4c15.8,4.9,27.2,9.8,43,14.7c5.1,1.6,10.2,3.2,15.4,4.7c7.2,2.2,14.5,4.5,20.9,8.3
				c13.5,8.2,21.3,23.6,19.6,38.4c-1.1,9.7-6.8,19.1-14.2,26c-6.2,5.8-19.4,13.4-28.4,10.9c-15.6-4.2-68.2-14.4-79.6-17.6
				c-5.2-1.5-0.7-7.6,0.6-12.9c1.2-4.7,2.3-9.4,3.4-14.1c4.5-19.3,8.5-38.7,13.5-57.9C60.4,180,65.1,180.1,66,180.4z"/>
			<g>
				<path class="st0" d="M125.3,204.5c-0.1,0-0.2,0-0.3,0l-21.2-6.3c-0.5-0.1-0.7-0.6-0.6-1c0.1-0.4,0.6-0.7,1.1-0.5l21.2,6.3
					c0.5,0.1,0.7,0.6,0.6,1C126,204.3,125.7,204.5,125.3,204.5z"/>
			</g>
			<g>
				<path class="st0" d="M127.3,210.5c-0.1,0-0.2,0-0.3,0c-6.4-2.1-13-3.8-19.6-5.1c-0.5-0.1-0.8-0.5-0.7-0.9c0.1-0.4,0.5-0.7,1-0.6
					c6.7,1.3,13.4,3,19.8,5.1c0.4,0.2,0.7,0.6,0.5,1C128,210.3,127.7,210.5,127.3,210.5z"/>
			</g>
			<g>
				<path class="st0" d="M129.5,216.8c-0.1,0-0.2,0-0.3,0c-6.7-1.9-13.5-3.7-20.2-5.2c-0.5-0.1-0.7-0.5-0.6-1c0.1-0.4,0.6-0.7,1-0.6
					c6.8,1.6,13.6,3.3,20.3,5.2c0.5,0.1,0.7,0.6,0.6,1C130.2,216.6,129.9,216.8,129.5,216.8z"/>
			</g>
			<g>
				<path class="st0" d="M130.2,224.4c-0.1,0-0.1,0-0.2,0c-6.8-1.2-13.6-2.8-20.2-4.9c-0.4-0.1-0.7-0.6-0.5-1
					c0.2-0.4,0.6-0.6,1.1-0.5c6.5,2,13.2,3.7,19.9,4.8c0.5,0.1,0.8,0.5,0.7,0.9C131,224.1,130.6,224.4,130.2,224.4z"/>
			</g>
			<g>
				<path class="st0" d="M128.1,230.1c-0.1,0-0.1,0-0.2,0l-18.5-3.9c-0.5-0.1-0.8-0.5-0.7-1c0.1-0.4,0.6-0.7,1-0.6l18.5,3.9
					c0.5,0.1,0.8,0.5,0.7,1C128.9,229.9,128.5,230.1,128.1,230.1z"/>
			</g>
			<g>
				<path class="st0" d="M127.4,238.3c-0.1,0-0.1,0-0.2,0l-18.7-4.2c-0.5-0.1-0.8-0.5-0.6-1c0.1-0.4,0.6-0.7,1-0.6l18.7,4.2
					c0.5,0.1,0.8,0.5,0.6,1C128.1,238,127.8,238.3,127.4,238.3z"/>
			</g>
			<g>
				<path class="st0" d="M125.7,244.7c-0.1,0-0.1,0-0.2,0l-18.7-4.2c-0.5-0.1-0.8-0.5-0.6-1c0.1-0.4,0.6-0.7,1-0.6l18.7,4.2
					c0.5,0.1,0.8,0.5,0.6,1C126.5,244.5,126.1,244.7,125.7,244.7z"/>
			</g>
			<g>
				<path class="st0" d="M123.4,250.5c-0.1,0-0.1,0-0.2,0l-19-4.2c-0.5-0.1-0.8-0.5-0.6-1c0.1-0.4,0.6-0.7,1-0.6l19,4.2
					c0.5,0.1,0.8,0.5,0.6,1C124.1,250.2,123.8,250.5,123.4,250.5z"/>
			</g>
			<g>
				<path class="st0" d="M119.7,256.8c-0.1,0-0.1,0-0.2,0l-18.9-4.2c-0.5-0.1-0.8-0.5-0.6-1c0.1-0.4,0.6-0.7,1-0.6l18.9,4.2
					c0.5,0.1,0.8,0.5,0.6,1C120.4,256.5,120.1,256.8,119.7,256.8z"/>
			</g>
			<g>
				<path class="st0" d="M115.9,262.1c-0.1,0-0.1,0-0.2,0l-19.5-4.7c-0.5-0.1-0.7-0.5-0.6-1c0.1-0.4,0.6-0.7,1.1-0.6l19.5,4.7
					c0.5,0.1,0.7,0.5,0.6,1C116.6,261.9,116.3,262.1,115.9,262.1z"/>
			</g>
			<g>
				<path class="st0" d="M112.7,266.5c-0.1,0-0.2,0-0.2,0L92.2,261c-0.5-0.1-0.7-0.6-0.6-1c0.1-0.4,0.6-0.7,1.1-0.5l20.3,5.5
					c0.5,0.1,0.7,0.6,0.6,1C113.4,266.3,113.1,266.5,112.7,266.5z"/>
			</g>
			<g>
				<path class="st0" d="M107.7,270.7c-0.1,0-0.2,0-0.2,0l-20.2-5.6c-0.5-0.1-0.7-0.6-0.6-1c0.1-0.4,0.6-0.7,1.1-0.5l20.2,5.6
					c0.5,0.1,0.7,0.6,0.6,1C108.5,270.5,108.1,270.7,107.7,270.7z"/>
			</g>
			<g>
				<path class="st0" d="M102.3,274.7c-0.1,0-0.2,0-0.3,0c-6.3-2-17-4.9-23.5-6.3c-0.5-0.1-0.7-0.5-0.6-1c0.1-0.4,0.6-0.7,1-0.6
					c6.5,1.4,17.3,4.3,23.6,6.3c0.5,0.1,0.7,0.6,0.5,1C102.9,274.5,102.6,274.7,102.3,274.7z"/>
			</g>
			<g>
				
					<ellipse transform="matrix(0.3145 -0.9492 0.9492 0.3145 -174.7766 203.8712)" class="st1" cx="53.8" cy="223" rx="44.3" ry="35.4"/>
				<g>
					
						<ellipse transform="matrix(0.3148 -0.9492 0.9492 0.3148 -178.1539 201.5652)" class="st9" cx="50.5" cy="224.2" rx="23.6" ry="18.8"/>
					<path class="st0" d="M47.9,248.1c-1.2,0-2.4-0.1-3.5-0.4c-10.6-2.4-16.5-14.9-13.1-27.9c3.4-13,14.8-21.7,25.4-19.3
						c10.6,2.4,16.5,14.9,13.1,27.9l0,0C66.8,240,57.4,248.1,47.9,248.1z M53.1,201.8c-8.7,0-17.3,7.6-20.2,18.5
						c-3.2,12.1,2.1,23.8,11.9,25.9c9.7,2.2,20.2-6,23.3-18.1l0,0c3.2-12.1-2.1-23.8-11.9-25.9C55.2,201.9,54.2,201.8,53.1,201.8z"
						/>
				</g>
			</g>
			<g>
				<path class="st0" d="M133.2,284.3c-0.3,0-0.6-0.2-0.8-0.5c-0.2-0.4,0-0.9,0.4-1.1c13.5-5.9,23.1-14.8,27.2-24.9
					c1.4-3.4,2.3-7.2,2.9-12.4c0.3-2.6,0.6-6.1,0.3-9.5c-1-11-8.5-21.5-19.6-27.4c-0.4-0.2-0.6-0.7-0.3-1.1c0.2-0.4,0.8-0.5,1.2-0.3
					c11.6,6.1,19.5,17.1,20.5,28.6c0.3,3.6,0,7.1-0.3,9.8c-0.6,5.3-1.6,9.2-3,12.8c-4.2,10.5-14.2,19.6-28,25.7
					C133.4,284.3,133.3,284.3,133.2,284.3z"/>
			</g>
			<g>
				<path class="st0" d="M168.9,194.4c-0.1,0-0.2,0-0.4-0.1c-7.6-3.2-15.9-4.4-24.2-3.6c-0.2,0-0.5,0-0.6-0.2
					c-0.2-0.1-0.3-0.3-0.3-0.6c-0.2-2.4,0.2-4,1.3-5c1.5-1.6,4.1-1.6,7.4-1.7l1.3,0c0.2,0,14.8,0.1,16.5,1.7
					c0.2,0.2,0.3,0.6,0.3,0.8c-0.2,2.7-0.3,5.4-0.6,8.1c0,0.3-0.2,0.5-0.4,0.6C169.2,194.4,169,194.4,168.9,194.4z M149.1,188.9
					c6.5,0,12.9,1.2,18.9,3.5c0.2-2.2,0.3-4.4,0.4-6.5c-2-0.8-13-1.2-15-1.1l-1.4,0c-2.9,0.1-5.1,0.1-6.2,1.2
					c-0.6,0.6-0.9,1.6-0.9,3C146.4,189,147.8,188.9,149.1,188.9z"/>
			</g>
		</g>
		<g>
			<path class="st9" d="M332.5,387c-21.2,0-43.4-2.5-65.7-7.6c-44.2-10-83-35.8-109.4-72.5l4.3-2.6c25.7,35.8,63.4,60.8,106.3,70.6
				c57.4,13,114.2,8.8,151.9-11.4c19.5-10.4,34.5-26.4,42-45c7.2-17.7,8.1-42.1-6.1-56.6c-15.1-15.6-39.2-9.3-60.4-3.7
				c-3.5,0.9-6.8,1.8-10,2.5c-22.8,5.3-52.7,11.2-81.6,9.5c-24.2-1.5-40.5-10.8-52.9-30.3c-6.2-9.8-14.6-16.1-22.9-17.4
				c-6.4-1-12.6,1-18.6,5.8c-3.8,3.1-6.7,7.1-7.9,11.4l-4.9-1.3c1.6-5.2,4.9-9.9,9.5-13.7c7.2-5.8,14.9-8.1,22.8-6.9
				c9.9,1.5,19.5,8.7,26.5,19.7c11.6,18.3,26.2,26.6,48.8,28c28.1,1.7,57.5-4.1,80-9.4c3.1-0.7,6.4-1.6,9.9-2.5
				c21.5-5.7,48.4-12.7,65.6,5.1c15.6,16.1,14.8,42.4,7.1,61.5c-8,19.6-23.7,36.5-44.3,47.5C398.4,380.4,366.9,387,332.5,387z"/>
		</g>
		<g>
			<path class="st11" d="M463.9,332.2c-1.3,0-2.7-0.2-4-0.6c-6.7-2.1-10.4-8.7-8.1-14.9c9.5-26.5,4.3-46.7-13.8-54.1
				c-11.9-4.9-33.1,1.8-39.6,4.6c-6.4,2.7-14,0.1-17-5.8c-2.9-5.9-0.1-12.9,6.3-15.7c3.6-1.5,36.1-14.8,60.7-4.7
				c23.2,9.5,44.3,36.9,27.7,83.2C474.3,329,469.3,332.2,463.9,332.2z"/>
		</g>
		<g>
			<path class="st9" d="M203,251.1c-0.1,0-0.2,0-0.3,0c-4.3-0.4-8.5-1.6-12.4-3.4c-0.3-0.2-1.2-0.6-1.6-1.5c-0.5-1-0.2-1.9-0.1-2.2
				c0,0,0,0,0,0c0.3-0.8,0.6-1.7,0.8-2.5c0.6-1.7,1.1-3.5,1.7-5.2c0.3-0.9,0.7-1.6,1.1-2.3c0.4-0.8,0.8-1.6,1-2.4
				c0.2-0.7,0.6-1.3,1.3-1.6c0.7-0.3,1.5-0.3,2.2-0.1c3.3,1.3,6.8,2.5,10.7,2.9c0.7,0.1,1.4,0.5,1.8,1c0.4,0.6,0.5,1.3,0.3,2
				l-4.3,13.6C205.2,250.4,204.2,251.1,203,251.1z M194,244c2.3,1,4.7,1.7,7.2,2.1l2.8-9.1c-2.4-0.5-4.6-1.1-6.7-1.9
				c-0.1,0.3-0.3,0.5-0.4,0.8c-0.3,0.6-0.6,1.2-0.8,1.8c-0.6,1.6-1.1,3.3-1.7,5C194.3,243.1,194.1,243.6,194,244z M191.1,244.6
				l2.4,0.7c0,0,0,0,0,0L191.1,244.6l2.4,0.7L191.1,244.6z"/>
		</g>
	</g>
</g>
</svg>
