<?xml version="1.0" encoding="utf-8"?>
<!-- Generator: Adobe Illustrator 26.0.2, SVG Export Plug-In . SVG Version: 6.00 Build 0)  -->
<svg version="1.1" id="Layer_1" xmlns="http://www.w3.org/2000/svg" xmlns:xlink="http://www.w3.org/1999/xlink" x="0px" y="0px"
	 viewBox="0 0 82 102" style="enable-background:new 0 0 82 102;" xml:space="preserve">
<style type="text/css">
	.st0{fill:#012701;}
	.st1{fill:#9BCA3E;}
	.st2{fill:#F4F5F5;}
	.st3{fill:#FA990E;}
</style>
<desc>Created with Sketch.</desc>
<g id="Page-1">
	<g id="CBD-Network-Landing-Page" transform="translate(-1087.000000, -1371.000000)">
		<g id="_x30_05---Mental-Checklist" transform="translate(1087.000000, 1371.000000)">
			<path id="Path" class="st0" d="M68.4,18h6.6c2.8,0,5.1,2.3,5.1,5.1v71.8c0,2.8-2.3,5.1-5.1,5.1H7.1C4.3,100,2,97.7,2,94.9V23.1
				C2,20.3,4.3,18,7.1,18H68.4z"/>
			<path id="Path_00000163770428894303949220000005876671319880465036_" class="st1" d="M56,29v20.7c0,0.9-0.4,1.7-1,2.4
				c-0.6,0.6-1.5,1-2.4,1h0c-1.1,0-2.2-0.6-2.8-1.5l-4.9-7.3c-0.6-1-1.7-1.5-2.9-1.5h-0.7c-2.3,0-4.2-1.8-4.3-4l0-9.7H56z"/>
			<path id="Rectangle" class="st0" d="M12,46h17c1.1,0,2,0.9,2,2v16c0,1.1-0.9,2-2,2H12c-1.1,0-2-0.9-2-2V48C10,46.9,10.9,46,12,46
				z"/>
			<path id="Rectangle_00000018238168616142822150000000173152700992635535_" class="st0" d="M12,73h17c1.1,0,2,0.9,2,2v16
				c0,1.1-0.9,2-2,2H12c-1.1,0-2-0.9-2-2V75C10,73.9,10.9,73,12,73z"/>
			<path id="Path_00000077286879125442089050000010313235880414887308_" class="st1" d="M65.7,31.6c0.2,0.8,0.3,1.6,0.3,2.4
				c-0.2,5.2-4.6,9.2-9.7,9c-0.2,0-0.4,0-0.7,0c-0.6,0-1.1-0.1-1.7-0.2c-3.2-0.7-5.8-2.9-6.9-5.9L55.6,24L65.7,31.6z"/>
			<path id="Path_00000119102771928816439240000014422242251103670936_" class="st1" d="M66.9,17.8C67,17.4,67,17,67,16.6
				c0-5.7-4.6-10.4-10.4-10.7c-2-1.9-4.7-3-7.6-3c-1.4,0-2.7,0.3-4,0.8C42,1.3,37.6,1.4,34.7,4C33,3,30.9,2.7,29,3.3
				s-3.5,1.9-4.3,3.7c-0.2,0-0.4,0-0.7,0c-1.9,0-3.6,0.7-4.9,2c-1.3,1.3-2.1,3-2.1,4.8c0,0.1,0,0.2,0,0.3c-1.9,1.3-3,3.4-3,5.6
				c0,1.2,0.4,2.5,1,3.5c0,0.1,0,0.2,0,0.4c0,3.9,2.7,7.4,6.5,8.4c0.8,0.2,1.6,0.4,2.5,0.4c0.4,0,0.8,0,1.2-0.1
				c0,0.2,0.1,0.3,0.1,0.5c1,3.4,4,5.9,7.6,6.4c3.6,0.4,7.1-1.3,8.9-4.4c3.1,1.6,6.8,2,10.2,0.9c3.4-1.1,6.2-3.5,7.7-6.6
				c1.9,2.2,5.1,3,7.9,1.9c2.8-1.1,4.5-3.8,4.4-6.7S69.8,18.6,66.9,17.8L66.9,17.8z"/>
			<path id="Shape" class="st0" d="M6.8,102h68.3c3.8,0,6.8-3,6.8-6.8V23.8c0-3.8-3.1-6.8-6.8-6.8H69c-0.2-0.1-0.4-0.2-0.6-0.3v-0.1
				C68.4,10,63.5,4.6,57,4c-3.3-2.8-7.8-3.8-12-2.5c-3.3-2.1-7.6-2-10.8,0.2C30.3,0,25.7,1.3,23.4,4.9c-4.4,0.2-8.1,3.6-8.4,8
				c-3.1,2.6-3.9,7-2,10.5c0,5.9,4.8,10.6,10.7,10.6c0,0,0,0.1,0.1,0.1c0.1,0.1,0.1,0.3,0.1,0.4c0,0.1,0.1,0.2,0.2,0.2
				c2.2,4.7,7.4,7.1,12.4,5.8c1,2.1,3.1,3.5,5.4,3.5h0.7c0.6,0,1.1,0.3,1.4,0.8l4.8,7.2c1.2,1.8,3.5,2.7,5.7,2s3.6-2.6,3.6-4.8v-5.2
				c5.6-0.3,10.1-4.9,10.3-10.5c0-0.4,0-0.8-0.1-1.2c3.2-1.4,5.2-4.5,5.2-7.9c0-1.4-0.4-2.9-1.1-4.1h2.8c1.9,0,3.4,1.5,3.4,3.4v71.4
				c0,1.9-1.5,3.4-3.4,3.4H6.8c-1.9,0-3.4-1.5-3.4-3.4V23.8c0-1.9,1.5-3.4,3.4-3.4c0.9,0,1.7-0.8,1.7-1.7S7.8,17,6.8,17
				C3.1,17,0,20,0,23.8v71.4C0,99,3.1,102,6.8,102z M53,51c-0.5,0-1-0.3-1.3-0.7l-4.8-7.2c-0.9-1.4-2.5-2.3-4.3-2.3h-0.7
				c-1,0-1.9-0.6-2.3-1.5c1-0.6,1.9-1.4,2.6-2.3c1.5,0.6,3,0.9,4.6,1c1.5,3,4.3,5.1,7.6,5.8c0.1,0,0.2,0,0.3,0.1v5.4
				c0,0.4-0.2,0.8-0.5,1.1C53.9,50.8,53.5,51,53,51z M64.9,33.6c-0.2,4.1-3.7,7.3-7.9,7.2c-0.1,0-0.2,0-0.4,0c-0.1,0-0.2,0-0.2,0
				c-0.4,0-0.9-0.1-1.3-0.2c-1.8-0.4-3.4-1.4-4.5-2.8c3.8-0.8,7.1-2.9,9.3-6.1c1.4,1,3.1,1.5,4.8,1.5c0,0,0.1,0,0.1,0
				C64.9,33.3,64.9,33.4,64.9,33.6z M64.7,29.7c-1.5,0-3-0.7-4-1.8c-0.4-0.4-0.9-0.6-1.5-0.6c-0.6,0.1-1.1,0.4-1.3,0.9
				c-1.3,2.8-3.8,4.9-6.7,5.8s-6.1,0.7-8.9-0.8c-0.8-0.4-1.8-0.1-2.3,0.7c-1.4,2.4-4,3.8-6.8,3.7c-2.8-0.2-5.2-1.9-6.3-4.4
				c-0.4-1-0.6-2.2-0.6-3.3c0.2-3.3,3.7-6.1,7.8-6.1H41c0.9,0.1,1.8-0.3,2.5-0.9c0.7-0.6,1-1.5,0.9-2.5l0-1.7h3.4
				c0.9,0,1.7-0.8,1.7-1.7c0-0.9-0.8-1.7-1.7-1.7h-3.4c-0.9-0.1-1.8,0.3-2.5,0.9c-0.7,0.6-1,1.5-0.9,2.5l0,1.7h-6.8
				c-5.9,0-10.9,4.2-11.2,9.4c0,0.3,0,0.6,0,0.9c-3.8-0.3-6.6-3.5-6.6-7.3c0,0,0-0.2,0-0.2c0-0.3-0.1-0.7-0.2-1
				c-1.5-2.4-0.8-5.5,1.5-7c0.5-0.3,0.7-0.9,0.7-1.4l0-0.2c0-2.9,2.4-5.2,5.3-5.2c0.2,0,0.3,0,0.5,0c0.7,0.1,1.4-0.3,1.7-1
				C26.5,6,27.7,5,29.2,4.6c1.4-0.4,3-0.2,4.3,0.6c0.6,0.4,1.5,0.3,2-0.2c2.3-2,5.7-2.1,8.1-0.2c0.5,0.4,1.1,0.5,1.7,0.3
				c3.4-1.3,7.2-0.6,9.8,1.9c0.3,0.3,0.7,0.4,1.1,0.5c2.6,0.1,5,1.3,6.6,3.2s2.4,4.5,2.1,7c-0.1,0.8,0.4,1.6,1.2,1.8
				c2.5,0.7,4.2,3.2,3.8,5.8C69.6,27.8,67.4,29.7,64.7,29.7z"/>
			<path id="Shape_00000107570743030267814200000009761281926333222583_" class="st2" d="M33,49.1c0-2.8-2.3-5.1-5.1-5.1H14.1
				C11.3,44,9,46.3,9,49.1v13.7c0,2.8,2.3,5.1,5.1,5.1h13.7c2.8,0,5.1-2.3,5.1-5.1V49.1z M29.6,62.9c0,0.9-0.8,1.7-1.7,1.7H14.1
				c-0.9,0-1.7-0.8-1.7-1.7V49.1c0-0.9,0.8-1.7,1.7-1.7h13.7c0.9,0,1.7,0.8,1.7,1.7V62.9z"/>
			<path id="Shape_00000022544724309339659300000001415576851985819784_" class="st2" d="M27.9,71H14.1C11.3,71,9,73.3,9,76.1v13.7
				c0,2.8,2.3,5.1,5.1,5.1h13.7c2.8,0,5.1-2.3,5.1-5.1V76.1C33,73.3,30.7,71,27.9,71z M29.6,89.9c0,0.9-0.8,1.7-1.7,1.7H14.1
				c-0.9,0-1.7-0.8-1.7-1.7V76.1c0-0.9,0.8-1.7,1.7-1.7h13.7c0.9,0,1.7,0.8,1.7,1.7V89.9z"/>
			<path id="Path_00000098942283261570139010000012302699865284455314_" class="st3" d="M23,51.7l-3.9,5.1l-0.3-0.3
				c-0.7-0.6-1.7-0.6-2.3,0c-0.6,0.6-0.7,1.7,0,2.3l1.7,1.7c0.3,0.3,0.7,0.5,1.2,0.5h0.1c0.5,0,0.9-0.3,1.2-0.7l5-6.7
				c0.4-0.5,0.4-1.1,0.2-1.7c-0.2-0.5-0.7-0.9-1.3-1C23.9,50.9,23.4,51.2,23,51.7L23,51.7z"/>
			<path id="Path_00000135678537906164959080000002244735291849266321_" class="st2" d="M72.3,49h-8.6c-0.9,0-1.7,0.9-1.7,2
				s0.8,2,1.7,2h8.6c0.9,0,1.7-0.9,1.7-2S73.2,49,72.3,49z"/>
			<path id="Path_00000142158252036407221120000000271186729474165169_" class="st2" d="M39.7,61h23.6c0.9,0,1.7-0.9,1.7-2
				s-0.8-2-1.7-2H39.7c-0.9,0-1.7,0.9-1.7,2S38.8,61,39.7,61z"/>
			<path id="Path_00000058570518233303340620000009732056119415794563_" class="st2" d="M39.7,53h1.7c0.9,0,1.7-0.9,1.7-2
				s-0.7-2-1.7-2h-1.7c-0.9,0-1.7,0.9-1.7,2S38.7,53,39.7,53z"/>
			<path id="Path_00000157309999732938988210000001829698092161316790_" class="st2" d="M39.7,89h23.6c0.9,0,1.7-0.9,1.7-2
				s-0.8-2-1.7-2H39.7c-0.9,0-1.7,0.9-1.7,2S38.8,89,39.7,89z"/>
			<path id="Path_00000159466192501245734300000016065061997114312108_" class="st2" d="M72.3,76h-1.7c-0.9,0-1.7,0.9-1.7,2
				s0.7,2,1.7,2h1.7c0.9,0,1.7-0.9,1.7-2S73.3,76,72.3,76z"/>
			<path id="Path_00000045578649158710518750000003080945601344796063_" class="st2" d="M39.7,80h23.6c0.9,0,1.7-0.9,1.7-2
				s-0.8-2-1.7-2H39.7c-0.9,0-1.7,0.9-1.7,2S38.8,80,39.7,80z"/>
			<path id="Path_00000031201352360697551520000010775668309963808179_" class="st3" d="M23,78.7l-3.9,5.1l-0.3-0.3
				c-0.7-0.6-1.7-0.6-2.3,0c-0.6,0.6-0.7,1.7,0,2.3l1.7,1.7c0.3,0.3,0.7,0.5,1.2,0.5h0.1c0.5,0,0.9-0.3,1.2-0.7l5-6.7
				c0.4-0.5,0.4-1.1,0.2-1.7c-0.2-0.5-0.7-0.9-1.3-1C23.9,77.9,23.4,78.2,23,78.7L23,78.7z"/>
		</g>
	</g>
</g>
</svg>
