<?xml version="1.0" encoding="utf-8"?>
<!-- Generator: Adobe Illustrator 26.0.2, SVG Export Plug-In . SVG Version: 6.00 Build 0)  -->
<svg version="1.1" id="Layer_1" xmlns="http://www.w3.org/2000/svg" xmlns:xlink="http://www.w3.org/1999/xlink" x="0px" y="0px"
	 viewBox="0 0 64 64" style="enable-background:new 0 0 64 64;" xml:space="preserve">
<style type="text/css">
	.st0{fill:#262D9E;}
	.st1{fill:#7FD5EF;}
	.st2{fill:#6950DD;}
	.st3{fill:#FFFFFF;}
	.st4{fill:#012701;}
	.st5{fill:#9BCA3E;}
	.st6{fill:#FA990E;}
</style>
<g id="whale">
	<path class="st0" d="M58,47C46.5,67,17.5,67,6,47c3.5-0.4,3.9-3,8-3c4.5,0,4.5,3,9,3s4.5-3,9-3s4.5,3,9,3s4.5-3,9-3
		C54.1,44,54.5,46.5,58,47z"/>
	<path class="st1" d="M58,47c-3.5-0.4-3.9-3-8-3c-4.5,0-4.5,3-9,3s-4.5-3-9-3s-4.5,3-9,3s-4.5-3-9-3c-4.1,0-4.5,2.5-8,3
		C-5.4,27.3,8.7,2,32,2S69.4,27.3,58,47z"/>
	<path class="st2" d="M52.3,44.3C51.6,44.1,50.9,44,50,44c-4.5,0-4.5,3-9,3s-4.5-3-9-3c-3.5,0-4.3,1.9-6.7,2.6
		C23.9,45.2,23,43.2,23,41v-9h-6c-6.6,0-12-5.4-12-12h11c4.5,0,8.5,2.5,10.5,6.2c2-3.7,6-6.2,10.5-6.2h11c0,6.6-5.4,12-12,12h-5
		c0,2.3-0.3,5.3,3,7.2C38.2,41.6,45.1,37.2,52.3,44.3z"/>
	<path class="st3" d="M44,12h3c0.2-1.5,1.4-2.8,3-3c0.2-2.3,2.2-4,4.5-4s4.2,1.8,4.5,4c1.8-0.3,3.3,1.2,3,3h4c1.3,0,1.3,2,0,2H44
		C42.7,14,42.7,12,44,12z"/>
	<path class="st3" d="M2,14h2c0-1.6,1.7-2.5,3-1.7c0.3-4.2,6.4-4.4,7-0.2c1,0.2,1.8,1,2,2h4c1.3,0,1.3,2,0,2H2C0.7,16,0.7,14,2,14z"
		/>
	<path class="st4" d="M52.3,44.3C51.6,44.1,50.9,44,50,44c-4.5,0-4.5,3-9,3s-4.5-3-9-3c-3.5,0-4.3,1.9-6.7,2.6
		C23.9,45.2,23,43.2,23,41v-9h-6c-6.6,0-12-5.4-12-12h11c4.5,0,8.5,2.5,10.5,6.2c2-3.7,6-6.2,10.5-6.2h11c0,6.6-5.4,12-12,12h-5
		c0,2.3-0.3,5.3,3,7.2C38.2,41.6,45.1,37.2,52.3,44.3z"/>
	<g>
		<g>
			<path class="st3" d="M53.4,52.5c-0.4,0-0.6-0.2-1.1-0.5c-1.1-0.7,0-2.4,1.1-1.7c0.2,0.1,0.4,0.3,0.6,0.4
				C54.8,51.3,54.4,52.5,53.4,52.5z"/>
		</g>
	</g>
	<g>
		<g>
			<path class="st3" d="M40.6,54c-1.7,0-3.4-0.6-4.9-1.7c-2.3-1.7-5.1-1.7-7.4,0c-3,2.2-6.8,2.2-9.8,0c-1-0.8-2.3-1.3-3.5-1.3
				c-1.3,0-1.3-2,0.1-2c1.6,0.1,3.2,0.6,4.6,1.7c2.3,1.7,5.1,1.7,7.4,0c3-2.2,6.8-2.2,9.8,0c2.3,1.7,5.1,1.7,7.4,0
				c2.5-1.9,4.9-1.7,4.7-1.7c1.3,0,1.3,2,0,2C45.6,51.1,44.8,54,40.6,54z"/>
		</g>
	</g>
	<g>
		<g>
			<path class="st3" d="M10.6,52.5c-1,0-1.4-1.2-0.6-1.8c0.2-0.2,0.4-0.3,0.6-0.4c1.1-0.7,2.2,1,1.1,1.7
				C11.1,52.3,11,52.5,10.6,52.5z"/>
		</g>
	</g>
	<g>
		<g>
			<path class="st5" d="M38.6,59.7c-1.3-0.3-0.8-2.3,0.5-1.9c1.8,0.5,3.6,0.1,5.2-1.1c1.1-0.8,2.3,1,1.1,1.7
				C43.3,59.8,40.9,60.4,38.6,59.7z"/>
		</g>
	</g>
	<g>
		<g>
			<path class="st5" d="M18.5,58.3c-1.1-0.8,0.1-2.4,1.2-1.6c2.3,1.7,5.1,1.7,7.4,0c2.4-1.9,5.8-2.3,8.7-0.7c1.2,0.6,0.2,2.4-1,1.8
				c-2.1-1.2-4.5-1-6.5,0.5C25.5,60.5,21.7,60.7,18.5,58.3z"/>
		</g>
	</g>
	<g>
		<g>
			<path class="st3" d="M6.9,28.2C5,25.9,4,23,4,20c0-0.6,0.4-1,1-1h11c4.2,0,8.1,2,10.5,5.3c2.2-3,5.6-5,9.4-5.3
				c1.3-0.1,1.5,1.9,0.2,2c-3.7,0.3-6.9,2.4-8.7,5.6c-0.4,0.6-1.4,0.6-1.8,0C23.7,23.2,20,21,16,21H6c0.5,5.2,3.8,6.1,2.2,7.3
				C7.8,28.7,7.2,28.6,6.9,28.2z"/>
		</g>
	</g>
	<g>
		<g>
			<path class="st3" d="M40.6,48c-1.8,0-3.4-0.6-4.9-1.7c-2.3-1.7-5.1-1.7-7.4,0c-1,0.8-2,1.2-2.9,1.4c-0.4,0.1-0.8,0-1-0.3
				c-3-3.5-2.3-6.6-2.3-14.4c-4.8,0-8.1,0.4-11.9-2c-1.1-0.7-0.1-2.4,1.1-1.7C17,33,24,29.3,24,32c0,8.6-0.5,10.9,1.5,13.6
				c0.9-0.4,1.6-0.9,1.7-1c3-2.2,6.7-2.2,9.7,0.1c1.9,1.4,4.1,1.7,6.2,0.7c0.5-0.2,1.1,0,1.3,0.5C45.1,47.4,42.1,48,40.6,48z"/>
		</g>
	</g>
	<g>
		<g>
			<path class="st3" d="M52.8,46.3c-0.9-0.8-2.5-1.4-4-1.3c-1.4,0.1-0.8,0.2-1.3,0.3c-0.8,0.4-1.5-0.2-1.5-0.9c0-1.1,1.8-1.3,3-1.4
				c-4.3-2.4-7.9-2-11.9-2c-3.9,0-7-3.1-7-7v-2c0-0.6,0.4-1,1-1h5c5.7,0,10.4-4.4,11-10h-2c-1.3,0-1.3-2,0-2h3c0.6,0,1,0.4,1,1
				c0,7.2-5.8,13-13,13h-4v1c0,2.8,2.2,5,5,5c4.2,0,6.3-0.2,9.3,0.8c3.2,1,6.1,2.8,8.2,5.3C55.2,45.9,54.3,47.5,52.8,46.3z"/>
		</g>
	</g>
	<g>
		<g>
			<path class="st3" d="M41,21h-1c-1.3,0-1.3-2,0-2h1C42.3,19,42.3,21,41,21z"/>
		</g>
	</g>
	<g>
		<g>
			<path class="st5" d="M48.8,45c-0.2,0-0.7,0.1-0.9,0.1c-0.5,0.1-0.8,0.2-0.9,0.2c-1.1,0-1.4-1.6-0.3-1.9c2.5-1.1,5.9-0.2,7.5,1.3
				c1.2,0.9,3,1.5,4.7,1.1c1.3-0.3,1.7,1.7,0.4,2C53.9,48.9,52.9,44.7,48.8,45z"/>
		</g>
	</g>
	<g>
		<g>
			<path class="st5" d="M40.6,48c-1.8,0-3.4-0.6-4.9-1.7c-2.3-1.7-5.1-1.7-7.4,0c-3.2,2.4-6.9,2.2-9.8,0c-2.3-1.7-5.1-1.7-7.4,0
				c-1.9,1.4-4.2,2-6.4,1.5c-1.3-0.3-0.9-2.2,0.4-2c1.6,0.3,3.3-0.1,4.8-1.2c3-2.2,6.8-2.2,9.8,0c1.6,1.2,3.5,1.6,5.1,1.1
				c1.4-0.4,2.1-1,2.3-1.2c2.9-2.2,6.6-2.2,9.7,0.1c1.9,1.4,4.1,1.7,6.2,0.7c0.5-0.2,1.1,0,1.3,0.5C45.1,47.4,42.1,48,40.6,48z"/>
		</g>
	</g>
	<g>
		<g>
			<path class="st6" d="M66,14c-4.3,0-4.6,0.2-5-0.5s0.2-1,0.2-1.8c0-1.3-1.3-2.1-2.3-1.4c-0.6,0.4-1.5,0-1.5-0.8
				C57.3,7.5,55.8,6,54,6c-1.7,0-3.2,1.4-3.4,3.2c-0.1,0.4-0.4,0.8-0.8,0.9c-1,0.2-1.8,1.2-1.8,2.3c0,0.5,0.2,0.8-0.2,1.3
				C47.5,14.1,47.4,14,44,14c-1.3,0-1.3-2,0-2h2.1c0.1-1.7,1.2-3.1,2.7-3.7c1.4-5.6,8.9-5.7,10.4-0.2c2.3-0.3,4.2,1.6,4,4H66
				C67.3,12,67.3,14,66,14z"/>
		</g>
	</g>
	<g>
		<g>
			<path class="st6" d="M20,16c-4.4,0-4.4,0.1-4.8-0.4c-0.4-0.4-0.2-0.8-0.2-1.1c0-0.7-0.5-1.3-1.2-1.5c-0.4-0.1-0.7-0.4-0.8-0.8
				c-0.4-3-4.8-2.8-5,0.2c0,0.7-0.9,1.2-1.5,0.8S5,13.2,5,14c0,0.5,0.5,0.8,0.1,1.5C4.8,16.2,4.2,16,2,16c-1.3,0-1.3-2,0-2h1
				c0-1.7,1.5-3.1,3.3-3c1.5-4.1,7.4-3.9,8.6,0.2c1.1,0.5,2,1.5,2.1,2.7h3C21.3,14,21.3,16,20,16z"/>
		</g>
	</g>
</g>
<g id="yatch">
</g>
<g id="fish">
</g>
<g id="fishing">
</g>
<g id="lounger">
</g>
<g id="ice_cream">
</g>
<g id="crabs">
</g>
<g id="coconut_tree">
</g>
<g id="water_melon">
</g>
<g id="hat">
</g>
<g id="water_gun">
</g>
<g id="flip_flops">
</g>
<g id="surf_van">
</g>
<g id="sun_glass">
</g>
<g id="swim">
</g>
<g id="sun">
</g>
<g id="surf">
</g>
<g id="beach_ball">
</g>
<g id="dive">
</g>
<g id="sun_block">
</g>
<g id="coconut_drink">
</g>
<g id="beach_chair">
</g>
<g id="bikini">
</g>
<g id="swimsuit">
</g>
<g id="short_pant">
</g>
<g id="fins">
</g>
<g id="pamela_hat">
</g>
<g id="castle_sand">
</g>
<g id="starfish">
</g>
<g id="Sunset_sunrise">
</g>
</svg>
