<svg id="Layer_1" data-name="Layer 1" xmlns="http://www.w3.org/2000/svg" viewBox="0 0 78 78"><defs><style>.cls-1{fill:#fff;}.cls-2{fill:#9bca3e;}.cls-3{fill:#151a6a;}</style></defs><circle class="cls-1" cx="39" cy="39" r="39"/><path class="cls-2" d="M70.55,48.35a.84.84,0,0,0-.83.84v4.16H42.25a2.5,2.5,0,0,0-2.5,2.5V72.5A2.5,2.5,0,0,0,42.25,75H73.88a2.5,2.5,0,0,0,2.5-2.49V54.18A5.84,5.84,0,0,0,70.55,48.35ZM52.1,62.14l-3.33,5a.84.84,0,0,1-1.29.13L45,64.76a.83.83,0,0,1,1.17-1.18l1.78,1.78,2.77-4.15a.84.84,0,0,1,1.39.93Zm6.8,9.52a.85.85,0,0,1-.84.84.84.84,0,0,1-.83-.84v-15a.83.83,0,0,1,.83-.83.84.84,0,0,1,.84.83Zm12.24-5.58a.83.83,0,0,1,0,1.18.85.85,0,0,1-1.18,0l-1.91-1.91-1.9,1.91a.85.85,0,0,1-1.18,0,.83.83,0,0,1,0-1.18l1.91-1.91L65,62.26a.82.82,0,0,1,0-1.17.83.83,0,0,1,1.18,0l1.9,1.9L70,61.09a.83.83,0,0,1,1.18,0,.82.82,0,0,1,0,1.17l-1.91,1.91Z" transform="translate(-10.66 -10.99)"/><path class="cls-3" d="M62.82,43.1V38.36a10.82,10.82,0,0,0-11-10.82,10.52,10.52,0,0,0-6.46,2.39,10.52,10.52,0,0,0-6.45-2.39,10.82,10.82,0,0,0-11,10.82V43.1L25,47.32a1.67,1.67,0,0,0,.21,2.1L27.85,52v4.65a2.51,2.51,0,0,0,2.5,2.5h5v4.16a.84.84,0,0,0,.84.83.83.83,0,0,0,.83-.83v-5a.83.83,0,0,0-.83-.83H30.35a.83.83,0,0,1-.83-.83v-5a.83.83,0,0,0-.25-.59l-2.84-2.84,2.95-4.43a.86.86,0,0,0,.14-.46v-5a9.16,9.16,0,0,1,9.33-9.16,9.38,9.38,0,0,1,9,9.49V63.34a.84.84,0,0,0,.84.83.83.83,0,0,0,.83-.83V38.69a11.3,11.3,0,0,0-3-7.61,8.91,8.91,0,0,1,5.27-1.88,9.15,9.15,0,0,1,9.33,9.16v5a.86.86,0,0,0,.14.46l3,4.43L61.4,51.09a.83.83,0,0,0-.25.59v5a.83.83,0,0,1-.83.83H54.49a.83.83,0,0,0-.83.83v5a.83.83,0,0,0,.83.83.84.84,0,0,0,.84-.83V59.18h5a2.51,2.51,0,0,0,2.5-2.5V52l2.6-2.61a1.67,1.67,0,0,0,.21-2.1Z" transform="translate(-10.66 -10.99)"/><path class="cls-3" d="M55.57,38.12a.83.83,0,0,0,1.18-1.18l-1.08-1.08,1.08-1.07a.85.85,0,0,0,0-1.18.83.83,0,0,0-1.18,0l-1.08,1.08-1.07-1.08a.83.83,0,0,0-1.18,1.18l1.08,1.07-1.08,1.08a.83.83,0,0,0,0,1.18.85.85,0,0,0,1.18,0L54.49,37Z" transform="translate(-10.66 -10.99)"/><path class="cls-3" d="M40.58,33.61l-2.74,2.74-1.07-1.08a.85.85,0,0,0-1.18,0,.83.83,0,0,0,0,1.18l1.66,1.67a.85.85,0,0,0,1.18,0l3.33-3.33a.83.83,0,0,0-1.18-1.18Z" transform="translate(-10.66 -10.99)"/></svg>