<svg id="Layer_1" data-name="Layer 1" xmlns="http://www.w3.org/2000/svg" viewBox="0 0 78 78"><defs><style>.cls-1{fill:#fff;}.cls-2{fill:#9bca3e;}.cls-3{fill:#151a6a;}</style></defs><circle class="cls-1" cx="39" cy="39" r="39"/><path class="cls-2" d="M59.93,38a1,1,0,0,0-1-.83h-12A1,1,0,0,0,46,38c0,.18-3.09,17.84-14.72,29.46a1,1,0,0,0,.71,1.71H43.31c4.9-3.19,5.62-13,5.63-13.07a1,1,0,0,1,2,.13c0,.47-.62,8.45-4.57,12.94H61.18c-6.15-8-6.24-21.33-6.24-22a1,1,0,0,1,1-1h0a1,1,0,0,1,1,1c0,.16.1,14.88,6.88,22H73.94a1,1,0,0,0,.71-1.71C63,55.84,60,38.18,59.93,38Z" transform="translate(-6.86 -6.67)"/><path class="cls-3" d="M37.39,36.27l3.55,1.78,3.55-1.78a1,1,0,0,1,1.35.45,1,1,0,0,1-.45,1.34l-4,2a1,1,0,0,1-.9,0l-4-2a1,1,0,0,1,.9-1.79Z" transform="translate(-6.86 -6.67)"/><path class="cls-3" d="M49.85,40.26a11.5,11.5,0,1,0-18.82,0,15.81,15.81,0,0,0-6.59,12.91v1a3,3,0,0,0,3,3h26a3,3,0,0,0,3-3v-1A15.83,15.83,0,0,0,49.85,40.26ZM31,34.61a11.5,11.5,0,0,0,9.45-6.77,11.52,11.52,0,0,0,9.45,6.77,9.5,9.5,0,0,1-18.9,0Zm18.89-2a9.52,9.52,0,0,1-8.38-8.37A9.52,9.52,0,0,1,49.88,32.6Zm-10.5-8.37A9.51,9.51,0,0,1,31,32.6,9.53,9.53,0,0,1,39.38,24.23ZM54.44,54.17a1,1,0,0,1-1,1h-26a1,1,0,0,1-1-1v-1A13.82,13.82,0,0,1,32.32,41.8a11.47,11.47,0,0,0,16.24,0,13.81,13.81,0,0,1,5.88,11.37Z" transform="translate(-6.86 -6.67)"/></svg>