<?xml version="1.0" encoding="UTF-8"?>
<svg width="82px" height="82px" viewBox="0 0 82 82" version="1.1" xmlns="http://www.w3.org/2000/svg" xmlns:xlink="http://www.w3.org/1999/xlink">
    <!-- Generator: Sketch 64 (93537) - https://sketch.com -->
    <title>Group 3</title>
    <desc>Created with Sketch.</desc>
    <g id="Page-1" stroke="none" stroke-width="1" fill="none" fill-rule="evenodd">
        <g id="Group-3" fill-rule="nonzero">
            <g id="026---Mental-Relaxation">
                <path d="M58,56 L58,79.1810526 C58,80.7379143 56.7087892,82 55.116,82 L55.102,82 C54.2728334,81.994096 53.4847704,81.6462244 52.932,81.0421053 L44.84,71.9831579 C44.3041025,71.39149 43.5344557,71.052712 42.726,71.0526316 L42.6,71.0526316 C39.5072054,71.0526316 37,68.6019797 37,65.5789474 L37,56 L58,56 Z" id="Path" fill="#FFD740"></path>
                <path d="M76.0652322,54.8775825 L76.0652322,54.8917001 C76.6826401,56.1789559 77.0016642,57.5810414 77,58.9999017 C77,65.621024 70.1353406,71 61.6640669,71 C60.4375295,71.0055033 59.2137377,70.887214 58.0126558,70.6468652 C53.1423378,69.9301338 48.9885688,66.8576835 47,62.5010495 L62.3943491,47 L76.0652322,54.8775825 Z" id="Path" fill="#FFD740"></path>
                <path d="M77.7492837,39.5090624 C76.9256022,38.9551148 76.0202863,38.534892 75.0665682,38.2638194 C75.0682075,38.1719993 75.0773164,38.0804677 75.0938039,37.9901396 C75.1485485,37.5040206 75.1758279,37.0151743 75.175511,36.5259527 C75.1775665,28.5186754 68.9306335,21.9164021 60.9720984,21.5146165 C58.1913342,18.8565501 54.5013333,17.3724009 50.6633895,17.3683678 C48.8777619,17.3756365 47.1074599,17.6999153 45.4341369,18.326247 C45.3660477,18.353615 45.2843406,18.380983 45.2162514,18.408351 C44.2856592,17.6547215 43.2362408,17.0627128 42.1113826,16.6568004 L42.0977648,16.6568004 C39.3444272,15.6446395 36.2989555,15.8077877 33.6683186,17.108372 C32.7491226,17.5447115 31.8999781,18.1166323 31.1490172,18.8051867 C27.349608,16.4281688 22.412586,17.0504349 19.3151096,20.2967415 C18.5759401,21.0485489 17.9723251,21.9236432 17.5311719,22.8830155 C17.2315793,22.8556475 16.9319867,22.8419635 16.6187763,22.8419635 C14.0887168,22.8357666 11.6605054,23.8429678 9.87147791,25.640685 C8.08245037,27.4384021 7.08011763,29.8784076 7.08628455,32.420756 C7.08628455,32.5302279 7.0999024,32.6533838 7.0999024,32.7628557 C2.95706157,35.6392978 1.76812374,41.2646535 4.38995119,45.5847536 C4.37633334,45.7626455 4.3627155,45.9268534 4.3627155,46.1047452 C4.36079264,47.5331135 4.60973106,48.9506163 5.09807914,50.2920459 C6.7123301,54.7902422 10.776038,57.9395665 15.5157308,58.3655996 C15.8821239,58.4043078 16.2503705,58.4225811 16.6187763,58.4203356 C17.1700477,58.4138516 17.7203756,58.3727193 18.2665355,58.2971797 C19.2272314,62.7919234 22.6056301,66.3711545 27.0216219,67.5727213 C31.4376137,68.7742881 36.1516567,67.3969654 39.2380173,64.0034032 C39.8720081,63.3220766 40.4249771,62.5689576 40.8857766,61.7592289 C40.9519354,61.7856215 41.0157191,61.8176683 41.0764264,61.8550169 C49.0610774,66.0745656 58.9270553,63.5665853 63.9544065,56.0393214 C64.4502457,55.3139055 64.8874169,54.5497159 65.2617196,53.7540952 C67.6930948,56.5748893 71.5334267,57.7199858 75.1024243,56.6883616 C78.6714218,55.6567373 81.3192879,52.6362171 81.8874806,48.9483934 C82.4556732,45.2605696 80.8407432,41.5768736 77.7492837,39.5090624 Z" id="Path" fill="#FFD740"></path>
                <path d="M58.3857598,26 C60.9380013,26.6083857 63.3501503,27.9068991 65.4498366,29.8027496 C65.9989589,30.2812266 66.1618903,31.1994567 65.8252792,31.9186261 C63.7250293,36.5156951 60.2731286,39.9333706 56.188047,41.460306 C55.2374473,41.7881972 54.2574407,41.9676669 53.270845,41.9945365 C47.0963186,42.1888021 41.4973837,37.1378959 41.4973837,37.1378959 C41.4973837,37.1378959 35.8984488,42.1888021 29.7239224,41.9945365 C28.7373267,41.9676669 27.75732,41.7881972 26.8067203,41.460306 C22.7235865,39.9319054 19.2737308,36.514399 17.1747208,31.9186261 C16.8381097,31.1994567 17.0010411,30.2812266 17.5501634,29.8027496 C19.6498497,27.9068991 22.0619987,26.6083857 24.6142402,26 L58.3857598,26 Z" id="Path" fill="#FFD740"></path>
                <path d="M49.9092458,14.6537004 C52.9690538,12.3823392 56.679676,11.1046607 60.5202339,11 C61.1106729,10.9969926 61.6385072,11.3592745 61.8361084,11.9031761 C62.7460217,14.4073848 64.7338321,21.7421163 59.72231,28.0505328 C53.5628974,35.7684219 42,37 42,37 C42,37 30.4371026,35.7684219 24.27769,28.0505328 C19.2661679,21.7421163 21.2539783,14.4073848 22.1638916,11.9031761 C22.3614928,11.3592745 22.8893271,10.9969926 23.4797661,11 C27.320324,11.1046607 31.0309462,12.3823392 34.0907542,14.6537004 L49.9092458,14.6537004 Z" id="Path" fill="#FFD740"></path>
                <path d="M50,20.1808992 C50,30.0226644 41.5,38 41.5,38 C41.5,38 33,30.0226644 33,20.1808992 C33,12.5199109 38.151,5.98834962 40.43325,3.46968697 C40.698922,3.17177588 41.0890582,3 41.5,3 C41.9109418,3 42.301078,3.17177588 42.56675,3.46968697 C44.849,5.98834962 50,12.5199109 50,20.1808992 Z" id="Path" fill="#FFD740"></path>
                <path d="M75.1459889,36.2979299 C75.1610214,36.0244286 75.1678543,35.7646024 75.1678543,35.5047761 C75.1859363,28.0108558 70.100187,21.4682125 62.8371149,19.6416997 C63.0006819,16.8264656 62.599689,14.0069377 61.657748,11.3491398 C61.2696956,10.2457062 60.2233267,9.51138251 59.0543945,9.52215102 L59.0543945,9.52215102 C55.6953555,9.61201017 52.4180423,10.5783749 49.5470295,12.3255395 C48.1604091,8.12927091 45.9585406,4.24866846 43.0680275,0.906859543 C42.5367574,0.328893078 41.7878686,0 41.0031104,0 C40.2183522,0 39.4694634,0.328893078 38.9381932,0.906859543 C36.6833201,3.52153213 31.4369821,10.5108583 31.4369821,18.7705981 C31.4369821,25.5206106 34.8766885,31.3516586 37.4103459,34.7362374 C33.7670176,33.7406926 28.2801597,31.5772972 24.7816899,27.0905081 C22.6317318,24.2883935 21.6009211,20.7858681 21.889986,17.2649733 C21.889986,17.2471957 21.889986,17.2294181 21.889986,17.210273 C22.0072912,15.5226814 22.3440342,13.8576042 22.8916963,12.2571642 C24.2704962,12.2942602 25.6391645,12.5046831 26.9655004,12.8834822 C27.4394527,13.0299161 27.9554865,12.907864 28.3137688,12.5645905 C28.672051,12.2213169 28.8163209,11.7107259 28.6907103,11.2305426 C28.5650997,10.7503593 28.189333,10.3759866 27.7089252,10.2523995 C26.1506665,9.80869368 24.5427225,9.56334299 22.9231279,9.52215102 C21.7685821,9.51925951 20.7377909,10.2454628 20.351206,11.3340972 C19.7681058,12.9892558 19.3868023,14.7087978 19.2155699,16.4554094 C17.5289398,17.4066387 16.1253466,18.7894636 15.1485987,20.4622037 L15.037905,20.4622037 C9.13194,20.4658251 4.29396434,25.1575738 4.10518691,31.0644822 C-0.0577274913,34.3848408 -1.21345538,40.22923 1.3720074,44.8858713 C1.3720074,44.9487766 1.3720074,45.0130494 1.3720074,45.0773222 C1.38029217,52.6264159 7.49387248,58.7440977 15.037905,58.7523881 C15.251093,58.7523881 15.4629144,58.7455505 15.6665363,58.733243 C16.9109386,62.7728216 19.9610311,66.004117 23.9204387,67.4775011 C27.8798463,68.9508853 32.2987118,68.4989563 35.8783988,66.2545292 C36.7909068,69.1349002 39.4731688,71.0836175 42.4926932,71.0599473 C42.8872698,71.0596498 43.2633747,71.2271959 43.5272016,71.520797 L51.4438561,80.5955707 C52.2472688,81.4856318 53.3884306,81.9955272 54.5870126,82 C56.8956006,81.9977385 58.7665172,80.1255667 58.7687772,77.8154299 L58.7687772,72.3112158 C59.4494656,72.3870652 60.133768,72.4258683 60.8186619,72.4274539 C69.4842075,72.4274539 76.5344441,66.5991408 76.5344441,59.4361414 C76.533714,58.3313802 76.363646,57.2332672 76.0301724,56.1801082 C79.8493011,54.2363802 82.1796336,50.2373216 81.9891482,45.9539741 C81.7986627,41.6706265 79.1225591,37.8945089 75.1459889,36.2979299 L75.1459889,36.2979299 Z M59.2047193,28.9762997 C61.3688277,29.5292951 63.4117631,30.4788843 65.2300136,31.7769532 C63.2078344,35.3455813 59.8974741,38.0044538 55.9782009,39.207984 C55.0950996,39.4538372 54.1846914,39.5879862 53.2682534,39.6072959 C50.3306841,39.5736374 47.4413737,38.8553903 44.8295617,37.5095408 C48.792672,36.4962184 55.0448201,34.1536796 59.2047193,28.9762997 Z M59.0803597,12.2503267 C60.0183244,14.870863 60.3355,17.6735243 60.0069075,20.4375886 C60.0006216,20.4513882 59.9951459,20.4655431 59.9905085,20.4799813 C59.9905085,20.5086989 59.9905085,20.5346815 59.9905085,20.5633992 C59.6559941,22.9432158 58.7021203,25.1932083 57.2245308,27.0877731 C53.7356271,31.5622546 48.2460361,33.7297526 44.5972414,34.7293999 C47.133632,31.3434536 50.5692387,25.5219781 50.5692387,18.7705981 C50.5635298,17.5596392 50.451033,16.3515469 50.2330576,15.1603807 C52.8454781,13.3679396 55.914667,12.3584222 59.0803597,12.2503267 L59.0803597,12.2503267 Z M41.0031104,2.6846181 C44.0697161,6.18248819 46.2647069,10.3575026 47.4083166,14.8677343 L47.4083166,14.8882469 C47.6888044,16.1634038 47.8322007,17.4649223 47.8360592,18.7705981 C47.8360592,26.0566731 43.0871597,32.4046387 41.0031104,34.8415354 C38.919061,32.4046387 34.1701616,26.0566731 34.1701616,18.7705981 C34.1701616,11.4270877 38.9532257,5.07638712 41.0031104,2.6846181 Z M37.176659,37.5095408 C34.5654545,38.855705 31.676511,39.5739772 28.7393339,39.6072959 C27.8191278,39.587821 26.9050113,39.4527479 26.0184537,39.2052489 C22.1072154,38.0003427 18.8020748,35.3487834 16.7762071,31.7906282 C18.5905313,30.4827742 20.6344941,29.5280685 22.8015014,28.9762997 C26.960034,34.1536796 33.2135487,36.4962184 37.176659,37.5095408 Z M54.5733467,79.2650101 C54.1570916,79.2607478 53.7612292,79.0839757 53.4800749,78.776787 L45.5757197,69.7170559 C44.7604686,68.8081912 43.5899201,68.2999142 42.3697001,68.3249342 C40.1589522,68.3193605 38.3507565,66.5607676 38.2822302,64.3495925 C38.871248,63.7800276 39.4077559,63.1584877 39.8852399,62.4925186 C41.882255,63.3946007 44.0182884,63.9495466 46.2016178,64.1335265 C48.2011269,68.0013769 51.7960803,70.7963837 56.0355977,71.7792558 L56.0355977,77.8154299 C56.0341523,78.201804 55.879193,78.5717374 55.6048877,78.8436614 C55.3305824,79.1155854 54.9594583,79.2671684 54.5733467,79.2650101 L54.5733467,79.2650101 Z M73.8012645,59.4361414 C73.8012645,65.0921486 67.976859,69.6924407 60.8186619,69.6924407 C59.759632,69.6972216 58.702997,69.5913497 57.6659393,69.3765467 C54.3070655,68.8064336 51.3101339,66.9293907 49.3297418,64.1554066 C55.4742516,63.6474362 61.0033855,60.2237956 64.1996049,54.9479847 C66.7862086,57.0571187 70.2000364,57.8552724 73.4527842,57.1113802 C73.6813004,57.86522 73.7986967,58.6483866 73.8012645,59.4361414 Z M71.068085,54.6498683 C68.2000479,54.6121678 65.549467,53.1127393 64.0383473,50.6731592 C63.7968511,50.2339487 63.3345564,49.9621683 62.8335971,49.9648935 C62.3326378,49.9676186 61.8733233,50.2444124 61.6366133,50.6862242 C61.3999033,51.128036 61.4237452,51.6640385 61.6987457,52.0830585 C61.8613698,52.3565598 62.0526924,52.608181 62.2453816,52.8639047 C59.9223355,57.1963945 55.7758965,60.2542578 50.9526408,61.1919323 C46.1293851,62.1296067 41.1404019,60.8477329 37.3652484,57.7007755 C36.9897953,57.3883394 36.4762915,57.3000728 36.0181687,57.4692248 C35.560046,57.6383769 35.2269042,58.0392493 35.1442346,58.5208374 C35.061565,59.0024255 35.241927,59.4915646 35.6173801,59.8040006 C36.2095228,60.2906969 36.8306411,60.7409787 37.4773088,61.1523621 C34.9332376,64.610692 30.5991632,66.2549973 26.4033188,65.3537253 C22.2074745,64.4524532 18.9295918,61.173091 18.0280034,56.9746295 L18.0280034,56.9746295 C17.8107494,55.9741184 17.7334815,54.9482513 17.7984163,53.9264573 C17.8478522,53.1712043 17.2760848,52.5188481 16.5213382,52.4693791 C15.7665915,52.41991 15.1146727,52.9920609 15.0652368,53.747314 C15.0221688,54.5042963 15.0413657,55.2635405 15.1226335,56.0173749 C15.0939352,56.0173749 15.0666034,56.0173749 15.037905,56.0173749 C10.3485169,56.0098818 6.18508858,53.0135023 4.68598756,48.567199 C5.18098198,48.918731 5.70437246,49.2284018 6.25073283,49.493001 C6.69160949,49.7030831 7.21099867,49.6618443 7.61325148,49.3848188 C8.0155043,49.1077934 8.23950897,48.637068 8.2008851,48.1499604 C8.16226123,47.6628528 7.8668767,47.2333662 7.42600002,47.0232841 C5.99010002,46.3401723 4.78363839,45.254056 3.95349545,43.897164 C3.94392932,43.880754 3.94119614,43.8616089 3.93163001,43.8465663 C1.67909698,40.1470239 2.70174728,35.3314644 6.26303214,32.8682234 L6.26303214,32.8682234 C7.30489088,32.1436488 8.50145729,31.6725681 9.75740215,31.4925118 C10.5049787,31.3860211 11.0247394,30.6932562 10.9183201,29.9451781 C10.8119009,29.1971 10.1196004,28.6769906 9.37202384,28.7834813 C8.59435573,28.8984205 7.83143796,29.0974166 7.09665189,29.3769791 C8.02159868,25.7432358 11.2906508,23.1993092 15.037905,23.1972169 C15.3112229,23.1972169 15.5681418,23.2081569 15.8264273,23.232772 C16.4026695,23.29511 16.9537926,22.9802076 17.193017,22.4519258 C17.6718694,21.4513638 18.3482604,20.5582078 19.1814051,19.8263131 C19.3613151,22.1950219 20.0488013,24.4971973 21.197125,26.5763256 C19.0516464,27.2495427 17.0256362,28.2569971 15.1936962,29.5615925 C14.0444446,30.3740231 13.7062761,31.9306421 14.41474,33.1471948 C16.7930761,37.3306841 20.6846489,40.4417238 25.2873282,41.8390666 C26.3893106,42.1476319 27.5256119,42.3166983 28.6696378,42.3423091 C28.8062968,42.3423091 28.9429558,42.3423091 29.0700486,42.3423091 C33.3187271,42.1588971 37.440103,40.8364515 41.0031104,38.5132906 C44.5661177,40.8364515 48.6874936,42.1588971 52.9361721,42.3423091 C53.0728311,42.3423091 53.2094901,42.3423091 53.3379495,42.3423091 C54.4795864,42.3172492 55.6135833,42.1491029 56.7134262,41.8418016 C61.3188579,40.4449658 65.2133308,37.3334646 67.5942139,33.1485623 C68.3031372,31.9306094 67.9637001,30.372427 66.8125245,29.560225 C64.9818709,28.2562981 62.9572442,27.2493051 60.8131955,26.5763256 C61.5492899,25.2522393 62.0971101,23.83183 62.4408039,22.3562003 C68.3570003,23.9779803 72.4526801,29.3665186 72.4346748,35.5047761 C72.4331934,36.0309766 72.3998788,36.5566048 72.3349137,37.0787762 C72.3349137,37.0951863 72.3349137,37.1115964 72.3349137,37.1280064 C72.1998595,38.2753042 71.9192714,39.4007073 71.4999274,40.4770301 C71.2251997,41.1809259 71.5727265,41.9744064 72.2761504,42.2493185 C72.9795743,42.5242306 73.7725229,42.1764706 74.0472507,41.4725749 C74.337203,40.7105373 74.5701647,39.9279922 74.7442115,39.1314036 C78.140442,40.833049 79.9211882,44.648598 79.0451236,48.3468329 C78.1690589,52.0450677 74.8662521,54.6547715 71.068085,54.6498683 Z" id="Shape" fill="#263238"></path>
            </g>
        </g>
    </g>
</svg>