<?xml version="1.0" encoding="utf-8"?>
<!-- Generator: Adobe Illustrator 26.0.2, SVG Export Plug-In . SVG Version: 6.00 Build 0)  -->
<svg version="1.1" id="Layer_1" xmlns="http://www.w3.org/2000/svg" xmlns:xlink="http://www.w3.org/1999/xlink" x="0px" y="0px"
	 viewBox="0 0 113 102" style="enable-background:new 0 0 113 102;" xml:space="preserve">
<style type="text/css">
	.st0{fill:#F3B4BF;}
	.st1{fill:#012701;}
	.st2{fill:#263238;}
	.st3{fill:#FFFFFF;}
</style>
<g id="Page-1">
	<g id="CBD-Network-Landing-Page" transform="translate(-255.000000, -1371.000000)">
		<g id="_x30_11---Mental-Health" transform="translate(255.000000, 1371.000000)">
			<path id="Path" class="st0" d="M109.1,51.8c0,0.4,0.1,0.7,0.1,1.1c0,5.6-4,10.3-9.5,11.2c-0.1,0-0.1,0-0.1,0
				c-0.5,0.1-1.1,0.1-1.6,0.1h-0.2c0.2,1.2,0.2,2.5,0,3.8c-0.8,4.8-4.6,8.5-9.3,9.3c-0.6,0.1-1.1,0.2-1.7,0.2
				c-0.7,0-1.4-0.1-2.1-0.2c0.1,0.4,0.1,0.8,0.1,1.3c0,0.3,0,0.5,0,0.8c0,6.2-5,11.3-11.2,11.3c-0.6,0-1.1,0-1.7-0.2
				c-0.2,0-0.3,0-0.5-0.1c0.2,0.7,0.3,1.4,0.3,2.1c0,0.6-0.1,1.1-0.2,1.7c-0.6,2.5-2.3,4.6-4.7,5.4c-2.4,0.9-5.1,0.5-7.1-1.1
				c-1.9-1.4-2.9-3.6-2.9-6L55,90.6V15.2l1.9-1.9c0-3,1.2-5.9,3.3-8c2-2.1,4.9-3.3,7.9-3.3c1.4,0,2.8,0.3,4.1,0.8
				c0.2,0.1,0.4,0.1,0.6,0.2c1,0.5,2,1.1,2.8,1.9C77.6,3,80.2,2,83,2c3.6,0,7,1.8,9.1,4.8c0.1,0,0.2-0.1,0.3-0.1
				c0.9-0.4,1.9-0.6,2.9-0.8c0.3,0,0.5-0.1,0.8-0.1s0.6,0,0.9,0c6.7,0,12.1,5.5,12.1,12.2c0,1.5-0.3,3.1-0.9,4.5
				c-0.1,0.3-0.2,0.5-0.3,0.8l0,0c-0.4,0.8-0.8,1.5-1.4,2.2c-0.2,0.3-0.5,0.6-0.7,0.8c0.1,0.1,0.2,0.2,0.3,0.2l0,0
				c2.9,2,4.7,5.4,4.8,9c0.1,3.6-1.6,7-4.4,9.2c-0.1,0-0.1,0.1-0.1,0.1c-0.1,0.1-0.2,0.2-0.3,0.3c0.3-0.2,1.9,2.9,2.1,3.1v0.1
				C108.7,49.5,109,50.6,109.1,51.8L109.1,51.8z"/>
			<path id="Path_00000064313228456890443550000014127809473541249175_" class="st1" d="M57,99.1c0,0.4-0.2,0.7-0.6,0.9
				s-0.8,0.1-1-0.2L11.1,55.2C-1,43-1,23.4,11.1,11.1C16.8,5.3,24.7,2,32.9,2S49,5.3,54.8,11.1l2.2,2.2V99.1z"/>
			<path id="Shape" class="st1" d="M108.6,26c0.4-0.6,0.8-1.3,1.1-1.9c0.2-0.3,0.3-0.6,0.4-1c0.6-1.7,1-3.4,1-5.2
				c0-7.8-6.3-14.2-14.1-14.2c-0.3,0-0.7,0-1.1,0c-0.3,0-0.6,0.1-0.9,0.1c-0.8,0.1-1.5,0.3-2.3,0.5c-4.4-5-11.9-5.9-17.4-2.1
				c-0.6-0.5-1.3-0.8-2-1.2c-3.4-1.6-7.4-1.6-10.9-0.1c-3.5,1.6-6.1,4.5-7.2,8.2c-6.1-6-14.3-9.4-22.9-9.3S15.5,3.6,9.5,9.7
				c-3.9,4-6.8,8.9-8.3,14.3c-0.3,1,0.3,2,1.3,2.3s2-0.3,2.3-1.3c1.3-4.8,3.9-9.2,7.4-12.7c5.4-5.5,12.7-8.6,20.4-8.6
				s15,3.1,20.4,8.6l1.6,1.7v82.8l-42.4-43C7,48.6,4,41.4,3.8,33.9c0-0.5-0.2-1-0.6-1.3s-0.9-0.5-1.4-0.5c-1,0-1.9,0.9-1.8,1.9
				c0.2,8.4,3.6,16.5,9.5,22.5l44,44.7c0.7,0.7,1.7,1,2.7,0.7s1.7-1,2-1.9c0,0,0,0,0.1,0c2.8,2.2,6.7,2.6,9.9,1s5.2-4.9,5.2-8.5
				c7.3,0,13.2-5.9,13.2-13.2c7.3,0,13.2-5.9,13.2-13.2V66c6.5-0.9,11.3-6.5,11.3-13.1c0-0.4,0-0.9-0.1-1.3c-0.1-1.4-0.5-2.8-1-4
				c-0.3-0.7-0.7-1.4-1.1-2.1c2.7-2.5,4.2-6.1,4.1-9.8C112.9,32,111.3,28.5,108.6,26L108.6,26z M105.2,43.7L105.2,43.7
				c-1.1,0.8-2.4,1.3-3.8,1.5c-1,0.1-1.7,1-1.6,2s0.9,1.8,1.9,1.7c0.1,0,0.2,0,0.3,0c1.3-0.2,2.6-0.6,3.7-1.2
				c0.4,0.6,0.7,1.2,0.8,1.4c0.4,0.9,0.6,1.9,0.7,2.9l0,0c0,0.3,0,0.6,0,0.9c0,2.5-1,4.9-2.8,6.7s-4.2,2.8-6.7,2.7
				c-3.8,0-7.2-2.4-8.6-5.9c2.5-0.5,4.8-2,6.4-4c0.7-0.8,0.5-2-0.3-2.7s-2-0.5-2.6,0.3c-2.6,3.3-7.3,3.8-10.6,1.2
				c-0.8-0.7-2-0.5-2.6,0.3c-0.7,0.8-0.5,2,0.3,2.7c1.6,1.3,3.5,2.1,5.5,2.4c1.4,5,5.6,8.7,10.8,9.4c0,0.1,0,0.1,0,0.1
				c0,5.2-4.2,9.4-9.4,9.4c-0.2,0-0.4,0-0.6-0.1c-1.1-3.7-3.8-6.7-7.3-8.3c1.5-2,2.3-4.3,2.3-6.8c0-1-0.8-1.9-1.9-1.9
				s-1.9,0.8-1.9,1.9c0,4.2-3.4,7.6-7.5,7.6c-1,0-1.9,0.8-1.9,1.9s0.8,1.9,1.9,1.9c2,0,4.1-0.6,5.8-1.6c3.7,0.8,6.5,3.7,7.2,7.5l0,0
				c0.1,0.6,0.2,1.1,0.2,1.7c0,5.2-4.2,9.4-9.4,9.4c-0.6,0-1.2-0.1-1.8-0.2l0,0c-1.2-0.2-2.4-0.7-3.4-1.4c-0.9-0.5-2-0.3-2.6,0.6
				c-0.6,0.8-0.4,2,0.5,2.6c1.1,0.7,2.2,1.3,3.5,1.6c0,0.2,0,0.4,0,0.6c0,2.2-1.2,4.1-3.2,5.1c-1.9,1-4.2,0.7-5.9-0.6
				c-1.4-1.1-2.2-2.7-2.2-4.5V13.2c0-3.2,1.6-6.2,4.3-8c2.7-1.7,6.1-2,9-0.6C72,4.7,72.2,4.9,72.5,5c-1.5,2-2.4,4.2-2.7,6.6
				c-1.3,0.3-2.6,1-3.5,1.9c-0.5,0.5-0.7,1.2-0.5,1.8c0.2,0.7,0.7,1.2,1.3,1.3c0.7,0.2,1.4,0,1.8-0.5c1.5-1.4,3.8-1.4,5.3,0
				c0.5,0.5,1.2,0.7,1.8,0.5c0.7-0.2,1.2-0.7,1.3-1.3c0.2-0.7,0-1.4-0.5-1.8c-0.9-0.9-2.1-1.5-3.3-1.8c0.3-2.1,1.4-4,3-5.5
				c0,0,0,0,0.1,0c1.7-1.6,3.9-2.4,6.3-2.4c3.1,0,5.9,1.5,7.7,4l0,0c1.1,1.6,1.7,3.5,1.7,5.4c0,1,0.8,1.9,1.9,1.9s1.9-0.8,1.9-1.9
				c0-1.9-0.4-3.7-1.2-5.4c0.2,0,0.4-0.1,0.7-0.1c0.2,0,0.4-0.1,0.6-0.1c0.3,0,0.5,0,0.8,0c5.7,0,10.4,4.7,10.4,10.4
				c0,1.3-0.3,2.7-0.8,3.9c-0.1,0.2-0.2,0.4-0.3,0.6c-0.3,0.5-0.6,1-0.9,1.5c-3.7-1.7-8.1-1.6-11.7,0.3c-1.5-1-3.3-1.6-5.2-1.6
				c-1,0-1.9,0.8-1.9,1.9s0.8,1.9,1.9,1.9c3.1,0,5.7,2.5,5.7,5.7c0,1,0.8,1.9,1.9,1.9s1.9-0.8,1.9-1.9c0-1.8-0.5-3.5-1.5-5
				c2.7-1,5.8-0.8,8.3,0.7c0,0,0,0,0.1,0s0,0.1,0.1,0.1c2.7,1.7,4.3,4.6,4.3,7.8S107.8,41.9,105.2,43.7L105.2,43.7z"/>
			<path id="Path_00000147179218510770761620000017176072531205039792_" class="st2" d="M77.1,30C69.9,30,64,35.9,64,43.1
				c0,1,0.8,1.9,1.9,1.9s1.9-0.8,1.9-1.9c0-5.2,4.2-9.4,9.4-9.4c1,0,1.9-0.8,1.9-1.9S78.2,30,77.1,30L77.1,30z"/>
			<path id="Path_00000161615854612416714950000007008483303162056844_" class="st3" d="M33.1,11.7c1,0,1.9-0.8,1.9-1.9
				S34.2,8,33.1,8c-6.7,0-13.1,2.6-17.7,7.4C10.9,19.8,8.3,25.8,8,32.1c0,0.5,0.2,1,0.5,1.3C8.8,33.8,9.3,34,9.8,34h0.1
				c1,0,1.8-0.8,1.9-1.8c0.2-5.4,2.5-10.4,6.3-14.3C22,14,27.4,11.7,33.1,11.7z"/>
			<path id="Path_00000073691761608498561840000010814898703286428587_" class="st3" d="M10.3,38.1c-0.9,0.3-1.4,1.4-1.2,2.5
				c0.2,0.7,0.4,1.4,0.6,2.2c0.3,0.8,0.9,1.3,1.6,1.3c0.2,0,0.4,0,0.6-0.1c0.4-0.2,0.8-0.6,1-1c0.2-0.5,0.2-1,0-1.5
				c-0.2-0.6-0.4-1.2-0.5-1.8c-0.1-0.5-0.4-0.9-0.8-1.2C11.2,38,10.7,37.9,10.3,38.1z"/>
		</g>
	</g>
</g>
</svg>
