<?xml version="1.0" encoding="utf-8"?>
<!-- Generator: Adobe Illustrator 26.0.2, SVG Export Plug-In . SVG Version: 6.00 Build 0)  -->
<svg version="1.1" id="Layer_1" xmlns="http://www.w3.org/2000/svg" xmlns:xlink="http://www.w3.org/1999/xlink" x="0px" y="0px"
	 viewBox="0 0 500 500" style="enable-background:new 0 0 500 500;" xml:space="preserve">
<style type="text/css">
	.st0{fill:#9BCA3E;}
	.st1{fill:#FFFFFF;}
</style>
<g>
	<path class="st0" d="M466.73,375.64c-0.01-0.08-0.01-0.17-0.01-0.25c0-2.07-0.2-6.35-1.6-11.88c-0.19-0.91-0.39-1.82-0.61-2.73
		c-0.65-2.77-0.14-5.71,1.4-8.07c29.37-44.98,8.67-79.91-6.28-96.72c-7.07-7.96-8.74-19.17-4.26-28.56
		c7.22-15.12,7.71-31.7,1.43-47.93c-10.16-26.25-26.03-36.02-37.55-39.59c-10.86-3.37-18.52-13.15-19.04-24.34
		c-0.84-17.72-7.61-42.87-35.12-62.01c-17.24-12-34.95-18.08-52.62-18.08c-23.54,0-42.2,10.79-53.72,19.84
		c-0.62,0.49-1.22,1-1.79,1.51c-1.92,1.74-4.39,2.7-6.96,2.7c-2.57,0-5.04-0.96-6.96-2.69c-0.58-0.52-1.18-1.03-1.8-1.52
		c-11.51-9.05-30.18-19.84-53.72-19.84c-17.67,0-35.38,6.08-52.62,18.08c-27.51,19.15-34.28,44.29-35.12,62.01
		c-0.53,11.19-8.18,20.97-19.04,24.34c-11.52,3.57-27.39,13.34-37.55,39.59c-6.28,16.23-5.79,32.81,1.43,47.94
		c4.48,9.39,2.81,20.6-4.26,28.56c-14.95,16.82-35.64,51.74-6.28,96.72c1.55,2.36,2.06,5.31,1.4,8.08
		c-0.22,0.91-0.41,1.82-0.65,2.92c-1.36,5.33-1.56,9.61-1.55,11.69c0,0.08,0,0.17-0.01,0.25c-0.62,12.17,1.8,23.41,5.51,33.34
		c5.82,15.61,16.86,28.55,31.35,36.77c18.5,10.5,39.91,14.8,60.98,12.1c123.46-15.79,115.05-114.35,115.05-114.35v-40.02
		c0-1.57-0.77-3.05-2.06-3.95c-0.82-0.58-1.79-0.87-2.77-0.87c-0.55,0-1.11,0.1-1.65,0.29l-33.97,12.35l-17.65,5.86l-50.01,19.22
		l-3.57,1.5l0.04-0.25c0.06-0.12,0.11-0.25,0.16-0.37c0.98-2.57,3.99-4.71,5.7-5.62c0.11-0.06,0.21-0.12,0.31-0.18
		c0,0,51.28-34.19,51.98-34.71c0,0,30.12-22.4,30.97-23.03l20.58-15.3c1.22-0.91,1.95-2.35,1.95-3.87v-34.42
		c0-1.54,0.27-3.89,0.75-6.44c0.02-0.08,0.03-0.17,0.04-0.25c1.42-12.3,5.22-21.68,7.39-23.22c2.39,1.33,6,11.95,6.97,23.15
		c0.01,0.13,0.03,0.28,0.05,0.41c0.2,1.16,0.74,4.81,0.74,6.35c0,0.75-0.18,33.78-0.18,33.78c-0.01,1.54,0.71,2.99,1.95,3.9
		l21.37,15.89c0.85,0.63,4.16,3.09,5.1,3.79l25.94,19.3c0.7,0.52,11.63,8.64,11.72,8.7l40.34,26.05c0.13,0.08,0.29,0.18,0.42,0.25
		c1.17,0.6,4.44,2.81,5.56,5.73c0.01,0.01,0.08,0.37,0.08,0.37l-3.76-1.58l-46.65-17.92l-20.65-7.02l-35.17-12.79
		c-0.54-0.2-1.09-0.29-1.65-0.29c-0.97,0-1.92,0.29-2.74,0.85c-1.29,0.89-2.06,2.34-2.08,3.9l-0.1,7.05l0.67,28.38
		c0.3,12.78,2.22,25.49,5.88,37.75c2.66,9.45,11.02,35.57,43.61,57.93c18.26,12.53,49.39,25.64,68.03,29.04
		c15.1,2.76,30.79,1.29,44.82-4.95C474.56,436,466.73,375.64,466.73,375.64z M452.78,377.18c0.15,5.65,5.86,35.17-14.91,54.92
		c-15.63,14.86-26.74,20.36-49.06,19.46c-18.28-0.74-46.45-11.59-63.69-22.74c-37.55-24.29-47.53-59.41-47.53-59.41l0,0
		c-4-17.32-3.78-23.67-3.78-23.67l0.17-28.18c1.08-0.31,2.04-0.99,2.69-1.95l0.39-0.58l7.34,2.67c0.02,0.08,0.99,3.84,0.99,3.84
		c0.5,1.95,2.16,3.39,4.17,3.6c0.17,0.02,0.34,0.03,0.51,0.03c1.82,0,3.5-1.03,4.32-2.68l0.49-0.98l4.42,1.6l1.39,0.46l0.51,1.55
		c0.58,1.74,2.1,3.01,3.92,3.26c0.22,0.03,0.45,0.05,0.66,0.05c1.5,0,2.92-0.7,3.84-1.9l5.54,1.83c0.24,0.47,0.5,0.93,0.8,1.37
		l1.15,1.71c0.9,1.33,2.4,2.14,4,2.14c1.38,0,2.69-0.59,3.6-1.61l3.56,1.37c0.06,0.23,0.13,0.45,0.2,0.67l0.9,2.67
		c0.59,1.74,2.11,3,3.94,3.24c0.21,0.03,0.43,0.04,0.64,0.04c1.6,0,3.11-0.79,4.01-2.14l0.41-0.61l4.79,1.84
		c0.06,0.23,0.13,0.46,0.2,0.68l0.83,2.52c0.43,1.32,1.34,2.48,2.61,3.03c0.69,0.3,1.37,0.44,2.02,0.44c1.59,0,3.1-0.79,4.01-2.13
		l0.44-0.65l12.77,4.9l7.27,3.06c0.19,0.07,0.38,0.13,0.58,0.2l1.92,0.54c0.11,0.03,0.23,0.06,0.34,0.08l4.21,1.62
		c0.56,0.22,1.15,0.32,1.73,0.32c0.96,0,1.92-0.29,2.73-0.85c1.31-0.9,2.09-2.39,2.09-3.98v-11.89c0-1.52-0.44-3.11-1.24-4.52
		c-2.75-6.69-8.92-10.44-10.83-11.47l-39.87-25.75l-4.28-3.19v-1.54c0.4-0.87,0.65-1.84,0.73-2.87c1.05-1.96,1.25-4.1,1.26-5.41
		v-9.87c0-5.72-3.8-9.57-9.46-9.57c-0.46,0-0.91,0.02-1.34,0.05c-0.17,0.01-0.31,0.01-0.46,0.01c-0.25,0-0.49-0.01-0.71-0.02
		c-0.48-0.02-0.96-0.04-1.44-0.04c-5.93,0-9.77,3.76-9.77,9.57v3.93l-7.8-5.8c0.54-1.36,0.79-3.02,0.79-5.08v-10.69
		c0-4.36-2.83-8.77-9.16-8.77c-0.53,0-1.07,0.03-1.55,0.06c-0.17,0.01-0.32,0.02-0.47,0.02c-0.15,0-0.29-0.01-0.46-0.02
		c-0.5-0.03-1.03-0.06-1.56-0.06c-6.2,0-9.04,4.23-9.15,8.51l-5.75-4.28c0.1-17.06,0.16-29.31,0.16-30.02
		c0-2.59-0.63-6.75-0.86-8.11c-0.73-8.29-4.26-34.29-19.62-34.29c-14.29,0-18.42,25.74-19.37,33.99c-0.19,0.98-0.9,4.92-0.9,8.42
		v30.6l-4.97,3.69c-0.11-4.28-2.95-8.51-9.15-8.51c-0.53,0-1.07,0.03-1.57,0.06c-0.17,0.01-0.31,0.02-0.45,0.02
		c-0.15,0-0.29-0.01-0.46-0.02c-0.49-0.03-1.03-0.06-1.56-0.06c-6.32,0-9.15,4.4-9.15,8.77v10.69c0,2.06,0.26,3.72,0.79,5.08
		l-7.89,5.87v-4.17c0-5.72-3.8-9.57-9.47-9.57c-0.46,0-0.9,0.02-1.36,0.05c-0.16,0.01-0.3,0.01-0.44,0.01
		c-0.25,0-0.48-0.01-0.71-0.02c-0.48-0.02-0.96-0.04-1.43-0.04c-5.93,0-9.77,3.75-9.77,9.57v9.88c0,1.35,0.21,3.57,1.34,5.57
		c0.09,1.08,0.36,2.09,0.79,3v1.37l-4.27,3.18l-39.73,25.68c-1.6,0.84-8.2,4.65-10.95,11.42c-0.89,1.6-1.33,3.14-1.33,4.7
		c0,0.09,0.02,0.43,0.02,0.43c-0.01,0.13-0.02,0.26-0.02,0.4v11.06c0,1.59,0.78,3.08,2.09,3.98c0.82,0.56,1.77,0.85,2.73,0.85
		c0.58,0,1.17-0.11,1.73-0.32l3.27-1.26c0.62-0.01,1.24-0.13,1.83-0.38l9.02-3.8l11.64-4.47c0.75,1.2,2.01,2.03,3.45,2.22
		c0.21,0.03,0.43,0.04,0.64,0.04c1.59,0,3.1-0.79,4.01-2.14l1.56-2.32c0.4-0.6,0.75-1.24,1.04-1.91l5.54-2.13l0.41,0.61
		c0.9,1.35,2.41,2.14,4,2.14c0.21,0,0.43-0.01,0.65-0.04c1.82-0.24,3.35-1.51,3.93-3.25l0.89-2.67c0.07-0.22,0.14-0.44,0.21-0.66
		l3.55-1.36c0.91,1.02,2.21,1.61,3.6,1.61c1.61,0,3.11-0.8,4.01-2.14l1.15-1.71c0.29-0.43,0.55-0.87,0.78-1.32l5.67-1.9
		c0.88,0.83,2.06,1.31,3.3,1.31c0,0,0,0,0,0c1.61,0,3.11-0.8,4.01-2.14c0,0,1.32-1.98,1.41-2.11l5.91-2.09l0.52,1.04
		c0.83,1.64,2.5,2.66,4.31,2.66c0.18,0,0.35-0.01,0.53-0.03c2-0.22,3.66-1.66,4.15-3.62c0,0,0.94-3.75,0.96-3.81l7.34-2.67
		c0.49,0.71,1.15,1.26,1.91,1.62v38.29c-2.17,22.14-10.53,70.83-97.33,89.57c-17.53,3.78-35.83,1.47-51.93-6.42v0
		c-21.99-10.78-36.9-32.72-37.32-57.21c-0.02-1.04-0.01-2.08,0.02-3.11c0.01-0.15,0.01-0.26,0.03-0.41c0.01-0.13,0-0.26,0-0.4
		l0.01-0.69c0.17-3.11,0.6-6.35,1.28-9.63c0.07-0.28,0.14-0.55,0.21-0.82c2.04-6.81,7.08-16.55,19.53-23.95
		c0.23-0.14,0.41-0.35,0.43-0.53c0.51-3.37-0.1-6.17-1.77-8.11c-1.32-1.54-3.26-2.42-5.3-2.42c-1.4,0-2.76,0.42-3.92,1.21
		c-1.23,0.83-2.42,1.71-3.56,2.6c-1,0.79-2.09,1.47-3.31,1.84c-5.35,1.64-10.66-1.01-12.62-5.77c-9.59-23.19-5.35-45.2,12.62-65.41
		c1.21-1.36,2.37-2.87,3.45-4.49c0.12-0.17,0.25-0.35,0.39-0.5c0.85-0.96,8.66-9.73,20.98-19.01c1.23-0.93,2.68-1.53,4.2-1.79
		c3.4-0.58,8.82-1.28,15.2-1.28c17.46,0,30.93,5.28,38.95,15.26c1.33,1.66,3.32,2.61,5.46,2.61c1.85,0,4.08-1.05,5.56-2.61
		c0.61-0.64,1.61-1.94,1.52-3.47c-0.28-4.9-4.39-8.92-8.79-12.53c-2.34-1.93-4.92-3.67-7.66-5.19l-0.04-0.02
		c-2.24-1.24-4.65-2.15-7.16-2.68l-14.18-3.03c-1.85-0.35-1.99-2.94-0.2-3.49l5.52-1.7c4.18-1.29,8.52-2.05,12.89-2.24
		c0.28-0.01,0.51-0.02,0.69-0.03c1.97-0.11,3.83-0.22,5.29-0.76c1.97-0.73,2.99-3.39,3.27-5.45c0.28-2.02-0.35-4.07-1.71-5.63
		c-1.36-1.55-3.29-2.45-5.3-2.45l-0.35,0.01c-18.98,1.21-37.89,8.09-56.19,20.45c-1.19,0.8-2.48,1.48-3.88,1.77
		c-4.86,1.01-9.46-1.35-11.49-5.61c-5.6-11.73-5.94-24.13-1.01-36.86c6.53-16.89,16.17-27.41,28.64-31.28
		c2.5-0.77,4.95-1.81,7.3-3.09c1.52-0.82,3.23-1.26,4.94-1.26c2.5,0,4.88,0.91,6.73,2.56c14.3,12.82,35.59,22.39,55.57,24.97
		c0.14,0.02,0.28,0.04,0.42,0.07c9.48,2.09,22.22,12.76,23.57,22.22c0.49,3.42,3.46,6.01,6.91,6.01c0.33,0,0.67-0.02,1-0.07
		c3.82-0.55,6.48-4.1,5.93-7.91c-0.63-4.37-2.06-8.55-4.27-12.43c-2.7-4.74-1.01-11.06,3.69-13.79c6.46-3.75,11.47-8.96,14.87-15.47
		c0.03-0.05,0.06-0.25-0.01-0.51c-1.33-4.74-4.56-7.43-8.51-7.02c-2.08,0.22-3.97,1.44-5.12,3.19
		c-5.38,8.19-14.79,12.37-27.99,12.43h-0.25c-18.91,0-42.1-9-56.4-21.89c-3.31-2.99-4.11-7.78-2.43-11.91
		c1.72-4.23,2.7-8.65,2.91-13.14c1-21.21,10.81-38.43,29.14-51.19c14.86-10.34,29.88-15.58,44.64-15.58
		c19.7,0,35.54,9.31,45.3,17.04c0.08,0.08,0.16,0.15,0.24,0.23c2.37,2.71,11.33,11.39,17.55,11.99c0.3,0.03,0.59,0.04,0.88,0.04
		c3.79,0,6.44-2.67,10.46-7.02c1.63-1.76,3.32-3.59,5.44-5.43c9.78-7.69,25.53-16.86,45.07-16.86c14.76,0,29.78,5.24,44.64,15.58
		c18.33,12.76,28.14,29.98,29.14,51.19c0.22,4.73,1.3,9.39,3.2,13.85c1.46,3.42,0.78,7.38-1.64,10.21
		c-7.68,8.96-24.53,24.16-50.51,24.16c-1.64,0-3.32-0.06-4.97-0.18c-0.17-0.01-0.34-0.02-0.51-0.02c-2.68,0-5.09,1.47-6.28,3.83
		c-1.41,2.8-0.84,6.17,1.61,9.48c0.14,0.19,0.34,0.29,0.46,0.3c3.34,0.39,6.58,0.58,9.9,0.58c27.88,0,47.06-14.19,58.23-26.1
		c1.93-2.06,4.65-3.24,7.47-3.24c1.69,0,3.38,0.42,4.89,1.23c2.26,1.21,4.62,2.2,7.02,2.94c12.47,3.87,22.11,14.39,28.65,31.28
		c4.93,12.73,4.58,25.13-1.01,36.86c-0.36,0.75-0.67,1.71-1.01,2.72c-0.72,2.16-1.53,4.62-3.25,6.76c-1.9,2.37-4.58,4.17-7.98,5.35
		c-2.91,1.01-5.77,1.41-8.53,1.8c-1.97,0.28-3.83,0.54-5.55,1c-8.1,2.2-15.31,5.57-21.41,10c-1.8,1.31-3.9,2-6.05,2
		c-0.42,0-0.85-0.03-1.28-0.08c-5.4-0.7-15.39-4.12-21.66-19.1c-0.11-0.26-0.3-0.46-0.47-0.51c-1.32-0.39-2.58-0.58-3.76-0.58
		c-3.95,0-5.87,2.14-6.65,3.41c-1.29,2.08-1.4,4.63-0.31,6.81c4.32,8.65,10.29,15.12,17.74,19.26c4.43,2.46,6.44,7.68,4.78,12.42
		c-1.08,3.08-1.88,6.33-2.38,9.67c-0.02,0.1,0.02,0.3,0.14,0.49c2.44,3.95,6.35,5.66,10.1,4.1c2.11-0.87,3.57-2.87,4.06-5.1
		c6.73-30.92,43.75-31.33,45.33-31.33c0.46,0,0.98-0.07,1.57-0.2c0.36-0.08,0.73-0.12,1.08-0.12c1.94,0,3.74,1.18,4.48,3.05
		c1.77,4.45,4.27,8.51,7.43,12.07c17.97,20.21,22.21,42.22,12.62,65.41c-1.96,4.74-7.24,7.38-12.57,5.77
		c-1.26-0.38-2.39-1.1-3.43-1.91c-2.03-1.59-4.22-3.1-6.52-4.5c-0.04-0.02-0.11-0.05-0.3-0.05c-0.07,0-0.15,0-0.25,0.01
		c-4.72,1.19-7.52,4.25-7.33,8.21c0.11,2.19,1.36,4.19,3.16,5.42c10.42,7.13,14.82,15.88,16.66,21.95c0.11,0.35,0.19,0.69,0.28,1.1
		c0.66,3.22,1.08,6.39,1.25,9.45c0.01,0.1,1,9.48,0.01,0.36c0-0.03-0.01-0.05-0.01-0.05C452.75,376.46,452.76,376.78,452.78,377.18
		 M452.78,377.18"/>
</g>
</svg>
