<svg id="Layer_1" data-name="Layer 1" xmlns="http://www.w3.org/2000/svg" viewBox="0 0 82 82"><defs><style>.cls-1{fill:#d2ed85;}.cls-2{fill:#263238;}</style></defs><g id="Page-1"><g id="_026---Mental-Relaxation" data-name="026---Mental-Relaxation"><path id="Path" class="cls-1" d="M58,56V79.18A2.85,2.85,0,0,1,55.12,82h0a3,3,0,0,1-2.17-1L44.84,72a2.87,2.87,0,0,0-2.11-.93H42.6A5.54,5.54,0,0,1,37,65.58V56Z" transform="translate(0)"/><path id="Path-2" data-name="Path" class="cls-1" d="M76.07,54.88h0A9.61,9.61,0,0,1,77,59c0,6.62-6.86,12-15.34,12A17.92,17.92,0,0,1,58,70.65,14.35,14.35,0,0,1,47,62.5L62.39,47Z" transform="translate(0)"/><path id="Path-3" data-name="Path" class="cls-1" d="M77.75,39.51a9.5,9.5,0,0,0-2.68-1.25,2.45,2.45,0,0,1,0-.27,11.92,11.92,0,0,0,.09-1.46A15,15,0,0,0,61,21.51a15,15,0,0,0-10.31-4.14,15.13,15.13,0,0,0-5.23,1l-.21.08a10.38,10.38,0,0,0-3.11-1.75h0a10.66,10.66,0,0,0-8.43.45,10,10,0,0,0-2.52,1.7A9.42,9.42,0,0,0,19.32,20.3a9,9,0,0,0-1.79,2.58c-.3,0-.6,0-.91,0a9.53,9.53,0,0,0-9.53,9.58c0,.11,0,.23,0,.34A9.58,9.58,0,0,0,4.39,45.58c0,.18,0,.35,0,.52A12.35,12.35,0,0,0,15.52,58.37c.36,0,.73.05,1.1.05a15.26,15.26,0,0,0,1.65-.12,12.2,12.2,0,0,0,21,5.7,12.57,12.57,0,0,0,1.65-2.24l.19.1A17.6,17.6,0,0,0,64,56a15.75,15.75,0,0,0,1.31-2.29A9.55,9.55,0,1,0,77.75,39.51Z" transform="translate(0)"/><path id="Path-4" data-name="Path" class="cls-1" d="M58.39,26a16.23,16.23,0,0,1,7.06,3.8,1.87,1.87,0,0,1,.38,2.12,17.79,17.79,0,0,1-9.64,9.54,9.46,9.46,0,0,1-2.92.53c-6.17.2-11.77-4.85-11.77-4.85s-5.6,5-11.78,4.85a9.45,9.45,0,0,1-2.91-.53,17.8,17.8,0,0,1-9.64-9.54,1.87,1.87,0,0,1,.38-2.12A16.23,16.23,0,0,1,24.61,26Z" transform="translate(0)"/><path id="Path-5" data-name="Path" class="cls-1" d="M49.91,14.65A18.63,18.63,0,0,1,60.52,11a1.4,1.4,0,0,1,1.32.9c.91,2.51,2.89,9.84-2.12,16.15C53.56,35.77,42,37,42,37s-11.56-1.23-17.72-8.95c-5-6.31-3-13.64-2.12-16.15a1.4,1.4,0,0,1,1.32-.9,18.63,18.63,0,0,1,10.61,3.65Z" transform="translate(0)"/><path id="Path-6" data-name="Path" class="cls-1" d="M50,20.18C50,30,41.5,38,41.5,38S33,30,33,20.18C33,12.52,38.15,6,40.43,3.47a1.45,1.45,0,0,1,2.14,0C44.85,6,50,12.52,50,20.18Z" transform="translate(0)"/><path id="Shape" class="cls-2" d="M75.15,36.3c0-.28,0-.54,0-.8A16.32,16.32,0,0,0,62.84,19.64a21.26,21.26,0,0,0-1.18-8.29,2.75,2.75,0,0,0-2.61-1.83h0a19.26,19.26,0,0,0-9.5,2.81A33.56,33.56,0,0,0,43.07.91a2.8,2.8,0,0,0-4.13,0c-2.26,2.61-7.5,9.6-7.5,17.86,0,6.75,3.44,12.58,6,16-3.64-1-9.13-3.16-12.63-7.65a14.22,14.22,0,0,1-2.89-9.83v-.05a19.43,19.43,0,0,1,1-5,16.12,16.12,0,0,1,4.08.62,1.33,1.33,0,0,0,1.34-.32,1.35,1.35,0,0,0,.38-1.33,1.37,1.37,0,0,0-1-1,19.42,19.42,0,0,0-4.79-.73,2.74,2.74,0,0,0-2.57,1.81,22,22,0,0,0-1.13,5.13,10.92,10.92,0,0,0-4.07,4H15A10.94,10.94,0,0,0,4.11,31.06,10.92,10.92,0,0,0,1.37,44.89v.19A13.68,13.68,0,0,0,15,58.75c.21,0,.42,0,.63,0a13.58,13.58,0,0,0,20.21,7.52,6.88,6.88,0,0,0,6.61,4.81,1.42,1.42,0,0,1,1,.46l7.91,9.08A4.26,4.26,0,0,0,54.59,82a4.18,4.18,0,0,0,4.18-4.18V72.31a17.49,17.49,0,0,0,2,.12c8.66,0,15.71-5.83,15.71-13a10.88,10.88,0,0,0-.5-3.26,10.93,10.93,0,0,0-.88-19.88ZM59.2,29a18,18,0,0,1,6,2.8A16.06,16.06,0,0,1,56,39.21a11.31,11.31,0,0,1-2.71.4,18.92,18.92,0,0,1-8.44-2.1C48.79,36.5,55,34.15,59.2,29Zm-.12-16.73A18,18,0,0,1,60,20.44s0,0,0,0v.08a13.69,13.69,0,0,1-2.77,6.53c-3.48,4.47-9,6.64-12.62,7.64,2.53-3.39,6-9.21,6-16a20.81,20.81,0,0,0-.34-3.61,16.7,16.7,0,0,1,8.85-2.91ZM41,2.68a29.55,29.55,0,0,1,6.41,12.19v0a18.67,18.67,0,0,1,.43,3.88c0,7.29-4.75,13.63-6.84,16.07-2.08-2.44-6.83-8.78-6.83-16.07S39,5.08,41,2.68ZM37.18,37.51a18.92,18.92,0,0,1-8.44,2.1,11.39,11.39,0,0,1-2.72-.4,16.09,16.09,0,0,1-9.24-7.42,17.65,17.65,0,0,1,6-2.81C27,34.15,33.21,36.5,37.18,37.51ZM54.57,79.27a1.56,1.56,0,0,1-1.09-.49l-7.9-9.06a4.23,4.23,0,0,0-3.21-1.4,4.1,4.1,0,0,1-4.09-4,13.6,13.6,0,0,0,1.61-1.86,19.17,19.17,0,0,0,6.31,1.64A14.85,14.85,0,0,0,56,71.78v6a1.47,1.47,0,0,1-.44,1,1.42,1.42,0,0,1-1,.43ZM73.8,59.44c0,5.65-5.82,10.25-13,10.25a15.09,15.09,0,0,1-3.15-.31,12.91,12.91,0,0,1-8.34-5.22A19.28,19.28,0,0,0,64.2,55a10.8,10.8,0,0,0,9.25,2.16A8,8,0,0,1,73.8,59.44Zm-2.73-4.79a8.4,8.4,0,0,1-7-4A1.38,1.38,0,0,0,62.83,50a1.36,1.36,0,0,0-1.19.73,1.34,1.34,0,0,0,.06,1.39,6.08,6.08,0,0,0,.55.78A16.35,16.35,0,0,1,37.37,57.7a1.38,1.38,0,0,0-2.23.82,1.36,1.36,0,0,0,.48,1.28,17.63,17.63,0,0,0,1.86,1.35A10.91,10.91,0,0,1,18,57h0a10.71,10.71,0,0,1-.23-3,1.37,1.37,0,1,0-2.73-.18,13.27,13.27,0,0,0,0,2.27H15A11,11,0,0,1,4.69,48.57a10.14,10.14,0,0,0,1.56.92,1.35,1.35,0,0,0,1.36-.11,1.33,1.33,0,0,0,.59-1.23A1.37,1.37,0,0,0,7.43,47,8.21,8.21,0,0,1,4,43.9s0,0,0,0a8.18,8.18,0,0,1,2.33-11h0a8.08,8.08,0,0,1,3.5-1.38,1.37,1.37,0,0,0-.39-2.71,11,11,0,0,0-2.27.6A8.18,8.18,0,0,1,15,23.2c.27,0,.53,0,.79,0a1.33,1.33,0,0,0,1.36-.78,8.25,8.25,0,0,1,2-2.62,16.53,16.53,0,0,0,2,6.75,21.5,21.5,0,0,0-6,3,2.73,2.73,0,0,0-.78,3.59,18.8,18.8,0,0,0,10.88,8.69,13.35,13.35,0,0,0,3.38.5h.4A23.6,23.6,0,0,0,41,38.51a23.67,23.67,0,0,0,11.94,3.83h.4a13.27,13.27,0,0,0,3.37-.5,18.8,18.8,0,0,0,10.88-8.69,2.72,2.72,0,0,0-.78-3.59,21.3,21.3,0,0,0-6-3,16.18,16.18,0,0,0,1.63-4.22,13.58,13.58,0,0,1,10,13.14,11.87,11.87,0,0,1-.1,1.58v.05a13.37,13.37,0,0,1-.83,3.35,1.37,1.37,0,1,0,2.55,1,15.72,15.72,0,0,0,.69-2.34,8.19,8.19,0,0,1-3.67,15.52Z" transform="translate(0)"/></g></g></svg>