<?xml version="1.0" encoding="utf-8"?>
<!-- Generator: Adobe Illustrator 26.0.2, SVG Export Plug-In . SVG Version: 6.00 Build 0)  -->
<svg version="1.1" id="Layer_1" xmlns="http://www.w3.org/2000/svg" xmlns:xlink="http://www.w3.org/1999/xlink" x="0px" y="0px"
	 viewBox="0 0 100 100" style="enable-background:new 0 0 100 100;" xml:space="preserve">
<style type="text/css">
	.st0{fill:#9BCA3E;}
	.st1{enable-background:new    ;}
	.st2{fill:#FFFFFF;}
</style>
<circle class="st0" cx="49.5" cy="49.5" r="40.5"/>
<g class="st1">
	<path class="st2" d="M60.6,64.4c0,1.8-0.9,2.8-2.7,2.8H41c-0.8,0-1.4-0.3-1.8-0.8c-0.4-0.5-0.7-1.2-0.7-2c0-1,0.3-2,1-2.8
		l10.2-12.7c1.3-1.6,2.2-3.1,2.7-4.4c0.6-1.3,0.9-2.7,0.9-4c0-1.6-0.4-2.9-1.2-3.7c-0.8-0.9-2-1.3-3.4-1.3c-1.2,0-2.4,0.3-3.6,0.8
		c-1.1,0.5-2.3,1.3-3.5,2.2c-0.3,0.2-0.6,0.4-0.9,0.6c-0.3,0.2-0.6,0.2-0.9,0.2c-0.5,0-0.9-0.3-1.3-0.8c-0.4-0.6-0.6-1.2-0.6-2
		c0-0.5,0.1-1,0.2-1.4c0.2-0.4,0.4-0.7,0.8-1.1c1.3-1.2,2.8-2.2,4.6-2.9c1.8-0.7,3.5-1.1,5.3-1.1c3.1,0,5.5,0.9,7.4,2.7
		C58.1,34.6,59,37,59,40c0,2.1-0.4,4.1-1.2,6c-0.8,1.9-2.1,3.9-3.9,6.2l-7.7,9.6h11.8C59.7,61.8,60.6,62.7,60.6,64.4z"/>
</g>
</svg>
