<svg id="Layer_1" data-name="Layer 1" xmlns="http://www.w3.org/2000/svg" viewBox="0 0 78 78"><defs><style>.cls-1{fill:#fff;}.cls-2{fill:#9bca3e;}.cls-3{fill:#151a6a;}</style></defs><circle class="cls-1" cx="39" cy="39" r="39"/><path class="cls-2" d="M75.83,47.47l-7.09-7.09a.79.79,0,0,0-.56-.23H48.48a2.36,2.36,0,0,0-2.36,2.36V72.45a2.36,2.36,0,0,0,2.36,2.36H73.7a2.36,2.36,0,0,0,2.36-2.36V48A.81.81,0,0,0,75.83,47.47Zm-24.2-2.6H63.45a.79.79,0,1,1,0,1.58H51.63a.79.79,0,0,1,0-1.58Zm0,4.73H63.45a.79.79,0,1,1,0,1.58H51.63a.79.79,0,0,1,0-1.58ZM70.54,70.09H51.63a.79.79,0,0,1,0-1.58H70.54a.79.79,0,0,1,0,1.58Zm0-4.73H51.63a.79.79,0,0,1,0-1.58H70.54a.79.79,0,0,1,0,1.58Zm0-4.73H51.63a.79.79,0,0,1,0-1.57H70.54a.79.79,0,1,1,0,1.57Zm0-4.73H51.63a.79.79,0,0,1,0-1.57H70.54a.79.79,0,1,1,0,1.57Zm-.78-8.66a.79.79,0,0,1-.79-.79V42.84l4.4,4.4Z" transform="translate(-10.66 -10.99)"/><path class="cls-3" d="M29.57,65.36H56.36A2.37,2.37,0,0,0,58.73,63V28.33A2.37,2.37,0,0,0,56.36,26H29.57a2.37,2.37,0,0,0-2.36,2.37V63A2.37,2.37,0,0,0,29.57,65.36Zm3.16-37.82h3.93v3.94a.8.8,0,0,0,.79.79h11a.79.79,0,0,0,.79-.79V27.54h3.94V59.06H32.73Zm5.51,0H47.7v3.15H38.24Zm-9.45.79a.78.78,0,0,1,.78-.79h1.58v32.3a.79.79,0,0,0,.79.79H54a.79.79,0,0,0,.79-.79V27.54h1.57a.79.79,0,0,1,.79.79V63a.79.79,0,0,1-.79.79H29.57a.78.78,0,0,1-.78-.79Z" transform="translate(-10.66 -10.99)"/><path class="cls-3" d="M35.09,37h4.73a.79.79,0,0,0,0-1.57H35.09a.79.79,0,1,0,0,1.57Z" transform="translate(-10.66 -10.99)"/><path class="cls-3" d="M46.91,37h.79v.79a.79.79,0,1,0,1.57,0V37h.79a.79.79,0,1,0,0-1.57h-.79v-.79a.79.79,0,1,0-1.57,0v.79h-.79a.79.79,0,1,0,0,1.57Z" transform="translate(-10.66 -10.99)"/><path class="cls-3" d="M50.85,40.15H35.09a.79.79,0,1,0,0,1.57H50.85a.79.79,0,0,0,0-1.57Z" transform="translate(-10.66 -10.99)"/><path class="cls-3" d="M50.85,44.87H35.09a.79.79,0,0,0,0,1.58H50.85a.79.79,0,0,0,0-1.58Z" transform="translate(-10.66 -10.99)"/><path class="cls-3" d="M50.85,49.6H35.09a.79.79,0,1,0,0,1.58H50.85a.79.79,0,0,0,0-1.58Z" transform="translate(-10.66 -10.99)"/><path class="cls-3" d="M43.76,54.33H35.09a.79.79,0,1,0,0,1.57h8.67a.79.79,0,0,0,0-1.57Z" transform="translate(-10.66 -10.99)"/><path class="cls-3" d="M62.9,60.4a.78.78,0,0,0,1.11,0L66.37,58a.79.79,0,0,0,.23-.56V37.78a2.36,2.36,0,0,0-2.36-2.36H62.66a2.36,2.36,0,0,0-2.36,2.36v19.7a.79.79,0,0,0,.23.56Zm.55-1.67-1.57-1.58V41.72H65V57.15ZM62.66,37h1.58a.79.79,0,0,1,.79.79v2.37H61.88V37.78A.79.79,0,0,1,62.66,37Z" transform="translate(-10.66 -10.99)"/></svg>