<?xml version="1.0" encoding="utf-8"?>
<!-- Generator: Adobe Illustrator 26.0.2, SVG Export Plug-In . SVG Version: 6.00 Build 0)  -->
<svg version="1.1" id="Layer_1" xmlns="http://www.w3.org/2000/svg" xmlns:xlink="http://www.w3.org/1999/xlink" x="0px" y="0px"
	 viewBox="0 0 500 500" style="enable-background:new 0 0 500 500;" xml:space="preserve">
<style type="text/css">
	.st0{fill:#FFFFFF;}
	.st1{fill:#7C7F7F;}
	.st2{fill:#63C3E1;}
	.st3{fill:#2692CF;}
	.st4{fill:#FB7056;}
	.st5{fill:#EBF5F7;}
	.st6{clip-path:url(#SVGID_00000003064023822780720450000000429519868740886454_);fill:#D2EEF1;}
	.st7{fill:#86D6E8;}
</style>
<g>
	<g>
		<g>
			<g>
				<path class="st0" d="M256.1,328.1c-2.3,2-4.5,4-6.7,6c-11.1,10.3-21.7,18.2-27.7,32.5c-1.2,2.9-2.2,6.1-1.1,9
					c2.1,5.7,10.3,6.6,16.6,5.6c6.3-1,13.4-2.8,18.6,0.7c3.9,2.6,5.4,7.4,5.6,11.9c0.3,4.5-0.4,9,0.4,13.4c0.8,4.4,3.5,9,8,10.3
					c6.1,1.8,13-2.9,17.1-6.8c22.8-21.6,45.7-43.5,62.8-69.4c15.6-23.8,24.6-52.1,44.4-73c-0.8,0.8-16-11.1-19.6-11.6
					c-9.3-1.3-15.7,5.5-22.7,10.5c-19.6,14.2-43.5,23.5-63.8,36.8c-6.3,4.1-12.4,8.4-18.3,13L256.1,328.1z"/>
				<path class="st1" d="M272.7,419.2c-1.1,0-2.2-0.1-3.2-0.4c-5.5-1.6-8.2-6.9-9-11.4c-0.5-2.8-0.4-5.6-0.4-8.4
					c0-1.7,0.1-3.5,0-5.2c-0.2-2.9-1.1-8.2-5-10.8c-4.1-2.8-9.8-1.8-15.4-0.8c-0.7,0.1-1.5,0.3-2.2,0.4c-6.9,1.1-15.7,0.1-18.2-6.5
					c-1.3-3.4-0.1-6.9,1.1-10c5.2-12.5,13.9-20.3,23.1-28.6c1.6-1.4,3.2-2.9,4.9-4.4c2.2-2,4.5-4.1,6.8-6c0.6-0.5,1.5-0.5,2,0.1
					c0.5,0.6,0.5,1.4-0.1,1.9c-2.2,1.9-4.5,4-6.7,6c-1.6,1.5-3.3,3-4.9,4.4c-9.4,8.4-17.5,15.7-22.4,27.6c-1.1,2.6-2,5.5-1.1,8.1
					c1.7,4.6,8.8,5.7,15,4.7c0.7-0.1,1.4-0.2,2.1-0.4c5.8-1,12.4-2.2,17.6,1.2c3.7,2.5,5.9,7,6.2,12.9c0.1,1.8,0.1,3.6,0,5.4
					c-0.1,2.7-0.1,5.3,0.3,7.9c0.6,3.5,2.8,8,7,9.2c6.3,1.8,13.6-4.5,15.6-6.4c22.4-21.3,45.6-43.3,62.6-69.2
					c5.9-9,10.9-18.8,15.8-28.3c7.7-15.1,15.8-30.6,27.4-43.4c-1.3-0.8-3.2-2-6-3.9c-3.9-2.6-9.8-6.6-11.4-6.9
					c-7-1-12.3,3.1-17.9,7.5c-1.2,0.9-2.4,1.9-3.6,2.8c-10.9,7.9-23.2,14.4-35.2,20.6c-9.7,5.1-19.6,10.3-28.7,16.2
					c-6.2,4.1-12.3,8.4-18.2,12.9c-0.6,0.5-1.5,0.4-2-0.2c-0.5-0.6-0.4-1.4,0.2-1.9c5.9-4.5,12.1-8.9,18.4-13
					c9.2-6,19.2-11.3,28.9-16.4c11.8-6.2,24.1-12.6,34.8-20.4c1.2-0.9,2.4-1.8,3.6-2.7c5.9-4.6,11.9-9.3,20.2-8.1
					c2.1,0.3,6.4,3.1,12.7,7.3c2.5,1.7,5.7,3.8,6.7,4.3c0.4,0,0.7,0.1,1,0.3c0.6,0.5,0.6,1.4,0.1,1.9C383.1,282,374.9,298,367,313.4
					c-4.9,9.6-10,19.4-16,28.5c-17.2,26.2-40.5,48.3-63,69.7C285.4,414.1,279.3,419.2,272.7,419.2z M393.1,267.4L393.1,267.4
					L393.1,267.4z"/>
			</g>
			<path class="st2" d="M383,240.9c7.7-2.5,16.8-1.5,21,4.2c3.4,4.6,3,11.4,0.4,17.2c-7.6,17-56,53.2-68,41.6
				C327.2,295.2,363.8,247.2,383,240.9z"/>
			<g>
				<path class="st1" d="M227.3,375c-0.2,0-0.4-0.1-0.5-0.2c-0.3-0.3-0.3-0.7,0-1c15.4-15.8,32.4-30.3,50.5-43.2
					c0.3-0.2,0.8-0.2,1.1,0.1c0.3,0.3,0.2,0.8-0.2,1c-18,12.9-35,27.4-50.3,43.1C227.7,375,227.5,375,227.3,375z"/>
			</g>
			<g>
				<path class="st1" d="M260.6,376.5c-0.2,0-0.4-0.1-0.5-0.2c-0.3-0.3-0.3-0.7,0-1l70.7-68.9c0.3-0.3,0.8-0.3,1.1,0
					c0.3,0.3,0.3,0.7,0,1l-70.7,68.9C261,376.4,260.8,376.5,260.6,376.5z"/>
			</g>
			<g>
				<path class="st1" d="M267.9,412.2c-0.2,0-0.4-0.1-0.5-0.2c-0.3-0.3-0.3-0.7,0-1c18-18.4,34.5-38.4,49.1-59.5
					c0.2-0.3,0.7-0.4,1.1-0.2c0.4,0.2,0.5,0.7,0.2,1c-14.6,21.1-31.1,41.1-49.2,59.6C268.3,412.2,268.1,412.2,267.9,412.2z"/>
			</g>
			<path class="st3" d="M384,245.4c4.2-0.4,9.7,1.4,13.1,5.3c2.7,3.2,3.5,7.1,2.8,10.1c-1.9,9-20.5,30.3-34.1,15.3
				C353.7,262.8,373.5,246.5,384,245.4z"/>
			<g>
				<path class="st0" d="M376.5,282.6c-2.5,0-4.9-0.6-6.9-1.7c-1.7-1-3.2-2.3-4.3-3.5c-1.2-1.2-2.5-2.7-3.3-4.4
					c-2-4.1-1.3-9.2,1.9-15.2c0.4-0.7,1.2-0.9,1.9-0.6c0.7,0.3,1,1.2,0.6,1.8c-2.8,5.3-3.5,9.6-1.9,12.9c0.7,1.4,1.8,2.7,2.8,3.7
					c1,1.1,2.3,2.2,3.7,3c4.6,2.6,10.7,1.1,14.3-1.8c0.6-0.5,1.5-0.4,2,0.2c0.5,0.6,0.4,1.4-0.2,1.9
					C384,281.3,380.2,282.6,376.5,282.6z"/>
			</g>
		</g>
		<g>
			<g>
				<path class="st0" d="M368.5,330.6c-7.5,14.1-13.8,28.8-18.7,43.8c-4.6,14-9.9,25.8-7.8,41.1c0.4,3.1,1.2,6.3,3.6,8.4
					c4.7,4,12.4,1.2,17.4-2.6c5-3.8,10.3-8.5,16.7-7.8c4.7,0.5,8.4,4.1,11,7.9c2.5,3.8,4.2,8.1,7.1,11.6c2.9,3.5,7.6,6.3,12.3,5.4
					c6.3-1.2,9.9-8.4,11.6-13.7c9-29.3,18.1-58.9,20-89.3c1.7-27.9-4.7-56.9,2.1-84.1c-0.3,1.1-19.7-2.5-23.1-1.3
					c-8.8,3-11,11.9-14.6,19.5C395.9,290.9,379.7,309.8,368.5,330.6z"/>
				<path class="st1" d="M408.2,440c-4.7,0-9-3-11.6-6.1c-1.9-2.2-3.2-4.8-4.6-7.2c-0.8-1.5-1.7-3.1-2.7-4.6
					c-1.6-2.5-5.1-6.7-9.9-7.2c-5-0.6-9.5,2.9-13.9,6.2c-0.6,0.4-1.1,0.9-1.7,1.3c-5.5,4.1-13.8,7.2-19.2,2.5
					c-2.8-2.4-3.6-6-4.1-9.3c-1.8-13.3,1.9-24.1,5.8-35.6c0.7-2,1.4-4,2-6.1c4.9-15.1,11.3-29.9,18.8-44.1l0,0
					c5-9.4,11.2-18.6,17.1-27.4c7.3-10.8,14.8-22,20.2-33.6c0.6-1.3,1.2-2.6,1.8-4c2.8-6.7,5.8-13.6,13.7-16.2
					c2-0.7,7.2-0.2,14.8,0.7c3.1,0.4,6.9,0.8,8,0.7c0.3-0.2,0.7-0.2,1.1-0.2c0.8,0.2,1.3,0.9,1.1,1.6c-4.2,16.7-3.3,34.5-2.5,51.6
					c0.5,10.6,1.1,21.6,0.4,32.3c-1.8,30.8-11.1,60.7-20,89.6c-1.2,3.9-4.8,13.1-12.7,14.6C409.6,439.9,408.9,440,408.2,440z
					 M378.4,412.1c0.5,0,0.9,0,1.4,0.1c4.5,0.5,8.7,3.5,12,8.5c1,1.5,1.9,3.2,2.8,4.7c1.3,2.4,2.6,4.7,4.3,6.8
					c2.3,2.8,6.5,5.8,10.8,4.9c6.5-1.3,9.7-10,10.5-12.7c8.9-28.8,18.1-58.6,19.9-89c0.6-10.5,0.1-21.4-0.4-32
					c-0.8-16.7-1.7-34,2.1-50.5c-1.6-0.1-3.9-0.3-7.3-0.7c-4.8-0.6-12-1.4-13.5-0.9c-6.7,2.3-9.2,8.3-12,14.7
					c-0.6,1.4-1.2,2.7-1.8,4.1c-5.6,11.9-13.1,23.1-20.4,34c-5.9,8.8-12,17.9-17,27.2l0,0c-7.5,14-13.7,28.7-18.6,43.6
					c-0.7,2.1-1.4,4.1-2.1,6.1c-4,11.6-7.4,21.7-5.7,34.4c0.4,2.7,1,5.8,3.1,7.6c3.9,3.3,10.6,1,15.5-2.7c0.6-0.4,1.1-0.8,1.7-1.3
					C368,415.8,372.8,412.1,378.4,412.1z M442.2,251L442.2,251L442.2,251z M442.2,251L442.2,251L442.2,251z"/>
			</g>
			<path class="st2" d="M420,232.4c5.5-5.7,14-8.9,20.6-5.7c5.3,2.5,8.4,8.6,9,14.9c2,18.4-22.3,72-38.6,67.2
				C398.4,305.2,406.3,246.6,420,232.4z"/>
			<g>
				<path class="st1" d="M350.7,420.5c-0.1,0-0.1,0-0.2,0c-0.4-0.1-0.7-0.5-0.6-0.9c5.5-20.8,13.1-41.2,22.5-60.8
					c0.2-0.4,0.6-0.5,1-0.4c0.4,0.2,0.6,0.6,0.4,1c-9.3,19.4-16.9,39.8-22.4,60.5C351.4,420.3,351.1,420.5,350.7,420.5z"/>
			</g>
			<g>
				<path class="st1" d="M380.7,406.8c-0.1,0-0.1,0-0.2,0c-0.4-0.1-0.6-0.5-0.5-0.9l27.3-92.4c0.1-0.4,0.5-0.6,0.9-0.5
					c0.4,0.1,0.6,0.5,0.5,0.9l-27.3,92.4C381.4,406.6,381.1,406.8,380.7,406.8z"/>
			</g>
			<g>
				<path class="st1" d="M405.3,434.9c-0.1,0-0.1,0-0.2,0c-0.4-0.1-0.7-0.5-0.6-0.9c6.5-24.3,10.9-49.3,13-74.4
					c0-0.4,0.4-0.7,0.8-0.7c0.4,0,0.7,0.4,0.7,0.8c-2.1,25.1-6.5,50.2-13,74.6C405.9,434.6,405.6,434.9,405.3,434.9z"/>
			</g>
			<path class="st3" d="M423,235.8c3.5-2.3,9.2-3.2,14.2-1.3c4,1.6,6.6,4.6,7.6,7.6c2.8,8.7-2.7,35.9-22.2,28.8
				C405.3,264.8,414.4,241.5,423,235.8z"/>
			<g>
				<path class="st0" d="M428.9,273.6c-0.2,0-0.4,0-0.5,0c-2-0.1-4-0.6-5.6-1.2c-1.6-0.5-3.5-1.2-5.2-2.4c-3.8-2.7-5.8-7.5-6-14.3
					c0-0.8,0.6-1.4,1.4-1.4c0.8,0,1.5,0.6,1.5,1.3c0.2,5.9,1.8,10,4.9,12.2c1.3,0.9,3,1.5,4.4,2c1.4,0.5,3.1,0.9,4.8,1
					c5.4,0.2,9.9-3.9,11.7-8c0.3-0.7,1.1-1,1.9-0.8c0.7,0.3,1.1,1.1,0.8,1.8C440.4,269.6,434.7,273.6,428.9,273.6z"/>
			</g>
		</g>
	</g>
	<g>
		<g>
			<g>
				<path class="st3" d="M196.7,335.3c-3.3,1-6.8,1.6-10.3,2c-17.1,1.9-31.7-2.7-45.5-12.1c-16.6-11.3-22.1-32-27.3-49.8
					C104.7,245,95.9,214.5,87,184c-6.9-24.8-14.2-49-22.8-73.5c-2.8-8.1-19.1-44.4-3.4-48.3c10.1-2.5,11.7,18,13.6,24.2
					c3.6,11.7,7.1,23.5,10.7,35.2c7.1,23.5,14.2,47,21.3,70.5c3,9.8,5.9,19.6,8.2,29.5c2,8.8,3.3,17.7,5.5,26.4
					c5.5,22.2,12,49,31.7,64c18.1,13.7,43.6,13.8,61.5-0.5c7.3-5.8,12.2-15.1,10.5-24.3c-0.7-3.8,2-7.6,6.1-8.2
					c16.5-2.9,6.4,27.1,2.2,32.4c-3.7,4.7-8.7,8.3-13.7,11.8c-6.3,4.5-12.8,9.1-20.3,11.6C197.6,335,197.1,335.1,196.7,335.3z"/>
			</g>
			<g>
				<g>
					<path class="st0" d="M231.8,289.9c-1.5,0.4-3,0.6-4.6,0.8c-4.7,0.5-8.6-0.2-11.8-1.9c-4-2.2-6.9-6.4-7.6-11.1
						c-0.5-3.4,2-6.6,5.6-7c3.6-0.5,6.9,1.9,7.5,5.3c0.2,1,0.8,2,1.1,2.1c0.4,0.2,1.4,0.6,3.9,0.3c2.6-0.3,4.7-0.9,6-1.9
						c1-0.8,1.7-1.9,1.6-2.7c-0.5-3.4,2.1-6.5,5.7-7c3.6-0.5,6.9,1.9,7.4,5.3c0.7,5.1-1.7,10.5-6.4,14.1
						C237.8,287.8,235,289.1,231.8,289.9z"/>
					<path class="st4" d="M224.3,291.7c-3.6,0-6.7-0.7-9.4-2.2c-4.2-2.3-7.3-6.8-8-11.7c-0.3-1.9,0.2-3.8,1.4-5.3
						c1.2-1.5,3-2.5,4.9-2.8c2-0.3,4,0.2,5.6,1.3c1.6,1.1,2.7,2.8,2.9,4.7c0.1,0.7,0.6,1.4,0.7,1.5c0.1,0,0.9,0.4,3.2,0.2
						c2.4-0.2,4.3-0.8,5.5-1.7c0.9-0.7,1.3-1.5,1.2-1.9c-0.3-1.9,0.3-3.7,1.5-5.3c1.2-1.5,3-2.5,5-2.7c4.1-0.5,7.9,2.2,8.4,6.1
						c0.8,5.5-1.8,11.1-6.7,14.9c-2.4,1.8-5.3,3.1-8.6,4h0c-1.5,0.4-3.1,0.6-4.7,0.8C226.3,291.6,225.3,291.7,224.3,291.7z
						 M214.3,271.4c-0.3,0-0.6,0-0.8,0.1c-1.5,0.2-2.8,0.9-3.7,2.1c-0.9,1.1-1.3,2.5-1.1,4c0.7,4.4,3.4,8.4,7.1,10.5
						c3.1,1.7,6.7,2.2,11.3,1.8c1.5-0.2,3.1-0.4,4.5-0.8l0,0c3-0.8,5.7-2,7.9-3.6c4.4-3.3,6.7-8.4,6.1-13.2c-0.4-2.9-3.3-5-6.3-4.6
						c-1.5,0.2-2.8,0.9-3.7,2c-0.9,1.1-1.3,2.5-1.1,3.9c0.2,1.1-0.6,2.6-1.9,3.5c-1.5,1.1-3.7,1.8-6.5,2.1c-2.6,0.3-3.8-0.1-4.4-0.4
						c-0.6-0.4-1.4-1.6-1.6-2.8c-0.2-1.4-1-2.7-2.2-3.5C216.7,271.8,215.5,271.4,214.3,271.4z"/>
				</g>
			</g>
		</g>
		<path class="st4" d="M130,247l-24.3,6.1c-2.7,0.7-5.5-0.9-6.2-3.4l-2.2-7.9c-0.7-2.6,0.9-5.2,3.6-5.9l24.3-6.1L130,247z"/>
		<g>
			<path class="st0" d="M63.3,97.3c-1.5,0-2.9-0.1-4.4-0.4c-1-0.2-1.7-1.2-1.4-2.1c0.2-1,1.2-1.6,2.2-1.4c4.9,1,10.2-0.1,14.2-3
				c0.8-0.6,2-0.4,2.6,0.3c0.6,0.8,0.5,1.9-0.4,2.5C72.6,95.9,68,97.3,63.3,97.3z"/>
		</g>
		<g>
			<path class="st0" d="M65.6,104.2c-1.5,0-3-0.2-4.4-0.5c-1-0.2-1.6-1.2-1.4-2.1c0.2-0.9,1.2-1.5,2.2-1.3c4.7,1,9.8,0,13.7-2.9
				c0.8-0.6,2-0.5,2.6,0.3c0.6,0.8,0.5,1.9-0.3,2.4C74.4,102.8,70,104.2,65.6,104.2z"/>
		</g>
		<g>
			<path class="st0" d="M167.8,336.8c-0.4,0-0.8-0.1-1.1-0.3c-0.8-0.6-1-1.7-0.4-2.4c2.2-2.9,3.4-6.6,3.2-10.2
				c-0.1-1,0.7-1.8,1.7-1.8c1,0,1.9,0.7,2,1.6c0.3,4.4-1.1,8.9-3.9,12.5C169,336.5,168.4,336.8,167.8,336.8z"/>
		</g>
		<g>
			<path class="st0" d="M176.9,338.5c-0.3,0-0.6-0.1-0.9-0.2c-0.9-0.5-1.2-1.6-0.7-2.4c1.8-2.9,2.4-6.5,1.6-9.8
				c-0.2-0.9,0.4-1.9,1.4-2.1c1-0.2,2,0.4,2.2,1.3c1,4.1,0.2,8.6-2,12.3C178.2,338.2,177.5,338.5,176.9,338.5z"/>
		</g>
		<g>
			<path class="st0" d="M184.9,337.4c-0.2,0-0.4,0-0.6-0.1c-1-0.3-1.5-1.3-1.1-2.2c1.2-3,1.1-6.5-0.2-9.5c-0.4-0.9,0.1-1.9,1-2.3
				c0.9-0.4,2,0.1,2.4,1c1.6,3.8,1.7,8.2,0.2,12C186.3,337,185.6,337.4,184.9,337.4z"/>
		</g>
		<g>
			<path class="st0" d="M192,336.3c-0.2,0-0.3,0-0.5-0.1c-1-0.3-1.6-1.2-1.3-2.2c0.8-2.6,0.8-5.5-0.1-8.1c-0.3-0.9,0.3-1.9,1.2-2.2
				c1-0.3,2,0.2,2.3,1.2c1,3.2,1.1,6.8,0.1,10.1C193.5,335.8,192.8,336.3,192,336.3z"/>
		</g>
		<g>
			<g>
				<g>
					<path class="st0" d="M231.1,173.1l21.9-5.5c5.4-1.3,11.1-0.6,15.8,2.2c5.8,3.5,10.9,8.7,13.1,11.6
						c10.8,14.1,17.9,45.6-1.5,56.7c-5.8,3.3-11.4,4.6-18.2,4.9c-5,0.2-11.5-0.4-16.4-1.5c-3.8-0.8-7.3-2.5-10.8-4.1
						c-11.1-5.1-21.2-13-31.1-1.8c-10.2,11.7-14.6,25.4-30.8,31.6c-11.7,4.5-26.2,3-35.4-5.1c-3.5-3.1-6.2-7-8.3-11.1
						c-8.2-15.9-7.3-32.9,1.5-47.5c2.4-4,6.4-6.8,11.1-8l70.4-17.7L231.1,173.1z"/>
					<path class="st1" d="M159.5,270.9c-8.5,0-16.7-2.7-22.6-7.9c-3.3-2.9-6.1-6.6-8.5-11.4c-8.2-16-7.7-33.3,1.5-48.5
						c2.5-4.2,6.8-7.3,11.8-8.5l70.4-17.7c0.6-0.2,1.3,0.2,1.5,0.8c0.2,0.6-0.2,1.2-0.9,1.4l-70.4,17.7c-4.4,1.1-8.1,3.8-10.3,7.5
						c-8.8,14.6-9.3,31.1-1.4,46.4c2.4,4.6,5,8.1,8,10.8c8.5,7.5,22.2,9.5,34.1,4.9c11-4.2,16.4-12,22.1-20.3
						c2.5-3.6,5.1-7.3,8.2-10.9c9.1-10.3,18.6-5.5,27.8-0.9c1.6,0.8,3.2,1.6,4.8,2.4c3.4,1.6,6.9,3.2,10.5,4
						c4.9,1.1,11.3,1.7,16,1.4c7.1-0.4,12.4-1.8,17.6-4.8c5.7-3.2,9.3-8.4,10.8-15.5c3-13.6-2.8-30.5-9.7-39.5
						c-1.8-2.4-6.8-7.7-12.7-11.3c-4.3-2.6-9.7-3.3-14.9-2l-21.9,5.5c-0.6,0.2-1.3-0.2-1.5-0.8c-0.2-0.6,0.2-1.2,0.9-1.4l21.9-5.5
						c5.8-1.5,11.9-0.6,16.8,2.3c6.2,3.7,11.4,9.2,13.4,11.9c7.2,9.4,13.2,27.1,10.1,41.3c-1.7,7.7-5.7,13.4-12,17
						c-5.6,3.2-11.2,4.7-18.7,5.1c-5,0.3-11.5-0.3-16.7-1.5c-3.9-0.9-7.5-2.5-11-4.2c-1.6-0.8-3.3-1.6-4.9-2.4
						c-9.1-4.6-16.9-8.6-24.8,0.3c-3,3.4-5.6,7.1-8,10.7c-5.9,8.6-11.5,16.7-23.2,21.2C169,270,164.2,270.9,159.5,270.9z"/>
				</g>
				<g>
					<path class="st5" d="M137,205.8c2.6-4.1,6.9-7.1,11.9-8.4l101.9-25.4c4.9-1.2,10.2-0.3,14.4,2.5c4.1,2.8,7.6,6.5,9.4,8.6
						c7.8,9.5,13.3,22.8,10.2,34.8c-2.4,9.2-10.2,17.4-20.1,19.1c-5.1,0.9-10.3,0.2-15.4-0.7c-10.4-1.7-19.7-7.4-28.5-12.3
						c-2.1-1.2-4.4-2-6.8-2.2c-11.2-1-14.7,9.5-19.1,16.3c-4.4,6.9-9.7,13.4-16.1,18.7c-8.5,7.1-19,9.5-29.5,4.4
						c-6.7-3.2-11.9-8.9-15.1-15.4c-3.1-6.5-4.2-13.7-3.9-20.8C130.7,218.4,133.2,211.7,137,205.8z"/>
					<path class="st1" d="M160.7,265.2c-4,0-8-0.9-11.9-2.8c-6.7-3.2-12.2-8.9-15.6-15.9c-3-6.3-4.3-13.4-4-21.4
						c0.3-6.5,2.6-13.4,6.8-19.9l0,0c2.8-4.4,7.3-7.6,12.6-8.9L250.4,171c5.3-1.3,10.9-0.4,15.4,2.6c4.9,3.3,8.6,7.6,9.6,8.8
						c9.4,11.4,13.3,24.7,10.4,35.8c-2.6,10.2-11.1,18.2-21,20c-5.2,0.9-10.4,0.2-15.8-0.7c-9.5-1.6-18-6.3-26.2-10.9l-2.7-1.5
						c-2.1-1.2-4.2-1.8-6.3-2c-8.5-0.8-12.2,5.7-15.7,12c-0.7,1.3-1.5,2.6-2.2,3.8c-5,7.8-10.3,14-16.3,19
						C173.7,262.7,167.2,265.2,160.7,265.2z M138,206.4c-3.9,6.2-6.2,12.7-6.5,18.8c-0.3,7.6,0.9,14.4,3.8,20.3
						c3.2,6.6,8.3,11.9,14.5,14.8c9.4,4.5,19.4,3,28.2-4.3c5.7-4.8,11.1-11,15.8-18.5c0.7-1.1,1.4-2.4,2.1-3.7
						c3.5-6.3,7.9-14.1,18.1-13.2c2.5,0.2,4.9,1,7.3,2.3l2.7,1.5c8,4.5,16.2,9.2,25.3,10.6c5.1,0.8,10.1,1.5,14.9,0.7
						c9-1.6,16.7-9,19.1-18.3c2.7-10.4-1-23.1-10-33.9c-1-1.2-4.5-5.3-9.1-8.4c-3.9-2.6-8.7-3.4-13.4-2.3l-101.9,25.4
						C144.5,199.8,140.5,202.5,138,206.4L138,206.4z"/>
				</g>
				<g>
					<defs>
						<path id="SVGID_1_" d="M160.7,265.2c-4,0-8-0.9-11.9-2.8c-6.7-3.2-12.2-8.9-15.6-15.9c-3-6.3-4.3-13.4-4-21.4
							c0.3-6.5,2.6-13.4,6.8-19.9l0,0c2.8-4.4,7.3-7.6,12.6-8.9L250.4,171c5.3-1.3,10.9-0.4,15.4,2.6c4.9,3.3,8.6,7.6,9.6,8.8
							c9.4,11.4,13.3,24.7,10.4,35.8c-2.6,10.2-11.1,18.2-21,20c-5.2,0.9-10.4,0.2-15.8-0.7c-9.5-1.6-18-6.3-26.2-10.9l-2.7-1.5
							c-2.1-1.2-4.2-1.8-6.3-2c-8.5-0.8-12.2,5.7-15.7,12c-0.7,1.3-1.5,2.6-2.2,3.8c-5,7.8-10.3,14-16.3,19
							C173.7,262.7,167.2,265.2,160.7,265.2z M138,206.4c-3.9,6.2-6.2,12.7-6.5,18.8c-0.3,7.6,0.9,14.4,3.8,20.3
							c3.2,6.6,8.3,11.9,14.5,14.8c9.4,4.5,19.4,3,28.2-4.3c5.7-4.8,11.1-11,15.8-18.5c0.7-1.1,1.4-2.4,2.1-3.7
							c3.5-6.3,7.9-14.1,18.1-13.2c2.5,0.2,4.9,1,7.3,2.3l2.7,1.5c8,4.5,16.2,9.2,25.3,10.6c5.1,0.8,10.1,1.5,14.9,0.7
							c9-1.6,16.7-9,19.1-18.3c2.7-10.4-1-23.1-10-33.9c-1-1.2-4.5-5.3-9.1-8.4c-3.9-2.6-8.7-3.4-13.4-2.3l-101.9,25.4
							C144.5,199.8,140.5,202.5,138,206.4L138,206.4z"/>
					</defs>
					<use xlink:href="#SVGID_1_"  style="overflow:visible;fill:#7C7F7F;"/>
					<clipPath id="SVGID_00000116937162947406584940000004183764934154334849_">
						<use xlink:href="#SVGID_1_"  style="overflow:visible;"/>
					</clipPath>
					<path style="clip-path:url(#SVGID_00000116937162947406584940000004183764934154334849_);fill:#D2EEF1;" d="M174.4,185.5
						l-42.1,70.6c3.5,4.7,8,8.6,13.4,11.2c1.8,0.9,3.6,1.5,5.3,2l53-91.2L174.4,185.5z"/>
				</g>
			</g>
			<g>
				<path class="st7" d="M146.7,234.8c-0.2,0-0.4,0-0.6-0.1c-0.6-0.3-0.8-1-0.5-1.6l18.9-31.8c0.3-0.5,1.1-0.7,1.6-0.4
					c0.6,0.3,0.8,1,0.5,1.6l-18.9,31.8C147.5,234.6,147.1,234.8,146.7,234.8z"/>
			</g>
			<g>
				<path class="st7" d="M165.7,214.2c-0.2,0-0.4,0-0.6-0.1c-0.6-0.3-0.8-1-0.5-1.5l7.1-12.9c0.3-0.6,1-0.8,1.6-0.5
					c0.6,0.3,0.8,1,0.5,1.5l-7.1,12.9C166.5,213.9,166.1,214.2,165.7,214.2z"/>
			</g>
		</g>
	</g>
</g>
</svg>
