<?xml version="1.0" encoding="utf-8"?>
<!-- Generator: Adobe Illustrator 26.0.2, SVG Export Plug-In . SVG Version: 6.00 Build 0)  -->
<svg version="1.1" id="Layer_1" xmlns="http://www.w3.org/2000/svg" xmlns:xlink="http://www.w3.org/1999/xlink" x="0px" y="0px"
	 viewBox="0 0 500 500" style="enable-background:new 0 0 500 500;" xml:space="preserve">
<style type="text/css">
	.st0{fill:#FFFFFF;}
	.st1{fill:#7C7F7F;}
	.st2{fill:#61C4E2;}
	.st3{fill:#F4C843;}
	.st4{fill:#67C3E2;}
	.st5{fill:#5B5C5C;}
	.st6{fill:#2B3C50;}
</style>
<g>
	<g>
		<g>
			<path class="st0" d="M336.3,139.8c0.7-2.4,1.5-4.7,2.4-7c9.1-24,33.4-41.1,56.8-39.9c23.4,1.2,44,20.5,48.2,45.1
				c4.5,27-9.2,55.2-26.6,76.8c-17.4,21.6-38.8,39.4-55.2,61.9c-7.8,10.7-14.4,22.4-23.6,31.7c-14,14.3-29.6,20.1-46,7.5
				c-9.8-7.5-15.5-20.3-15.7-33.6c-0.5-30.6,27.3-49.9,40.2-74.9c6-11.7,9.2-23.8,11.9-36L336.3,139.8z"/>
			<path class="st1" d="M310.7,324.7c-6.6,0-13.1-2.4-19.4-7.3c-10.1-7.7-16.2-20.8-16.4-35c-0.3-20.7,11.9-36.4,23.8-51.6
				c6-7.7,12.3-15.7,16.6-24.1c6.2-12,9.3-24.7,11.7-35.6c0.2-1,1.2-1.6,2.2-1.4c1,0.2,1.6,1.2,1.4,2.2c-2.5,11.1-5.6,24-12,36.4
				c-4.5,8.7-10.9,16.9-17,24.7c-12,15.4-23.3,29.9-23,49.3c0.2,13.1,5.8,25.1,15,32.2c13.9,10.7,28.2,8.3,43.6-7.3
				c6.2-6.3,11.4-14,16.4-21.4c2.2-3.3,4.6-6.8,7-10.1c9.2-12.6,20-23.8,30.5-34.7c8.4-8.7,17.1-17.7,24.8-27.3
				c12-14.9,31.4-44.6,26.2-75.4c-4-23.7-24-42.5-46.4-43.6c-22.6-1.1-46.2,15.5-55,38.7c-0.8,2.2-1.6,4.5-2.4,6.9
				c-0.3,1-1.3,1.5-2.3,1.2c-1-0.3-1.5-1.3-1.2-2.3c0.8-2.5,1.6-4.8,2.5-7.1c9.3-24.6,34.5-42.3,58.6-41.1
				c24.2,1.2,45.6,21.3,49.9,46.7c5.4,32.2-14.6,62.9-26.9,78.3c-7.8,9.7-16.6,18.8-25,27.5c-10.4,10.8-21.2,21.9-30.2,34.3
				c-2.4,3.3-4.7,6.7-6.9,10c-5.1,7.5-10.4,15.4-16.8,21.9C329.8,319.7,320.1,324.7,310.7,324.7z"/>
		</g>
		<path class="st2" d="M346.6,137.3c9.4-24.4,33.3-42.2,55.8-41.7c22.5,0.5,41.9,19.3,45.3,44c3.7,27-10.3,55.7-27.7,77.9
			s-38.5,40.6-54.9,63.7c-7.8,10.9-14.5,22.9-23.6,32.5c-13.9,14.7-29,21.1-44.6,8.8c-9.2-7.3-14.4-20-14.3-33.3
			c0.3-30.7,27.6-50.8,40.8-76.4C336.1,188.4,336.9,162.4,346.6,137.3z"/>
		<g>
			<path class="st3" d="M423.2,204.3c-1.8,0-3.5-0.9-4.5-2.6c-11.2-19.2-16-41.9-14-64c-14.3,15.9-33.4,27.3-54.3,31.6
				c-2.8,0.6-5.5-1.2-6.1-4c-0.6-2.8,1.2-5.5,4-6.1c26.4-5.5,49.6-23.5,62.2-48c1.2-2.4,4.1-3.5,6.6-2.4c2.5,1.1,3.7,3.9,2.8,6.4
				c-9.3,26.6-6.5,57,7.6,81.3c1.4,2.5,0.6,5.6-1.9,7C425,204.1,424.1,204.3,423.2,204.3z"/>
		</g>
	</g>
	<g>
		<g>
			<path class="st0" d="M198.2,207.7c-2.8,8.4-5.6,16.8-7,25.5c-3.1,19.9,1.1,35.9,19.8,41.6c11.1,3.4,24.1,0.3,34.3-7.5
				c23.5-17.9,22.8-51.9,34.7-77.4c11.5-24.5,31-40.1,44.7-62.5c13.2-21.7,12.8-51.6-1.1-69.8c-13.9-18.2-40-23.2-61.1-11.8
				c-23.1,12.5-36.9,40.5-43.7,67.5c-4.7,18.5-6.9,37.3-10.4,56L198.2,207.7z"/>
			<path class="st1" d="M220.5,278c-3.4,0-6.8-0.5-10-1.5c-17.6-5.3-24.7-20-21.1-43.6c1.3-8.5,3.9-16.3,7-25.8
				c0.3-0.9,1.3-1.5,2.3-1.1c0.9,0.3,1.5,1.3,1.1,2.3c-3.1,9.3-5.6,17-6.9,25.2c-3.4,21.9,2.7,34.8,18.5,39.6
				c10.4,3.2,22.6,0.5,32.7-7.2c15-11.4,19.7-29.3,24.8-48.2c2.6-9.7,5.2-19.6,9.4-28.5c6.7-14.3,16.1-25.7,25.3-36.7
				c6.7-8.1,13.7-16.5,19.5-26c12.8-21.1,12.4-50.2-1-67.7c-13.3-17.4-38.5-22.3-58.8-11.3c-26.3,14.3-38.1,47.7-42.8,66.4
				c-3,12-5.1,24.4-7,36.4c-1,6.4-2.1,13-3.4,19.5c-0.2,1-1.1,1.6-2.1,1.4c-1-0.2-1.6-1.1-1.4-2.1c1.2-6.4,2.3-13,3.3-19.4
				c2-12.1,4-24.6,7.1-36.7c4.9-19.2,17.1-53.7,44.6-68.7c21.8-11.8,49-6.6,63.4,12.3c14.2,18.7,14.8,49.5,1.2,71.8
				c-5.9,9.7-13,18.2-19.8,26.4c-9,10.9-18.3,22.1-24.8,35.9c-4,8.6-6.6,18.4-9.2,27.9c-5,18.7-10.1,38-26.1,50.2
				C238.5,274.8,229.3,278,220.5,278z"/>
		</g>
		<path class="st2" d="M333.6,130.6c13.5-22.2,13.3-52.6-0.5-71c-13.8-18.4-40-23.3-61.2-11.4c-23.3,13-37.4,41.6-44.5,69.1
			s-9,56-17.3,83.3c-3.9,12.9-9.3,25.6-11.4,38.8c-3.3,20.3,0.8,36.6,19.5,42.2c11.1,3.3,24.2,0.1,34.5-7.9
			c23.8-18.5,23.4-53.1,35.5-79.1C299.9,169.6,319.7,153.5,333.6,130.6z"/>
		<g>
			<path class="st3" d="M310.9,149.4c-2,0-3.8-1.1-4.7-3c-9-19.9-11.4-42.4-7.4-63.8c-16.2,14.7-36.7,24.2-58.4,26.3
				c-2.8,0.3-5.3-1.8-5.6-4.6c-0.3-2.8,1.8-5.4,4.6-5.6c27.3-2.7,52.6-18.3,67.8-41.8c1.5-2.3,4.5-3,6.8-1.7
				c2.4,1.3,3.3,4.2,2.2,6.7c-11.8,25-12,55.1-0.6,80.3c1.2,2.6,0,5.6-2.6,6.8C312.3,149.3,311.6,149.4,310.9,149.4z"/>
		</g>
	</g>
</g>
<g>
	<g>
		<path class="st4" d="M68.7,412.6c-0.6,0.2-1.2,0.2-1.8,0.1c-1.9-0.4-3.1-2.4-2.7-4.3l18.6-80.7c1.1-7.1,7.9-19.9,25.8-18.8
			c18,1.1,23.2,15.4,23.4,22.8c0.1,2-1.5,3.6-3.4,3.7c-2,0.1-3.6-1.5-3.7-3.4c-0.1-1.5-1.1-15-16.7-16c-16.1-1-18.3,12.3-18.4,12.9
			c0,0.1,0,0.2-0.1,0.3L71.1,410C70.8,411.3,69.9,412.3,68.7,412.6z"/>
	</g>
	<g>
		<path class="st4" d="M264.2,353.1c-1.2,0.4-2.5,0.1-3.5-0.8l-60.5-56.7c-0.1-0.1-0.1-0.1-0.2-0.2c-1-1-10-10-22.4-0.5
			c-12.5,9.5-5.8,21.3-5,22.6c1,1.7,0.5,3.9-1.2,4.9c-1.7,1-3.8,0.5-4.9-1.1c-3.9-6.3-7.6-21.1,6.7-32c14.2-10.8,27-4,31.9,1.3
			l60.4,56.6c1.4,1.3,1.5,3.6,0.2,5C265.3,352.6,264.7,353,264.2,353.1z"/>
	</g>
	<g>
		<circle class="st0" cx="112" cy="405.8" r="43.2"/>
		<path class="st1" d="M111.9,451c-7.3,0-14.6-1.8-21.2-5.3C80.1,440,72.3,430.5,68.8,419c-7.2-23.8,6.2-49.1,30-56.3
			c23.8-7.2,49.1,6.2,56.3,30l0,0c7.2,23.8-6.2,49.1-30,56.3C120.8,450.3,116.3,451,111.9,451z M112,364.5c-4,0-8,0.6-12,1.8
			c-21.8,6.6-34.1,29.8-27.5,51.6c3.2,10.6,10.3,19.2,20.1,24.4c9.7,5.2,20.9,6.3,31.5,3.1c21.8-6.6,34.1-29.8,27.5-51.6l0,0
			C146.1,376,129.7,364.5,112,364.5z"/>
	</g>
	<g>
		<path class="st0" d="M255.7,402.1c-4.8,4.8-10.8,8.5-17.8,10.6c-22.8,7-47-5.9-53.9-28.8c-7-22.8,5.9-47,28.8-53.9
			s47,5.9,53.9,28.8c2.4,8,2.4,16.1,0.5,23.5L255.7,402.1z"/>
		<path class="st1" d="M225.4,416.5c-19.4,0-37.3-12.6-43.2-32c-3.5-11.5-2.3-23.7,3.4-34.4c5.7-10.6,15.1-18.4,26.7-21.9
			c11.5-3.5,23.7-2.3,34.4,3.4c10.6,5.7,18.4,15.2,21.9,26.7c2.4,8,2.6,16.5,0.5,24.6c-0.3,1-1.3,1.6-2.3,1.4
			c-1-0.3-1.6-1.3-1.4-2.3c1.9-7.4,1.8-15.2-0.4-22.5c-3.2-10.6-10.3-19.2-20.1-24.4c-9.7-5.2-20.9-6.3-31.5-3.1
			c-10.6,3.2-19.2,10.3-24.4,20.1c-5.2,9.7-6.3,20.9-3.1,31.5c6.6,21.8,29.8,34.1,51.6,27.5c6.4-1.9,12.3-5.4,17-10.1
			c0.8-0.7,2-0.7,2.7,0c0.7,0.8,0.7,2,0,2.7c-5.2,5.1-11.6,8.9-18.6,11C234.1,415.9,229.7,416.5,225.4,416.5z"/>
	</g>
	<g>
		<path class="st5" d="M147.2,384.6c-0.6,0-1.1-0.1-1.6-0.4c-1.7-0.9-2.4-3.1-1.5-4.8c3.5-6.7,9.6-11.9,16.8-14.2
			c7.2-2.3,15.2-1.7,21.9,1.6c1.8,0.9,2.5,3,1.6,4.8c-0.9,1.8-3,2.5-4.8,1.6c-5.1-2.5-11.1-3-16.6-1.2c-5.4,1.8-10.1,5.7-12.7,10.7
			C149.7,383.9,148.5,384.6,147.2,384.6z"/>
	</g>
	<circle class="st6" cx="112.4" cy="405.9" r="37.5"/>
	<circle class="st6" cx="225.6" cy="371.5" r="37.5"/>
	<path class="st0" d="M83.6,405.3c0.1,3.4,0.9,6.8,2.8,9.7s5,5,8.4,5.2c3.4,0.3,7-1.6,8.3-4.8c1-2.5,0.5-5.3,0.4-7.9
		c-0.2-4.2,0.3-8.5,1.6-12.5c1-2.9,2.4-6,1.4-8.9c-2.3-7-12.6-5.1-16.4-0.7C85.8,390.5,83.3,398.8,83.6,405.3z"/>
	<path class="st0" d="M195.7,371.2c0.1,3.4,0.9,6.8,2.8,9.7c1.9,2.8,5,5,8.4,5.2c3.4,0.3,7-1.6,8.3-4.8c1-2.5,0.5-5.3,0.4-7.9
		c-0.2-4.2,0.3-8.5,1.6-12.5c1-2.9,2.4-6,1.4-8.9c-2.3-7-12.6-5.1-16.4-0.7C197.9,356.4,195.5,364.7,195.7,371.2z"/>
</g>
</svg>
