<?xml version="1.0" encoding="UTF-8"?>
<svg width="107px" height="190px" viewBox="0 0 107 190" version="1.1" xmlns="http://www.w3.org/2000/svg" xmlns:xlink="http://www.w3.org/1999/xlink">
    <!-- Generator: Sketch 64 (93537) - https://sketch.com -->
    <title>yellow dots</title>
    <desc>Created with Sketch.</desc>
    <g id="Page-1" stroke="none" stroke-width="1" fill="none" fill-rule="evenodd">
        <g id="yellow-dots" fill="#FFD740" fill-rule="nonzero">
            <ellipse id="Oval" cx="3.11" cy="2.791" rx="3.11" ry="2.791"></ellipse>
            <ellipse id="Oval" cx="23.017" cy="2.791" rx="3.11" ry="2.791"></ellipse>
            <ellipse id="Oval" cx="42.924" cy="2.791" rx="3.11" ry="2.791"></ellipse>
            <ellipse id="Oval" cx="62.831" cy="2.791" rx="3.11" ry="2.791"></ellipse>
            <ellipse id="Oval" cx="83.982" cy="2.791" rx="3.11" ry="2.791"></ellipse>
            <ellipse id="Oval" cx="103.89" cy="2.791" rx="3.11" ry="2.791"></ellipse>
            <ellipse id="Oval" cx="3.11" cy="19.535" rx="3.11" ry="2.791"></ellipse>
            <ellipse id="Oval" cx="23.017" cy="19.535" rx="3.11" ry="2.791"></ellipse>
            <ellipse id="Oval" cx="42.924" cy="19.535" rx="3.11" ry="2.791"></ellipse>
            <ellipse id="Oval" cx="62.831" cy="19.535" rx="3.11" ry="2.791"></ellipse>
            <ellipse id="Oval" cx="83.982" cy="19.535" rx="3.11" ry="2.791"></ellipse>
            <ellipse id="Oval" cx="103.89" cy="19.535" rx="3.11" ry="2.791"></ellipse>
            <ellipse id="Oval" cx="3.11" cy="36.279" rx="3.11" ry="2.791"></ellipse>
            <ellipse id="Oval" cx="23.017" cy="36.279" rx="3.11" ry="2.791"></ellipse>
            <ellipse id="Oval" cx="42.924" cy="36.279" rx="3.11" ry="2.791"></ellipse>
            <ellipse id="Oval" cx="62.831" cy="36.279" rx="3.11" ry="2.791"></ellipse>
            <ellipse id="Oval" cx="83.982" cy="36.279" rx="3.11" ry="2.791"></ellipse>
            <ellipse id="Oval" cx="103.89" cy="36.279" rx="3.11" ry="2.791"></ellipse>
            <ellipse id="Oval" cx="3.11" cy="54.139" rx="3.11" ry="2.791"></ellipse>
            <ellipse id="Oval" cx="23.017" cy="54.139" rx="3.11" ry="2.791"></ellipse>
            <ellipse id="Oval" cx="42.924" cy="54.139" rx="3.11" ry="2.791"></ellipse>
            <ellipse id="Oval" cx="62.831" cy="54.139" rx="3.11" ry="2.791"></ellipse>
            <ellipse id="Oval" cx="83.982" cy="54.139" rx="3.11" ry="2.791"></ellipse>
            <ellipse id="Oval" cx="103.89" cy="54.139" rx="3.11" ry="2.791"></ellipse>
            <ellipse id="Oval" cx="3.11" cy="70.884" rx="3.11" ry="2.791"></ellipse>
            <ellipse id="Oval" cx="23.017" cy="70.884" rx="3.11" ry="2.791"></ellipse>
            <ellipse id="Oval" cx="42.924" cy="70.884" rx="3.11" ry="2.791"></ellipse>
            <ellipse id="Oval" cx="62.831" cy="70.884" rx="3.11" ry="2.791"></ellipse>
            <ellipse id="Oval" cx="83.982" cy="70.884" rx="3.11" ry="2.791"></ellipse>
            <ellipse id="Oval" cx="103.89" cy="70.884" rx="3.11" ry="2.791"></ellipse>
            <ellipse id="Oval" cx="3.11" cy="87.628" rx="3.11" ry="2.791"></ellipse>
            <ellipse id="Oval" cx="23.017" cy="87.628" rx="3.11" ry="2.791"></ellipse>
            <ellipse id="Oval" cx="42.924" cy="87.628" rx="3.11" ry="2.791"></ellipse>
            <ellipse id="Oval" cx="62.831" cy="87.628" rx="3.11" ry="2.791"></ellipse>
            <ellipse id="Oval" cx="83.982" cy="87.628" rx="3.11" ry="2.791"></ellipse>
            <ellipse id="Oval" cx="103.89" cy="87.628" rx="3.11" ry="2.791"></ellipse>
            <ellipse id="Oval" cx="3.11" cy="104.372" rx="3.11" ry="2.791"></ellipse>
            <ellipse id="Oval" cx="23.017" cy="104.372" rx="3.11" ry="2.791"></ellipse>
            <ellipse id="Oval" cx="42.924" cy="104.372" rx="3.11" ry="2.791"></ellipse>
            <ellipse id="Oval" cx="62.831" cy="104.372" rx="3.11" ry="2.791"></ellipse>
            <ellipse id="Oval" cx="83.982" cy="104.372" rx="3.11" ry="2.791"></ellipse>
            <ellipse id="Oval" cx="103.89" cy="104.372" rx="3.11" ry="2.791"></ellipse>
            <ellipse id="Oval" cx="3.11" cy="121.116" rx="3.11" ry="2.791"></ellipse>
            <ellipse id="Oval" cx="23.017" cy="121.116" rx="3.11" ry="2.791"></ellipse>
            <ellipse id="Oval" cx="42.924" cy="121.116" rx="3.11" ry="2.791"></ellipse>
            <ellipse id="Oval" cx="62.831" cy="121.116" rx="3.11" ry="2.791"></ellipse>
            <ellipse id="Oval" cx="83.982" cy="121.116" rx="3.11" ry="2.791"></ellipse>
            <ellipse id="Oval" cx="103.89" cy="121.116" rx="3.11" ry="2.791"></ellipse>
            <ellipse id="Oval" cx="3.11" cy="137.86" rx="3.11" ry="2.791"></ellipse>
            <ellipse id="Oval" cx="23.017" cy="137.86" rx="3.11" ry="2.791"></ellipse>
            <ellipse id="Oval" cx="42.924" cy="137.86" rx="3.11" ry="2.791"></ellipse>
            <ellipse id="Oval" cx="62.831" cy="137.86" rx="3.11" ry="2.791"></ellipse>
            <ellipse id="Oval" cx="83.982" cy="137.86" rx="3.11" ry="2.791"></ellipse>
            <ellipse id="Oval" cx="103.89" cy="137.86" rx="3.11" ry="2.791"></ellipse>
            <ellipse id="Oval" cx="3.11" cy="154.604" rx="3.11" ry="2.791"></ellipse>
            <ellipse id="Oval" cx="23.017" cy="154.604" rx="3.11" ry="2.791"></ellipse>
            <ellipse id="Oval" cx="42.924" cy="154.604" rx="3.11" ry="2.791"></ellipse>
            <ellipse id="Oval" cx="62.831" cy="154.604" rx="3.11" ry="2.791"></ellipse>
            <ellipse id="Oval" cx="83.982" cy="154.604" rx="3.11" ry="2.791"></ellipse>
            <ellipse id="Oval" cx="103.89" cy="154.604" rx="3.11" ry="2.791"></ellipse>
            <ellipse id="Oval" cx="3.11" cy="170.232" rx="3.11" ry="2.791"></ellipse>
            <ellipse id="Oval" cx="23.017" cy="170.232" rx="3.11" ry="2.791"></ellipse>
            <ellipse id="Oval" cx="42.924" cy="170.232" rx="3.11" ry="2.791"></ellipse>
            <ellipse id="Oval" cx="62.831" cy="170.232" rx="3.11" ry="2.791"></ellipse>
            <ellipse id="Oval" cx="83.982" cy="170.232" rx="3.11" ry="2.791"></ellipse>
            <ellipse id="Oval" cx="103.89" cy="170.232" rx="3.11" ry="2.791"></ellipse>
            <ellipse id="Oval" cx="3.11" cy="186.976" rx="3.11" ry="2.791"></ellipse>
            <ellipse id="Oval" cx="23.017" cy="186.976" rx="3.11" ry="2.791"></ellipse>
            <ellipse id="Oval" cx="42.924" cy="186.976" rx="3.11" ry="2.791"></ellipse>
            <ellipse id="Oval" cx="62.831" cy="186.976" rx="3.11" ry="2.791"></ellipse>
            <ellipse id="Oval" cx="83.982" cy="186.976" rx="3.11" ry="2.791"></ellipse>
            <ellipse id="Oval" cx="103.89" cy="186.976" rx="3.11" ry="2.791"></ellipse>
        </g>
    </g>
</svg>